{
  "accessors": [
    {
      "bufferView": 2,
      "componentType": 5126,
      "count": 1626,
      "max": [
        0.4445587694644928,
        2.0209145545959473,
        0.667568564414978
      ],
      "min": [
        -0.35541701316833496,
        -0.057521939277648926,
        -0.6675541400909424
      ],
      "type": "VEC3"
    },
    {
      "bufferView": 2,
      "byteOffset": 19512,
      "componentType": 5126,
      "count": 1626,
      "max": [
        0.9995465278625488,
        0.9987557530403137,
        0.999363124370575
      ],
      "min": [
        -0.9998741745948792,
        -0.9997382164001465,
        -0.9993552565574646
      ],
      "type": "VEC3"
    },
    {
      "bufferView": 1,
      "componentType": 5126,
      "count": 1626,
      "max": [
        0.995013415813446,
        0.9573514461517334
      ],
      "min": [
        0.020298779010772705,
        0.008395731449127197
      ],
      "type": "VEC2"
    },
    {
      "bufferView": 0,
      "componentType": 5125,
      "count": 7218,
      "type": "SCALAR"
    }
  ],
  "asset": {
    "extras": {
      "author": "DutchTheWood (https://sketchfab.com/anrico.opperman)",
      "license": "CC-BY-4.0 (http://creativecommons.org/licenses/by/4.0/)",
      "source": "https://sketchfab.com/3d-models/fertilizer-a7ec96ac6e2c4f31b6d0341724e4715c",
      "title": "Fertilizer"
    },
    "generator": "Sketchfab-16.53.0",
    "version": "2.0"
  },
  "bufferViews": [
    {
      "buffer": 0,
      "byteLength": 28872,
      "name": "floatBufferViews",
      "target": 34963
    },
    {
      "buffer": 0,
      "byteLength": 13008,
      "byteOffset": 28872,
      "byteStride": 8,
      "name": "floatBufferViews",
      "target": 34962
    },
    {
      "buffer": 0,
      "byteLength": 39024,
      "byteOffset": 41880,
      "byteStride": 12,
      "name": "floatBufferViews",
      "target": 34962
    }
  ],
  "buffers": [
    {
      "byteLength": 80904,
      "uri": "scene.bin"
    }
  ],
  "images": [
    {
      "uri": "textures/TextureWrap_baseColor.png"
    }
  ],
  "materials": [
    {
      "doubleSided": true,
      "name": "TextureWrap",
      "pbrMetallicRoughness": {
        "baseColorTexture": {
          "index": 0
        },
        "metallicFactor": 0.0
      }
    }
  ],
  "meshes": [
    {
      "name": "Cube_TextureWrap_0",
      "primitives": [
        {
          "attributes": {
            "NORMAL": 1,
            "POSITION": 0,
            "TEXCOORD_0": 2
          },
          "indices": 3,
          "material": 0,
          "mode": 4
        }
      ]
    }
  ],
  "nodes": [
    {
      "children": [
        1
      ],
      "matrix": [
        1.0,
        0.0,
        0.0,
        0.0,
        0.0,
        2.220446049250313e-16,
        -1.0,
        0.0,
        0.0,
        1.0,
        2.220446049250313e-16,
        0.0,
        0.0,
        0.0,
        0.0,
        1.0
      ],
      "name": "Sketchfab_model"
    },
    {
      "children": [
        2
      ],
      "matrix": [
        0.009999999776482582,
        0.0,
        0.0,
        0.0,
        0.0,
        0.0,
        0.009999999776482582,
        0.0,
        0.0,
        -0.009999999776482582,
        0.0,
        0.0,
        0.0,
        0.0,
        0.0,
        1.0
      ],
      "name": "Fertiizer.fbx"
    },
    {
      "children": [
        3
      ],
      "name": "RootNode"
    },
    {
      "children": [
        4
      ],
      "name": "Cube"
    },
    {
      "mesh": 0,
      "name": "Cube_TextureWrap_0"
    }
  ],
  "samplers": [
    {
      "magFilter": 9729,
      "minFilter": 9987,
      "wrapS": 10497,
      "wrapT": 10497
    }
  ],
  "scene": 0,
  "scenes": [
    {
      "name": "Sketchfab_Scene",
      "nodes": [
        0
      ]
    }
  ],
  "textures": [
    {
      "sampler": 0,
      "source": 0
    }
  ]
}
