{
  "accessors": [
    {
      "bufferView": 1,
      "componentType": 5126,
      "count": 2712,
      "max": [
        1.0975853204727173,
        0.5908225774765015,
        1.5134062767028809
      ],
      "min": [
        -0.7929211258888245,
        -0.4610615670681,
        -0.04386715963482857
      ],
      "type": "VEC3"
    },
    {
      "bufferView": 1,
      "byteOffset": 32544,
      "componentType": 5126,
      "count": 2712,
      "max": [
        0.9825536012649536,
        0.9715301990509033,
        0.5770856738090515
      ],
      "min": [
        -0.9798605442047119,
        -0.9792495965957642,
        -0.9999938607215881
      ],
      "type": "VEC3"
    },
    {
      "bufferView": 0,
      "componentType": 5125,
      "count": 14088,
      "type": "SCALAR"
    },
    {
      "bufferView": 2,
      "componentType": 5126,
      "count": 121,
      "max": [
        2.5
      ],
      "min": [
        0.0
      ],
      "type": "SCALAR"
    },
    {
      "bufferView": 3,
      "componentType": 5126,
      "count": 121,
      "max": [
        100.0,
        100.0,
        100.0
      ],
      "min": [
        9.999999960041972e-13,
        9.999999960041972e-13,
        9.999999960041972e-13
      ],
      "type": "VEC3"
    },
    {
      "bufferView": 2,
      "byteOffset": 484,
      "componentType": 5126,
      "count": 4,
      "max": [
        2.5
      ],
      "min": [
        0.0
      ],
      "type": "SCALAR"
    },
    {
      "bufferView": 4,
      "componentType": 5126,
      "count": 4,
      "max": [
        0.0,
        0.0,
        1.0,
        0.769420862197876
      ],
      "min": [
        -0.7071068286895752,
        -0.18163561820983887,
        0.0,
        6.123234262925839e-17
      ],
      "type": "VEC4"
    },
    {
      "bufferView": 2,
      "byteOffset": 500,
      "componentType": 5126,
      "count": 121,
      "max": [
        2.5
      ],
      "min": [
        0.0
      ],
      "type": "SCALAR"
    },
    {
      "bufferView": 3,
      "byteOffset": 1452,
      "componentType": 5126,
      "count": 121,
      "max": [
        100.0,
        100.0,
        100.0
      ],
      "min": [
        9.999999960041972e-13,
        9.999999960041972e-13,
        9.999999960041972e-13
      ],
      "type": "VEC3"
    },
    {
      "bufferView": 2,
      "byteOffset": 984,
      "componentType": 5126,
      "count": 4,
      "max": [
        2.5
      ],
      "min": [
        0.0
      ],
      "type": "SCALAR"
    },
    {
      "bufferView": 4,
      "byteOffset": 64,
      "componentType": 5126,
      "count": 4,
      "max": [
        0.0,
        0.0,
        1.0,
        0.769420862197876
      ],
      "min": [
        -0.7071068286895752,
        -0.18163561820983887,
        0.0,
        6.123234262925839e-17
      ],
      "type": "VEC4"
    },
    {
      "bufferView": 2,
      "byteOffset": 1000,
      "componentType": 5126,
      "count": 1,
      "max": [
        0.0
      ],
      "min": [
        0.0
      ],
      "type": "SCALAR"
    },
    {
      "bufferView": 3,
      "byteOffset": 2904,
      "componentType": 5126,
      "count": 1,
      "max": [
        100.0,
        100.0,
        100.0
      ],
      "min": [
        100.0,
        100.0,
        100.0
      ],
      "type": "VEC3"
    },
    {
      "bufferView": 2,
      "byteOffset": 1004,
      "componentType": 5126,
      "count": 1,
      "max": [
        0.0
      ],
      "min": [
        0.0
      ],
      "type": "SCALAR"
    },
    {
      "bufferView": 3,
      "byteOffset": 2916,
      "componentType": 5126,
      "count": 1,
      "max": [
        -148.73609924316406,
        0.0,
        126.3345947265625
      ],
      "min": [
        -148.73609924316406,
        0.0,
        126.3345947265625
      ],
      "type": "VEC3"
    },
    {
      "bufferView": 2,
      "byteOffset": 1008,
      "componentType": 5126,
      "count": 1,
      "max": [
        0.0
      ],
      "min": [
        0.0
      ],
      "type": "SCALAR"
    },
    {
      "bufferView": 3,
      "byteOffset": 2928,
      "componentType": 5126,
      "count": 1,
      "max": [
        100.0,
        100.0,
        100.0
      ],
      "min": [
        100.0,
        100.0,
        100.0
      ],
      "type": "VEC3"
    }
  ],
  "animations": [
    {
      "channels": [
        {
          "sampler": 0,
          "target": {
            "node": 4,
            "path": "scale"
          }
        },
        {
          "sampler": 1,
          "target": {
            "node": 4,
            "path": "rotation"
          }
        }
      ],
      "name": "Cube|CubeAction",
      "samplers": [
        {
          "input": 3,
          "interpolation": "LINEAR",
          "output": 4
        },
        {
          "input": 5,
          "interpolation": "LINEAR",
          "output": 6
        }
      ]
    },
    {
      "channels": [
        {
          "sampler": 0,
          "target": {
            "node": 4,
            "path": "scale"
          }
        },
        {
          "sampler": 1,
          "target": {
            "node": 4,
            "path": "rotation"
          }
        }
      ],
      "name": "Cube|Cube|CubeAction",
      "samplers": [
        {
          "input": 7,
          "interpolation": "LINEAR",
          "output": 8
        },
        {
          "input": 9,
          "interpolation": "LINEAR",
          "output": 10
        }
      ]
    },
    {
      "channels": [
        {
          "sampler": 0,
          "target": {
            "node": 4,
            "path": "scale"
          }
        }
      ],
      "name": "Cube|Cube|Cube|CubeAction",
      "samplers": [
        {
          "input": 11,
          "interpolation": "LINEAR",
          "output": 12
        }
      ]
    },
    {
      "channels": [
        {
          "sampler": 0,
          "target": {
            "node": 4,
            "path": "translation"
          }
        },
        {
          "sampler": 1,
          "target": {
            "node": 4,
            "path": "scale"
          }
        }
      ],
      "name": "Cube|Leaf|CubeAction",
      "samplers": [
        {
          "input": 13,
          "interpolation": "LINEAR",
          "output": 14
        },
        {
          "input": 15,
          "interpolation": "LINEAR",
          "output": 16
        }
      ]
    }
  ],
  "asset": {
    "extras": {
      "author": "macychan (https://sketchfab.com/macychan)",
      "license": "CC-BY-4.0 (http://creativecommons.org/licenses/by/4.0/)",
      "source": "https://sketchfab.com/3d-models/growth-sprout-v02-9982bfe9d76542599838c342b447767f",
      "title": "Growth_Sprout_v02"
    },
    "generator": "Sketchfab-13.49.0",
    "version": "2.0"
  },
  "bufferViews": [
    {
      "buffer": 0,
      "byteLength": 56352,
      "name": "floatBufferViews",
      "target": 34963
    },
    {
      "buffer": 0,
      "byteLength": 65088,
      "byteOffset": 56352,
      "byteStride": 12,
      "name": "floatBufferViews",
      "target": 34962
    },
    {
      "buffer": 0,
      "byteLength": 1012,
      "byteOffset": 121440,
      "name": "floatBufferViews"
    },
    {
      "buffer": 0,
      "byteLength": 2940,
      "byteOffset": 122452,
      "byteStride": 12,
      "name": "floatBufferViews"
    },
    {
      "buffer": 0,
      "byteLength": 128,
      "byteOffset": 125392,
      "byteStride": 16,
      "name": "floatBufferViews"
    }
  ],
  "buffers": [
    {
      "byteLength": 125520,
      "uri": "scene.bin"
    }
  ],
  "materials": [
    {
      "doubleSided": true,
      "name": "Material.001",
      "pbrMetallicRoughness": {
        "baseColorFactor": [
          0.0561285,
          0.116971,
          0.0466651,
          1.0
        ],
        "metallicFactor": 0.0,
        "roughnessFactor": 0.9778719163469597
      }
    }
  ],
  "meshes": [
    {
      "name": "Cube_Material.001_0",
      "primitives": [
        {
          "attributes": {
            "NORMAL": 1,
            "POSITION": 0
          },
          "indices": 2,
          "material": 0,
          "mode": 4
        }
      ]
    }
  ],
  "nodes": [
    {
      "children": [
        1
      ],
      "matrix": [
        1.0,
        0.0,
        0.0,
        0.0,
        0.0,
        2.220446049250313e-16,
        -1.0,
        0.0,
        0.0,
        1.0,
        2.220446049250313e-16,
        0.0,
        0.0,
        0.0,
        0.0,
        1.0
      ],
      "name": "Sketchfab_model"
    },
    {
      "children": [
        2
      ],
      "matrix": [
        0.009999999776482582,
        0.0,
        0.0,
        0.0,
        0.0,
        0.0,
        0.009999999776482582,
        0.0,
        0.0,
        -0.009999999776482582,
        0.0,
        0.0,
        0.0,
        0.0,
        0.0,
        1.0
      ],
      "name": "6a0ddb3702ce4ad285fd8b740f4b9c40.fbx"
    },
    {
      "children": [
        3
      ],
      "name": "Object_2"
    },
    {
      "children": [
        4
      ],
      "name": "RootNode"
    },
    {
      "children": [
        5
      ],
      "name": "Cube",
      "rotation": [
        -0.7071068286895752,
        0.0,
        0.0,
        0.7071067094802856
      ],
      "scale": [
        81.66666412353516,
        81.66666412353516,
        81.66666412353516
      ]
    },
    {
      "mesh": 0,
      "name": "Cube_Material.001_0"
    }
  ],
  "scene": 0,
  "scenes": [
    {
      "name": "Sketchfab_Scene",
      "nodes": [
        0
      ]
    }
  ]
}
