{
	"asset":{
		"generator":"Khronos glTF Blender I/O v5.2.39",
		"version":"2.0"
	},
	"extensionsUsed":[
		"KHR_materials_specular",
		"KHR_materials_ior"
	],
	"scene":0,
	"scenes":[
		{
			"name":"Scene",
			"nodes":[
				52
			]
		}
	],
	"nodes":[
		{
			"name":"Object_48",
			"rotation":[
				-0.70710688829422,
				0,
				0,
				0.7071066498756409
			]
		},
		{
			"name":"Leaf_01.004_040",
			"rotation":[
				-0.1878349632024765,
				-4.849944161833264e-05,
				-0.0002534191880840808,
				0.9822006225585938
			],
			"scale":[
				1,
				1,
				0.9999999403953552
			],
			"translation":[
				-1.727357812342234e-08,
				0.18064530193805695,
				-3.138199826935306e-05
			]
		},
		{
			"children":[
				1
			],
			"name":"Leaf_01.003_039",
			"rotation":[
				-0.0330490879714489,
				0.00012473463721107692,
				0.00028592097805812955,
				0.9994536638259888
			],
			"scale":[
				1,
				1,
				0.9999999403953552
			],
			"translation":[
				-1.6498233890160918e-08,
				0.1809782236814499,
				-2.6446476113051176e-05
			]
		},
		{
			"children":[
				2
			],
			"name":"Leaf_01.002_038",
			"rotation":[
				0.17741288244724274,
				-0.006429945584386587,
				-0.02361404523253441,
				0.9838321805000305
			],
			"scale":[
				0.9999999403953552,
				0.9999998807907104,
				0.9999999403953552
			],
			"translation":[
				-1.6951938519582654e-08,
				0.1521611362695694,
				9.394914179949865e-09
			]
		},
		{
			"children":[
				3
			],
			"name":"Leaf_01.001_037",
			"rotation":[
				-0.1824665069580078,
				0.6846113801002502,
				0.21456967294216156,
				0.6722895503044128
			],
			"scale":[
				0.9999998211860657,
				1,
				0.9999999403953552
			],
			"translation":[
				-0.013158795423805714,
				0.06311474740505219,
				-0.00737268989905715
			]
		},
		{
			"name":"Leaf_02.004_036",
			"rotation":[
				-0.13550926744937897,
				-0.007949153892695904,
				-0.058018770068883896,
				0.9890439510345459
			],
			"scale":[
				1.0000001192092896,
				1,
				1
			],
			"translation":[
				1.4901161193847656e-08,
				0.15127445757389069,
				2.60770320892334e-08
			]
		},
		{
			"children":[
				5
			],
			"name":"Leaf_02.003_035",
			"rotation":[
				-0.030119312927126884,
				-0.0012038522399961948,
				-0.003858218900859356,
				0.9995381236076355
			],
			"scale":[
				1,
				1.0000001192092896,
				1
			],
			"translation":[
				2.2351741790771484e-08,
				0.14865949749946594,
				-1.862645149230957e-09
			]
		},
		{
			"children":[
				6
			],
			"name":"Leaf_02.002_034",
			"rotation":[
				0.10011915117502213,
				0.028369715437293053,
				0.12034540623426437,
				0.987263023853302
			],
			"translation":[
				1.6298145055770874e-09,
				0.12271900475025177,
				-6.51925802230835e-09
			]
		},
		{
			"children":[
				7
			],
			"name":"Leaf_02.001_033",
			"rotation":[
				-0.20353174209594727,
				-0.5618827939033508,
				-0.2466481626033783,
				0.7629071474075317
			],
			"scale":[
				1,
				1,
				0.9999999403953552
			],
			"translation":[
				0.013683345168828964,
				0.07386008650064468,
				0.008079299703240395
			]
		},
		{
			"name":"Leaf_03.004_032",
			"rotation":[
				-0.17399998009204865,
				-0.0056793843396008015,
				-0.0321245938539505,
				0.9842051863670349
			],
			"scale":[
				1,
				0.9999999403953552,
				0.9999998807907104
			],
			"translation":[
				2.6542693376541138e-08,
				0.12943579256534576,
				1.1408701539039612e-08
			]
		},
		{
			"children":[
				9
			],
			"name":"Leaf_03.003_031",
			"rotation":[
				-0.05986182019114494,
				-0.0019119621720165014,
				-0.004400665871798992,
				0.9981951713562012
			],
			"scale":[
				1,
				1.0000001192092896,
				1.0000001192092896
			],
			"translation":[
				7.450580596923828e-09,
				0.10925832390785217,
				1.5832483768463135e-08
			]
		},
		{
			"children":[
				10
			],
			"name":"Leaf_03.002_030",
			"rotation":[
				0.13094718754291534,
				0.04816783592104912,
				0.13747180998325348,
				0.9806295037269592
			],
			"scale":[
				0.9999998211860657,
				1.0000001192092896,
				0.9999999403953552
			],
			"translation":[
				1.7462298274040222e-08,
				0.09715209901332855,
				-9.313225746154785e-09
			]
		},
		{
			"children":[
				11
			],
			"name":"Leaf_03.001_029",
			"rotation":[
				0.1513773649930954,
				-0.9548097848892212,
				-0.24869105219841003,
				0.059799231588840485
			],
			"translation":[
				-0.009083595126867294,
				0.0864827036857605,
				0.0016897282330319285
			]
		},
		{
			"name":"Petal_01.003_014",
			"rotation":[
				-0.2545550763607025,
				-8.451887697447091e-05,
				-0.00032104342244565487,
				0.9670582413673401
			],
			"scale":[
				1,
				0.9999999403953552,
				1
			],
			"translation":[
				-1.3969838619232178e-09,
				0.10063034296035767,
				7.450580596923828e-09
			]
		},
		{
			"children":[
				13
			],
			"name":"Petal_01.002_013",
			"rotation":[
				-0.36980706453323364,
				0.03277509659528732,
				0.02633456513285637,
				0.928156852722168
			],
			"scale":[
				0.9999999403953552,
				1,
				0.9999998807907104
			],
			"translation":[
				1.1175870895385742e-08,
				0.08120140433311462,
				1.6763806343078613e-08
			]
		},
		{
			"children":[
				14
			],
			"name":"Petal_01.001_012",
			"rotation":[
				0.337430477142334,
				0.18064062297344208,
				-0.1050710454583168,
				0.9178615212440491
			],
			"scale":[
				1,
				0.9999999403953552,
				0.9999999403953552
			],
			"translation":[
				0.008060794323682785,
				0.003592906752601266,
				0.01383195724338293
			]
		},
		{
			"name":"Petal_02.003_017",
			"rotation":[
				-0.2545551359653473,
				-8.45942267915234e-05,
				-0.0003211205475963652,
				0.9670581817626953
			],
			"scale":[
				1,
				0.9999997615814209,
				0.9999998807907104
			],
			"translation":[
				-2.9103830456733704e-09,
				0.10063029825687408,
				1.0823350748978555e-07
			]
		},
		{
			"children":[
				16
			],
			"name":"Petal_02.002_016",
			"rotation":[
				-0.3698074221611023,
				0.03277513012290001,
				0.02633448876440525,
				0.9281566739082336
			],
			"scale":[
				0.9999999403953552,
				1,
				1
			],
			"translation":[
				1.1990778148174286e-08,
				0.08120139688253403,
				-7.210473995655775e-08
			]
		},
		{
			"children":[
				17
			],
			"name":"Petal_02.001_015",
			"rotation":[
				0.2597094774246216,
				-0.704571008682251,
				0.23968800902366638,
				0.6153701543807983
			],
			"scale":[
				0.9999998807907104,
				1.0000001192092896,
				1.0000001192092896
			],
			"translation":[
				-0.015835536643862724,
				0.0035929083824157715,
				0.00036569751682691276
			]
		},
		{
			"name":"Petal_03.003_019",
			"rotation":[
				-0.2545551061630249,
				-8.450767927570269e-05,
				-0.0003210318391211331,
				0.9670582413673401
			],
			"scale":[
				1.0000001192092896,
				1,
				1.0000001192092896
			],
			"translation":[
				2.4563632905483246e-08,
				0.10063048452138901,
				-3.5390257835388184e-08
			]
		},
		{
			"children":[
				19
			],
			"name":"Petal_03.002_018",
			"rotation":[
				-0.3698071241378784,
				0.03277493268251419,
				0.0263344906270504,
				0.9281567931175232
			],
			"scale":[
				0.9999999403953552,
				0.9999999403953552,
				0.9999999403953552
			],
			"translation":[
				0,
				0.08120150864124298,
				-5.4016709327697754e-08
			]
		},
		{
			"children":[
				20
			],
			"name":"Petal_03.001_00",
			"rotation":[
				0.07772120833396912,
				0.885211706161499,
				-0.34475886821746826,
				0.30249130725860596
			],
			"translation":[
				0.007774742785841227,
				0.0035928504075855017,
				-0.013595989905297756
			]
		},
		{
			"name":"Petal_04.003_022",
			"rotation":[
				-0.2360304445028305,
				-7.12442270014435e-05,
				-0.0002931639028247446,
				0.9717456102371216
			],
			"scale":[
				1,
				0.9999999403953552,
				1
			],
			"translation":[
				4.394678398966789e-09,
				0.09305404126644135,
				1.2369127944111824e-09
			]
		},
		{
			"children":[
				22
			],
			"name":"Petal_04.002_021",
			"rotation":[
				-0.3318865895271301,
				0.019095856696367264,
				0.017998212948441505,
				0.9429542422294617
			],
			"scale":[
				0.9999999403953552,
				0.9999998211860657,
				1
			],
			"translation":[
				2.9103830456733704e-09,
				0.07306764274835587,
				4.713365342468023e-08
			]
		},
		{
			"children":[
				23
			],
			"name":"Petal_04.001_020",
			"rotation":[
				0.21826530992984772,
				0.6347930431365967,
				-0.2285824418067932,
				0.7050873041152954
			],
			"scale":[
				0.9999999403953552,
				1.0000001192092896,
				1
			],
			"translation":[
				0.01583867520093918,
				0.00607830286026001,
				4.0863949834601954e-05
			]
		},
		{
			"name":"Petal_05.003_025",
			"rotation":[
				-0.2360304743051529,
				-7.112757884897292e-05,
				-0.000293265882646665,
				0.9717456102371216
			],
			"scale":[
				1,
				1,
				0.9999999403953552
			],
			"translation":[
				-2.034357748925686e-08,
				0.09305380284786224,
				-6.705522537231445e-08
			]
		},
		{
			"children":[
				25
			],
			"name":"Petal_05.002_024",
			"rotation":[
				-0.3318861424922943,
				0.01909538544714451,
				0.017997808754444122,
				0.942954421043396
			],
			"scale":[
				0.9999998807907104,
				0.9999998807907104,
				0.9999998807907104
			],
			"translation":[
				3.725290298461914e-09,
				0.07306788861751556,
				-5.3085386753082275e-08
			]
		},
		{
			"children":[
				26
			],
			"name":"Petal_05.001_023",
			"rotation":[
				0.3070906102657318,
				-0.2932264506816864,
				0.07473234832286835,
				0.9022908210754395
			],
			"scale":[
				1,
				0.9999999403953552,
				1
			],
			"translation":[
				-0.007771573029458523,
				0.0060783009976148605,
				0.013991601765155792
			]
		},
		{
			"name":"Petal_06.003_028",
			"rotation":[
				-0.23603032529354095,
				-7.121958333300427e-05,
				-0.000293166987830773,
				0.9717456102371216
			],
			"scale":[
				1.0000001192092896,
				1.0000001192092896,
				1
			],
			"translation":[
				5.0640664994716644e-09,
				0.09305417537689209,
				-2.2351741790771484e-08
			]
		},
		{
			"children":[
				28
			],
			"name":"Petal_06.002_027",
			"rotation":[
				-0.33188629150390625,
				0.01909554935991764,
				0.0179979857057333,
				0.9429543614387512
			],
			"scale":[
				1,
				0.9999999403953552,
				0.9999998807907104
			],
			"translation":[
				2.421438694000244e-08,
				0.07306759059429169,
				1.1175870895385742e-08
			]
		},
		{
			"children":[
				29
			],
			"name":"Petal_06.001_026",
			"rotation":[
				0.08882536739110947,
				-0.9280200004577637,
				0.3033144176006317,
				0.1972036212682724
			],
			"scale":[
				1,
				0.9999998807907104,
				1
			],
			"translation":[
				-0.00804818980395794,
				0.006078304722905159,
				-0.013430899009108543
			]
		},
		{
			"children":[
				15,
				18,
				21,
				24,
				27,
				30
			],
			"name":"Head_011",
			"rotation":[
				5.822406445865624e-11,
				-5.3806974875669766e-08,
				-0.01674497313797474,
				0.9998598098754883
			],
			"scale":[
				1,
				0.9999999403953552,
				1
			],
			"translation":[
				-9.342318030292063e-09,
				0.05932752415537834,
				-3.152859917587847e-15
			]
		},
		{
			"children":[
				31
			],
			"name":"Stem.009_010",
			"rotation":[
				2.9202737450439997e-10,
				5.043605355581349e-08,
				-0.09328078478574753,
				0.9956398606300354
			],
			"scale":[
				1,
				1.0000001192092896,
				1.0000001192092896
			],
			"translation":[
				1.0710212272613262e-08,
				0.0726332888007164,
				-1.0677656675506242e-14
			]
		},
		{
			"children":[
				32
			],
			"name":"Stem.008_09",
			"rotation":[
				-5.5410717680892674e-11,
				9.437338022166841e-09,
				0.05536758899688721,
				0.9984660148620605
			],
			"scale":[
				0.9999998807907104,
				0.9999998807907104,
				1
			],
			"translation":[
				-1.3038516932795119e-08,
				0.07225502282381058,
				-1.8290924330699454e-14
			]
		},
		{
			"children":[
				33
			],
			"name":"Stem.007_08",
			"rotation":[
				1.2617319411489802e-09,
				4.535596342947201e-09,
				0.1692127138376236,
				0.9855796098709106
			],
			"translation":[
				2.4214383387288763e-08,
				0.06900812685489655,
				3.2751579226442118e-15
			]
		},
		{
			"children":[
				34
			],
			"name":"Stem.006_07",
			"rotation":[
				4.1574996223481264e-10,
				4.966526079286382e-10,
				0.05975080281496048,
				0.9982133507728577
			],
			"scale":[
				0.9999999403953552,
				1,
				0.9999998807907104
			],
			"translation":[
				-4.5634809708872126e-08,
				0.07318443804979324,
				6.9111383282915995e-15
			]
		},
		{
			"children":[
				35
			],
			"name":"Stem.005_06",
			"rotation":[
				-1.7159186571635843e-10,
				3.346939436710272e-08,
				-0.09537208825349808,
				0.995441734790802
			],
			"translation":[
				3.352760558072987e-08,
				0.07970137149095535,
				-1.176836406102666e-14
			]
		},
		{
			"children":[
				12,
				36
			],
			"name":"Stem.004_05",
			"rotation":[
				-8.726528527569499e-11,
				-1.1873902749925946e-08,
				-0.08389987796545029,
				0.9964742064476013
			],
			"translation":[
				7.450577044210149e-09,
				0.08090844005346298,
				1.4988010832439613e-14
			]
		},
		{
			"children":[
				37
			],
			"name":"Stem.003_04",
			"rotation":[
				-1.8004715773844993e-10,
				-7.248095101886065e-08,
				-0.07595354318618774,
				0.9971113801002502
			],
			"scale":[
				0.9999999403953552,
				1,
				1
			],
			"translation":[
				1.862648479900031e-09,
				0.08722870796918869,
				2.220446049250313e-15
			]
		},
		{
			"children":[
				38
			],
			"name":"Stem.002_03",
			"rotation":[
				1.2240194968704543e-10,
				-2.1342646761013384e-08,
				-0.008375890552997589,
				0.9999649524688721
			],
			"scale":[
				0.9999999403953552,
				0.9999998807907104,
				1
			],
			"translation":[
				9.313256832399475e-10,
				0.073459193110466,
				3.3306690738754696e-16
			]
		},
		{
			"children":[
				8,
				39
			],
			"name":"Stem.001_02",
			"rotation":[
				-3.0111948490230134e-09,
				4.067954151310005e-08,
				0.08875090628862381,
				0.9960538148880005
			],
			"scale":[
				1,
				0.9999998211860657,
				0.9999998807907104
			],
			"translation":[
				3.6831107871202095e-23,
				0.06311474740505219,
				0
			]
		},
		{
			"children":[
				4,
				40
			],
			"name":"ROOT_01",
			"rotation":[
				3.5527141023169746e-15,
				1.5881867761018131e-22,
				2.6469779601696886e-23,
				1
			],
			"scale":[
				1,
				0.9999998807907104,
				0.9999998807907104
			]
		},
		{
			"children":[
				41
			],
			"name":"_rootJoint",
			"rotation":[
				-8.557134556497203e-09,
				1.7114272665708086e-08,
				-2.928982756881431e-16,
				1
			],
			"scale":[
				1,
				0.9999998807907104,
				0.9999998807907104
			]
		},
		{
			"mesh":0,
			"name":"Object_49",
			"skin":0
		},
		{
			"children":[
				0,
				43,
				42
			],
			"name":"Object_5"
		},
		{
			"children":[
				44
			],
			"name":"Armature",
			"rotation":[
				-0.70710688829422,
				0,
				0,
				0.7071066498756409
			]
		},
		{
			"mesh":1,
			"name":"Ground_Plane_M_Ground_0"
		},
		{
			"children":[
				46
			],
			"name":"Ground_Plane",
			"rotation":[
				-0.70710688829422,
				0,
				0,
				0.7071066498756409
			]
		},
		{
			"name":"Tulip",
			"rotation":[
				-0.70710688829422,
				0,
				0,
				0.7071066498756409
			]
		},
		{
			"children":[
				45,
				47,
				48
			],
			"name":"RootNode"
		},
		{
			"children":[
				49
			],
			"name":"Object_2"
		},
		{
			"children":[
				50
			],
			"name":"0d9c74de749045f2abaff19db4b3ebc8.fbx",
			"rotation":[
				0.70710688829422,
				0,
				0,
				0.7071066498756409
			]
		},
		{
			"children":[
				51
			],
			"name":"Sketchfab_model",
			"rotation":[
				-0.70710688829422,
				0,
				0,
				0.7071066498756409
			],
			"scale":[
				1.73170006275177,
				1.7317003011703491,
				1.7317003011703491
			]
		}
	],
	"animations":[
		{
			"channels":[
				{
					"sampler":0,
					"target":{
						"node":42,
						"path":"translation"
					}
				},
				{
					"sampler":1,
					"target":{
						"node":42,
						"path":"rotation"
					}
				},
				{
					"sampler":2,
					"target":{
						"node":42,
						"path":"scale"
					}
				},
				{
					"sampler":3,
					"target":{
						"node":41,
						"path":"translation"
					}
				},
				{
					"sampler":4,
					"target":{
						"node":41,
						"path":"rotation"
					}
				},
				{
					"sampler":5,
					"target":{
						"node":41,
						"path":"scale"
					}
				},
				{
					"sampler":6,
					"target":{
						"node":4,
						"path":"translation"
					}
				},
				{
					"sampler":7,
					"target":{
						"node":4,
						"path":"rotation"
					}
				},
				{
					"sampler":8,
					"target":{
						"node":4,
						"path":"scale"
					}
				},
				{
					"sampler":9,
					"target":{
						"node":3,
						"path":"translation"
					}
				},
				{
					"sampler":10,
					"target":{
						"node":3,
						"path":"rotation"
					}
				},
				{
					"sampler":11,
					"target":{
						"node":3,
						"path":"scale"
					}
				},
				{
					"sampler":12,
					"target":{
						"node":2,
						"path":"translation"
					}
				},
				{
					"sampler":13,
					"target":{
						"node":2,
						"path":"rotation"
					}
				},
				{
					"sampler":14,
					"target":{
						"node":2,
						"path":"scale"
					}
				},
				{
					"sampler":15,
					"target":{
						"node":1,
						"path":"translation"
					}
				},
				{
					"sampler":16,
					"target":{
						"node":1,
						"path":"rotation"
					}
				},
				{
					"sampler":17,
					"target":{
						"node":1,
						"path":"scale"
					}
				},
				{
					"sampler":18,
					"target":{
						"node":40,
						"path":"translation"
					}
				},
				{
					"sampler":19,
					"target":{
						"node":40,
						"path":"rotation"
					}
				},
				{
					"sampler":20,
					"target":{
						"node":40,
						"path":"scale"
					}
				},
				{
					"sampler":21,
					"target":{
						"node":8,
						"path":"translation"
					}
				},
				{
					"sampler":22,
					"target":{
						"node":8,
						"path":"rotation"
					}
				},
				{
					"sampler":23,
					"target":{
						"node":8,
						"path":"scale"
					}
				},
				{
					"sampler":24,
					"target":{
						"node":7,
						"path":"translation"
					}
				},
				{
					"sampler":25,
					"target":{
						"node":7,
						"path":"rotation"
					}
				},
				{
					"sampler":26,
					"target":{
						"node":7,
						"path":"scale"
					}
				},
				{
					"sampler":27,
					"target":{
						"node":6,
						"path":"translation"
					}
				},
				{
					"sampler":28,
					"target":{
						"node":6,
						"path":"rotation"
					}
				},
				{
					"sampler":29,
					"target":{
						"node":6,
						"path":"scale"
					}
				},
				{
					"sampler":30,
					"target":{
						"node":5,
						"path":"translation"
					}
				},
				{
					"sampler":31,
					"target":{
						"node":5,
						"path":"rotation"
					}
				},
				{
					"sampler":32,
					"target":{
						"node":5,
						"path":"scale"
					}
				},
				{
					"sampler":33,
					"target":{
						"node":39,
						"path":"translation"
					}
				},
				{
					"sampler":34,
					"target":{
						"node":39,
						"path":"rotation"
					}
				},
				{
					"sampler":35,
					"target":{
						"node":39,
						"path":"scale"
					}
				},
				{
					"sampler":36,
					"target":{
						"node":38,
						"path":"translation"
					}
				},
				{
					"sampler":37,
					"target":{
						"node":38,
						"path":"rotation"
					}
				},
				{
					"sampler":38,
					"target":{
						"node":38,
						"path":"scale"
					}
				},
				{
					"sampler":39,
					"target":{
						"node":37,
						"path":"translation"
					}
				},
				{
					"sampler":40,
					"target":{
						"node":37,
						"path":"rotation"
					}
				},
				{
					"sampler":41,
					"target":{
						"node":37,
						"path":"scale"
					}
				},
				{
					"sampler":42,
					"target":{
						"node":12,
						"path":"translation"
					}
				},
				{
					"sampler":43,
					"target":{
						"node":12,
						"path":"rotation"
					}
				},
				{
					"sampler":44,
					"target":{
						"node":12,
						"path":"scale"
					}
				},
				{
					"sampler":45,
					"target":{
						"node":11,
						"path":"translation"
					}
				},
				{
					"sampler":46,
					"target":{
						"node":11,
						"path":"rotation"
					}
				},
				{
					"sampler":47,
					"target":{
						"node":11,
						"path":"scale"
					}
				},
				{
					"sampler":48,
					"target":{
						"node":10,
						"path":"translation"
					}
				},
				{
					"sampler":49,
					"target":{
						"node":10,
						"path":"rotation"
					}
				},
				{
					"sampler":50,
					"target":{
						"node":10,
						"path":"scale"
					}
				},
				{
					"sampler":51,
					"target":{
						"node":9,
						"path":"translation"
					}
				},
				{
					"sampler":52,
					"target":{
						"node":9,
						"path":"rotation"
					}
				},
				{
					"sampler":53,
					"target":{
						"node":9,
						"path":"scale"
					}
				},
				{
					"sampler":54,
					"target":{
						"node":36,
						"path":"translation"
					}
				},
				{
					"sampler":55,
					"target":{
						"node":36,
						"path":"rotation"
					}
				},
				{
					"sampler":56,
					"target":{
						"node":36,
						"path":"scale"
					}
				},
				{
					"sampler":57,
					"target":{
						"node":35,
						"path":"translation"
					}
				},
				{
					"sampler":58,
					"target":{
						"node":35,
						"path":"rotation"
					}
				},
				{
					"sampler":59,
					"target":{
						"node":35,
						"path":"scale"
					}
				},
				{
					"sampler":60,
					"target":{
						"node":34,
						"path":"translation"
					}
				},
				{
					"sampler":61,
					"target":{
						"node":34,
						"path":"rotation"
					}
				},
				{
					"sampler":62,
					"target":{
						"node":34,
						"path":"scale"
					}
				},
				{
					"sampler":63,
					"target":{
						"node":33,
						"path":"translation"
					}
				},
				{
					"sampler":64,
					"target":{
						"node":33,
						"path":"rotation"
					}
				},
				{
					"sampler":65,
					"target":{
						"node":33,
						"path":"scale"
					}
				},
				{
					"sampler":66,
					"target":{
						"node":32,
						"path":"translation"
					}
				},
				{
					"sampler":67,
					"target":{
						"node":32,
						"path":"rotation"
					}
				},
				{
					"sampler":68,
					"target":{
						"node":32,
						"path":"scale"
					}
				},
				{
					"sampler":69,
					"target":{
						"node":31,
						"path":"translation"
					}
				},
				{
					"sampler":70,
					"target":{
						"node":31,
						"path":"rotation"
					}
				},
				{
					"sampler":71,
					"target":{
						"node":31,
						"path":"scale"
					}
				},
				{
					"sampler":72,
					"target":{
						"node":15,
						"path":"translation"
					}
				},
				{
					"sampler":73,
					"target":{
						"node":15,
						"path":"rotation"
					}
				},
				{
					"sampler":74,
					"target":{
						"node":15,
						"path":"scale"
					}
				},
				{
					"sampler":75,
					"target":{
						"node":14,
						"path":"translation"
					}
				},
				{
					"sampler":76,
					"target":{
						"node":14,
						"path":"rotation"
					}
				},
				{
					"sampler":77,
					"target":{
						"node":14,
						"path":"scale"
					}
				},
				{
					"sampler":78,
					"target":{
						"node":13,
						"path":"translation"
					}
				},
				{
					"sampler":79,
					"target":{
						"node":13,
						"path":"rotation"
					}
				},
				{
					"sampler":80,
					"target":{
						"node":13,
						"path":"scale"
					}
				},
				{
					"sampler":81,
					"target":{
						"node":18,
						"path":"translation"
					}
				},
				{
					"sampler":82,
					"target":{
						"node":18,
						"path":"rotation"
					}
				},
				{
					"sampler":83,
					"target":{
						"node":18,
						"path":"scale"
					}
				},
				{
					"sampler":84,
					"target":{
						"node":17,
						"path":"translation"
					}
				},
				{
					"sampler":85,
					"target":{
						"node":17,
						"path":"rotation"
					}
				},
				{
					"sampler":86,
					"target":{
						"node":17,
						"path":"scale"
					}
				},
				{
					"sampler":87,
					"target":{
						"node":16,
						"path":"translation"
					}
				},
				{
					"sampler":88,
					"target":{
						"node":16,
						"path":"rotation"
					}
				},
				{
					"sampler":89,
					"target":{
						"node":16,
						"path":"scale"
					}
				},
				{
					"sampler":90,
					"target":{
						"node":21,
						"path":"translation"
					}
				},
				{
					"sampler":91,
					"target":{
						"node":21,
						"path":"rotation"
					}
				},
				{
					"sampler":92,
					"target":{
						"node":21,
						"path":"scale"
					}
				},
				{
					"sampler":93,
					"target":{
						"node":20,
						"path":"translation"
					}
				},
				{
					"sampler":94,
					"target":{
						"node":20,
						"path":"rotation"
					}
				},
				{
					"sampler":95,
					"target":{
						"node":20,
						"path":"scale"
					}
				},
				{
					"sampler":96,
					"target":{
						"node":19,
						"path":"translation"
					}
				},
				{
					"sampler":97,
					"target":{
						"node":19,
						"path":"rotation"
					}
				},
				{
					"sampler":98,
					"target":{
						"node":19,
						"path":"scale"
					}
				},
				{
					"sampler":99,
					"target":{
						"node":24,
						"path":"translation"
					}
				},
				{
					"sampler":100,
					"target":{
						"node":24,
						"path":"rotation"
					}
				},
				{
					"sampler":101,
					"target":{
						"node":24,
						"path":"scale"
					}
				},
				{
					"sampler":102,
					"target":{
						"node":23,
						"path":"translation"
					}
				},
				{
					"sampler":103,
					"target":{
						"node":23,
						"path":"rotation"
					}
				},
				{
					"sampler":104,
					"target":{
						"node":23,
						"path":"scale"
					}
				},
				{
					"sampler":105,
					"target":{
						"node":22,
						"path":"translation"
					}
				},
				{
					"sampler":106,
					"target":{
						"node":22,
						"path":"rotation"
					}
				},
				{
					"sampler":107,
					"target":{
						"node":22,
						"path":"scale"
					}
				},
				{
					"sampler":108,
					"target":{
						"node":27,
						"path":"translation"
					}
				},
				{
					"sampler":109,
					"target":{
						"node":27,
						"path":"rotation"
					}
				},
				{
					"sampler":110,
					"target":{
						"node":27,
						"path":"scale"
					}
				},
				{
					"sampler":111,
					"target":{
						"node":26,
						"path":"translation"
					}
				},
				{
					"sampler":112,
					"target":{
						"node":26,
						"path":"rotation"
					}
				},
				{
					"sampler":113,
					"target":{
						"node":26,
						"path":"scale"
					}
				},
				{
					"sampler":114,
					"target":{
						"node":25,
						"path":"translation"
					}
				},
				{
					"sampler":115,
					"target":{
						"node":25,
						"path":"rotation"
					}
				},
				{
					"sampler":116,
					"target":{
						"node":25,
						"path":"scale"
					}
				},
				{
					"sampler":117,
					"target":{
						"node":30,
						"path":"translation"
					}
				},
				{
					"sampler":118,
					"target":{
						"node":30,
						"path":"rotation"
					}
				},
				{
					"sampler":119,
					"target":{
						"node":30,
						"path":"scale"
					}
				},
				{
					"sampler":120,
					"target":{
						"node":29,
						"path":"translation"
					}
				},
				{
					"sampler":121,
					"target":{
						"node":29,
						"path":"rotation"
					}
				},
				{
					"sampler":122,
					"target":{
						"node":29,
						"path":"scale"
					}
				},
				{
					"sampler":123,
					"target":{
						"node":28,
						"path":"translation"
					}
				},
				{
					"sampler":124,
					"target":{
						"node":28,
						"path":"rotation"
					}
				},
				{
					"sampler":125,
					"target":{
						"node":28,
						"path":"scale"
					}
				}
			],
			"name":"Growing",
			"samplers":[
				{
					"input":12,
					"interpolation":"STEP",
					"output":13
				},
				{
					"input":12,
					"interpolation":"STEP",
					"output":14
				},
				{
					"input":12,
					"interpolation":"STEP",
					"output":15
				},
				{
					"input":12,
					"interpolation":"STEP",
					"output":13
				},
				{
					"input":16,
					"interpolation":"LINEAR",
					"output":17
				},
				{
					"input":16,
					"interpolation":"LINEAR",
					"output":18
				},
				{
					"input":16,
					"interpolation":"LINEAR",
					"output":19
				},
				{
					"input":16,
					"interpolation":"LINEAR",
					"output":20
				},
				{
					"input":16,
					"interpolation":"LINEAR",
					"output":21
				},
				{
					"input":16,
					"interpolation":"LINEAR",
					"output":22
				},
				{
					"input":16,
					"interpolation":"LINEAR",
					"output":23
				},
				{
					"input":16,
					"interpolation":"LINEAR",
					"output":24
				},
				{
					"input":16,
					"interpolation":"LINEAR",
					"output":25
				},
				{
					"input":16,
					"interpolation":"LINEAR",
					"output":26
				},
				{
					"input":16,
					"interpolation":"LINEAR",
					"output":27
				},
				{
					"input":16,
					"interpolation":"LINEAR",
					"output":28
				},
				{
					"input":16,
					"interpolation":"LINEAR",
					"output":29
				},
				{
					"input":16,
					"interpolation":"LINEAR",
					"output":30
				},
				{
					"input":16,
					"interpolation":"LINEAR",
					"output":31
				},
				{
					"input":16,
					"interpolation":"LINEAR",
					"output":32
				},
				{
					"input":16,
					"interpolation":"LINEAR",
					"output":33
				},
				{
					"input":16,
					"interpolation":"LINEAR",
					"output":34
				},
				{
					"input":16,
					"interpolation":"LINEAR",
					"output":35
				},
				{
					"input":16,
					"interpolation":"LINEAR",
					"output":36
				},
				{
					"input":16,
					"interpolation":"LINEAR",
					"output":37
				},
				{
					"input":16,
					"interpolation":"LINEAR",
					"output":38
				},
				{
					"input":16,
					"interpolation":"LINEAR",
					"output":39
				},
				{
					"input":16,
					"interpolation":"LINEAR",
					"output":40
				},
				{
					"input":16,
					"interpolation":"LINEAR",
					"output":41
				},
				{
					"input":16,
					"interpolation":"LINEAR",
					"output":42
				},
				{
					"input":16,
					"interpolation":"LINEAR",
					"output":43
				},
				{
					"input":16,
					"interpolation":"LINEAR",
					"output":44
				},
				{
					"input":16,
					"interpolation":"LINEAR",
					"output":45
				},
				{
					"input":16,
					"interpolation":"LINEAR",
					"output":46
				},
				{
					"input":16,
					"interpolation":"LINEAR",
					"output":47
				},
				{
					"input":16,
					"interpolation":"LINEAR",
					"output":48
				},
				{
					"input":16,
					"interpolation":"LINEAR",
					"output":49
				},
				{
					"input":16,
					"interpolation":"LINEAR",
					"output":50
				},
				{
					"input":16,
					"interpolation":"LINEAR",
					"output":51
				},
				{
					"input":16,
					"interpolation":"LINEAR",
					"output":52
				},
				{
					"input":16,
					"interpolation":"LINEAR",
					"output":53
				},
				{
					"input":16,
					"interpolation":"LINEAR",
					"output":54
				},
				{
					"input":16,
					"interpolation":"LINEAR",
					"output":55
				},
				{
					"input":16,
					"interpolation":"LINEAR",
					"output":56
				},
				{
					"input":16,
					"interpolation":"LINEAR",
					"output":57
				},
				{
					"input":16,
					"interpolation":"LINEAR",
					"output":58
				},
				{
					"input":16,
					"interpolation":"LINEAR",
					"output":59
				},
				{
					"input":16,
					"interpolation":"LINEAR",
					"output":60
				},
				{
					"input":16,
					"interpolation":"LINEAR",
					"output":61
				},
				{
					"input":16,
					"interpolation":"LINEAR",
					"output":62
				},
				{
					"input":16,
					"interpolation":"LINEAR",
					"output":63
				},
				{
					"input":16,
					"interpolation":"LINEAR",
					"output":64
				},
				{
					"input":16,
					"interpolation":"LINEAR",
					"output":65
				},
				{
					"input":16,
					"interpolation":"LINEAR",
					"output":66
				},
				{
					"input":16,
					"interpolation":"LINEAR",
					"output":67
				},
				{
					"input":16,
					"interpolation":"LINEAR",
					"output":68
				},
				{
					"input":16,
					"interpolation":"LINEAR",
					"output":69
				},
				{
					"input":16,
					"interpolation":"LINEAR",
					"output":70
				},
				{
					"input":16,
					"interpolation":"LINEAR",
					"output":71
				},
				{
					"input":16,
					"interpolation":"LINEAR",
					"output":72
				},
				{
					"input":16,
					"interpolation":"LINEAR",
					"output":73
				},
				{
					"input":16,
					"interpolation":"LINEAR",
					"output":74
				},
				{
					"input":16,
					"interpolation":"LINEAR",
					"output":75
				},
				{
					"input":16,
					"interpolation":"LINEAR",
					"output":76
				},
				{
					"input":16,
					"interpolation":"LINEAR",
					"output":77
				},
				{
					"input":16,
					"interpolation":"LINEAR",
					"output":78
				},
				{
					"input":16,
					"interpolation":"LINEAR",
					"output":79
				},
				{
					"input":16,
					"interpolation":"LINEAR",
					"output":80
				},
				{
					"input":16,
					"interpolation":"LINEAR",
					"output":81
				},
				{
					"input":16,
					"interpolation":"LINEAR",
					"output":82
				},
				{
					"input":16,
					"interpolation":"LINEAR",
					"output":83
				},
				{
					"input":16,
					"interpolation":"LINEAR",
					"output":84
				},
				{
					"input":16,
					"interpolation":"LINEAR",
					"output":85
				},
				{
					"input":16,
					"interpolation":"LINEAR",
					"output":86
				},
				{
					"input":16,
					"interpolation":"LINEAR",
					"output":87
				},
				{
					"input":16,
					"interpolation":"LINEAR",
					"output":88
				},
				{
					"input":16,
					"interpolation":"LINEAR",
					"output":89
				},
				{
					"input":16,
					"interpolation":"LINEAR",
					"output":90
				},
				{
					"input":16,
					"interpolation":"LINEAR",
					"output":91
				},
				{
					"input":16,
					"interpolation":"LINEAR",
					"output":92
				},
				{
					"input":16,
					"interpolation":"LINEAR",
					"output":93
				},
				{
					"input":16,
					"interpolation":"LINEAR",
					"output":94
				},
				{
					"input":16,
					"interpolation":"LINEAR",
					"output":95
				},
				{
					"input":16,
					"interpolation":"LINEAR",
					"output":96
				},
				{
					"input":16,
					"interpolation":"LINEAR",
					"output":97
				},
				{
					"input":16,
					"interpolation":"LINEAR",
					"output":98
				},
				{
					"input":16,
					"interpolation":"LINEAR",
					"output":99
				},
				{
					"input":16,
					"interpolation":"LINEAR",
					"output":100
				},
				{
					"input":16,
					"interpolation":"LINEAR",
					"output":101
				},
				{
					"input":16,
					"interpolation":"LINEAR",
					"output":102
				},
				{
					"input":16,
					"interpolation":"LINEAR",
					"output":103
				},
				{
					"input":16,
					"interpolation":"LINEAR",
					"output":104
				},
				{
					"input":16,
					"interpolation":"LINEAR",
					"output":105
				},
				{
					"input":16,
					"interpolation":"LINEAR",
					"output":106
				},
				{
					"input":16,
					"interpolation":"LINEAR",
					"output":107
				},
				{
					"input":16,
					"interpolation":"LINEAR",
					"output":108
				},
				{
					"input":16,
					"interpolation":"LINEAR",
					"output":109
				},
				{
					"input":16,
					"interpolation":"LINEAR",
					"output":110
				},
				{
					"input":16,
					"interpolation":"LINEAR",
					"output":111
				},
				{
					"input":16,
					"interpolation":"LINEAR",
					"output":112
				},
				{
					"input":16,
					"interpolation":"LINEAR",
					"output":113
				},
				{
					"input":16,
					"interpolation":"LINEAR",
					"output":114
				},
				{
					"input":16,
					"interpolation":"LINEAR",
					"output":115
				},
				{
					"input":16,
					"interpolation":"LINEAR",
					"output":116
				},
				{
					"input":16,
					"interpolation":"LINEAR",
					"output":117
				},
				{
					"input":16,
					"interpolation":"LINEAR",
					"output":118
				},
				{
					"input":16,
					"interpolation":"LINEAR",
					"output":119
				},
				{
					"input":16,
					"interpolation":"LINEAR",
					"output":120
				},
				{
					"input":16,
					"interpolation":"LINEAR",
					"output":121
				},
				{
					"input":16,
					"interpolation":"LINEAR",
					"output":122
				},
				{
					"input":16,
					"interpolation":"LINEAR",
					"output":123
				},
				{
					"input":16,
					"interpolation":"LINEAR",
					"output":124
				},
				{
					"input":16,
					"interpolation":"LINEAR",
					"output":125
				},
				{
					"input":16,
					"interpolation":"LINEAR",
					"output":126
				},
				{
					"input":16,
					"interpolation":"LINEAR",
					"output":127
				},
				{
					"input":16,
					"interpolation":"LINEAR",
					"output":128
				},
				{
					"input":16,
					"interpolation":"LINEAR",
					"output":129
				},
				{
					"input":16,
					"interpolation":"LINEAR",
					"output":130
				},
				{
					"input":16,
					"interpolation":"LINEAR",
					"output":131
				},
				{
					"input":16,
					"interpolation":"LINEAR",
					"output":132
				},
				{
					"input":16,
					"interpolation":"LINEAR",
					"output":133
				},
				{
					"input":16,
					"interpolation":"LINEAR",
					"output":134
				},
				{
					"input":16,
					"interpolation":"LINEAR",
					"output":135
				},
				{
					"input":16,
					"interpolation":"LINEAR",
					"output":136
				},
				{
					"input":16,
					"interpolation":"LINEAR",
					"output":137
				},
				{
					"input":16,
					"interpolation":"LINEAR",
					"output":138
				}
			]
		}
	],
	"materials":[
		{
			"alphaMode":"BLEND",
			"doubleSided":true,
			"extensions":{
				"KHR_materials_specular":{
					"specularColorTexture":{
						"index":0
					}
				},
				"KHR_materials_ior":{
					"ior":1000
				}
			},
			"name":"M_TulipFlower",
			"pbrMetallicRoughness":{
				"baseColorTexture":{
					"index":1
				},
				"metallicFactor":0,
				"metallicRoughnessTexture":{
					"index":2
				}
			}
		},
		{
			"alphaMode":"BLEND",
			"doubleSided":true,
			"extensions":{
				"KHR_materials_specular":{
					"specularColorFactor":[
						0.0,
						0.0,
						0.0
					]
				},
				"KHR_materials_ior":{
					"ior":1000
				}
			},
			"name":"M_Ground",
			"normalTexture":{
				"index":3
			},
			"pbrMetallicRoughness":{
				"baseColorTexture":{
					"index":4
				},
				"metallicFactor":0
			}
		}
	],
	"meshes":[
		{
			"name":"Tulip_M_TulipFlower_0",
			"primitives":[
				{
					"attributes":{
						"POSITION":0,
						"NORMAL":1,
						"TEXCOORD_0":2,
						"JOINTS_0":3,
						"WEIGHTS_0":4
					},
					"indices":5,
					"material":0
				}
			]
		},
		{
			"name":"Ground_Plane_M_Ground_0",
			"primitives":[
				{
					"attributes":{
						"POSITION":7,
						"NORMAL":8,
						"TEXCOORD_0":9,
						"TEXCOORD_1":10
					},
					"indices":11,
					"material":1
				}
			]
		}
	],
	"textures":[
		{
			"sampler":0,
			"source":0
		},
		{
			"sampler":0,
			"source":1
		},
		{
			"sampler":0,
			"source":2
		},
		{
			"sampler":0,
			"source":3
		},
		{
			"sampler":0,
			"source":4
		}
	],
	"images":[
		{
			"mimeType":"image/png",
			"name":"Image_1",
			"uri":"texture/Image_1.png"
		},
		{
			"mimeType":"image/png",
			"name":"Image_0",
			"uri":"texture/Image_0.png"
		},
		{
			"mimeType":"image/png",
			"name":"Image_1",
			"uri":"texture/Image_1-1.png"
		},
		{
			"mimeType":"image/png",
			"name":"Image_3",
			"uri":"texture/Image_3.png"
		},
		{
			"mimeType":"image/png",
			"name":"Image_2",
			"uri":"texture/Image_2.png"
		}
	],
	"skins":[
		{
			"inverseBindMatrices":6,
			"joints":[
				42,
				41,
				4,
				3,
				2,
				1,
				40,
				8,
				7,
				6,
				5,
				39,
				38,
				37,
				12,
				11,
				10,
				9,
				36,
				35,
				34,
				33,
				32,
				31,
				15,
				14,
				13,
				18,
				17,
				16,
				21,
				20,
				19,
				24,
				23,
				22,
				27,
				26,
				25,
				30,
				29,
				28
			],
			"name":"Object_5"
		}
	],
	"accessors":[
		{
			"bufferView":0,
			"componentType":5126,
			"count":1403,
			"max":[
				0.3697626292705536,
				0.37938714027404785,
				0.09703019261360168
			],
			"min":[
				-0.5112848877906799,
				-0.1945565640926361,
				-1.6568070650100708
			],
			"type":"VEC3"
		},
		{
			"bufferView":1,
			"componentType":5126,
			"count":1403,
			"type":"VEC3"
		},
		{
			"bufferView":2,
			"componentType":5126,
			"count":1403,
			"type":"VEC2"
		},
		{
			"bufferView":3,
			"componentType":5121,
			"count":1403,
			"type":"VEC4"
		},
		{
			"bufferView":4,
			"componentType":5126,
			"count":1403,
			"type":"VEC4"
		},
		{
			"bufferView":5,
			"componentType":5123,
			"count":4572,
			"type":"SCALAR"
		},
		{
			"bufferView":6,
			"componentType":5126,
			"count":42,
			"type":"MAT4"
		},
		{
			"bufferView":7,
			"componentType":5126,
			"count":4,
			"max":[
				0.8166559338569641,
				0.8166559338569641,
				0
			],
			"min":[
				-0.8166559338569641,
				-0.8166559338569641,
				0
			],
			"type":"VEC3"
		},
		{
			"bufferView":8,
			"componentType":5126,
			"count":4,
			"type":"VEC3"
		},
		{
			"bufferView":9,
			"componentType":5126,
			"count":4,
			"type":"VEC2"
		},
		{
			"bufferView":10,
			"componentType":5126,
			"count":4,
			"type":"VEC2"
		},
		{
			"bufferView":11,
			"componentType":5123,
			"count":6,
			"type":"SCALAR"
		},
		{
			"bufferView":12,
			"componentType":5126,
			"count":2,
			"max":[
				11.25
			],
			"min":[
				0
			],
			"type":"SCALAR"
		},
		{
			"bufferView":13,
			"componentType":5126,
			"count":2,
			"type":"VEC3"
		},
		{
			"bufferView":14,
			"componentType":5126,
			"count":2,
			"type":"VEC4"
		},
		{
			"bufferView":15,
			"componentType":5126,
			"count":2,
			"type":"VEC3"
		},
		{
			"bufferView":16,
			"componentType":5126,
			"count":271,
			"max":[
				11.25
			],
			"min":[
				0
			],
			"type":"SCALAR"
		},
		{
			"bufferView":17,
			"componentType":5126,
			"count":271,
			"type":"VEC4"
		},
		{
			"bufferView":18,
			"componentType":5126,
			"count":271,
			"type":"VEC3"
		},
		{
			"bufferView":19,
			"componentType":5126,
			"count":271,
			"type":"VEC3"
		},
		{
			"bufferView":20,
			"componentType":5126,
			"count":271,
			"type":"VEC4"
		},
		{
			"bufferView":21,
			"componentType":5126,
			"count":271,
			"type":"VEC3"
		},
		{
			"bufferView":22,
			"componentType":5126,
			"count":271,
			"type":"VEC3"
		},
		{
			"bufferView":23,
			"componentType":5126,
			"count":271,
			"type":"VEC4"
		},
		{
			"bufferView":24,
			"componentType":5126,
			"count":271,
			"type":"VEC3"
		},
		{
			"bufferView":25,
			"componentType":5126,
			"count":271,
			"type":"VEC3"
		},
		{
			"bufferView":26,
			"componentType":5126,
			"count":271,
			"type":"VEC4"
		},
		{
			"bufferView":27,
			"componentType":5126,
			"count":271,
			"type":"VEC3"
		},
		{
			"bufferView":28,
			"componentType":5126,
			"count":271,
			"type":"VEC3"
		},
		{
			"bufferView":29,
			"componentType":5126,
			"count":271,
			"type":"VEC4"
		},
		{
			"bufferView":30,
			"componentType":5126,
			"count":271,
			"type":"VEC3"
		},
		{
			"bufferView":31,
			"componentType":5126,
			"count":271,
			"type":"VEC3"
		},
		{
			"bufferView":32,
			"componentType":5126,
			"count":271,
			"type":"VEC4"
		},
		{
			"bufferView":33,
			"componentType":5126,
			"count":271,
			"type":"VEC3"
		},
		{
			"bufferView":34,
			"componentType":5126,
			"count":271,
			"type":"VEC3"
		},
		{
			"bufferView":35,
			"componentType":5126,
			"count":271,
			"type":"VEC4"
		},
		{
			"bufferView":36,
			"componentType":5126,
			"count":271,
			"type":"VEC3"
		},
		{
			"bufferView":37,
			"componentType":5126,
			"count":271,
			"type":"VEC3"
		},
		{
			"bufferView":38,
			"componentType":5126,
			"count":271,
			"type":"VEC4"
		},
		{
			"bufferView":39,
			"componentType":5126,
			"count":271,
			"type":"VEC3"
		},
		{
			"bufferView":40,
			"componentType":5126,
			"count":271,
			"type":"VEC3"
		},
		{
			"bufferView":41,
			"componentType":5126,
			"count":271,
			"type":"VEC4"
		},
		{
			"bufferView":42,
			"componentType":5126,
			"count":271,
			"type":"VEC3"
		},
		{
			"bufferView":43,
			"componentType":5126,
			"count":271,
			"type":"VEC3"
		},
		{
			"bufferView":44,
			"componentType":5126,
			"count":271,
			"type":"VEC4"
		},
		{
			"bufferView":45,
			"componentType":5126,
			"count":271,
			"type":"VEC3"
		},
		{
			"bufferView":46,
			"componentType":5126,
			"count":271,
			"type":"VEC3"
		},
		{
			"bufferView":47,
			"componentType":5126,
			"count":271,
			"type":"VEC4"
		},
		{
			"bufferView":48,
			"componentType":5126,
			"count":271,
			"type":"VEC3"
		},
		{
			"bufferView":49,
			"componentType":5126,
			"count":271,
			"type":"VEC3"
		},
		{
			"bufferView":50,
			"componentType":5126,
			"count":271,
			"type":"VEC4"
		},
		{
			"bufferView":51,
			"componentType":5126,
			"count":271,
			"type":"VEC3"
		},
		{
			"bufferView":52,
			"componentType":5126,
			"count":271,
			"type":"VEC3"
		},
		{
			"bufferView":53,
			"componentType":5126,
			"count":271,
			"type":"VEC4"
		},
		{
			"bufferView":54,
			"componentType":5126,
			"count":271,
			"type":"VEC3"
		},
		{
			"bufferView":55,
			"componentType":5126,
			"count":271,
			"type":"VEC3"
		},
		{
			"bufferView":56,
			"componentType":5126,
			"count":271,
			"type":"VEC4"
		},
		{
			"bufferView":57,
			"componentType":5126,
			"count":271,
			"type":"VEC3"
		},
		{
			"bufferView":58,
			"componentType":5126,
			"count":271,
			"type":"VEC3"
		},
		{
			"bufferView":59,
			"componentType":5126,
			"count":271,
			"type":"VEC4"
		},
		{
			"bufferView":60,
			"componentType":5126,
			"count":271,
			"type":"VEC3"
		},
		{
			"bufferView":61,
			"componentType":5126,
			"count":271,
			"type":"VEC3"
		},
		{
			"bufferView":62,
			"componentType":5126,
			"count":271,
			"type":"VEC4"
		},
		{
			"bufferView":63,
			"componentType":5126,
			"count":271,
			"type":"VEC3"
		},
		{
			"bufferView":64,
			"componentType":5126,
			"count":271,
			"type":"VEC3"
		},
		{
			"bufferView":65,
			"componentType":5126,
			"count":271,
			"type":"VEC4"
		},
		{
			"bufferView":66,
			"componentType":5126,
			"count":271,
			"type":"VEC3"
		},
		{
			"bufferView":67,
			"componentType":5126,
			"count":271,
			"type":"VEC3"
		},
		{
			"bufferView":68,
			"componentType":5126,
			"count":271,
			"type":"VEC4"
		},
		{
			"bufferView":69,
			"componentType":5126,
			"count":271,
			"type":"VEC3"
		},
		{
			"bufferView":70,
			"componentType":5126,
			"count":271,
			"type":"VEC3"
		},
		{
			"bufferView":71,
			"componentType":5126,
			"count":271,
			"type":"VEC4"
		},
		{
			"bufferView":72,
			"componentType":5126,
			"count":271,
			"type":"VEC3"
		},
		{
			"bufferView":73,
			"componentType":5126,
			"count":271,
			"type":"VEC3"
		},
		{
			"bufferView":74,
			"componentType":5126,
			"count":271,
			"type":"VEC4"
		},
		{
			"bufferView":75,
			"componentType":5126,
			"count":271,
			"type":"VEC3"
		},
		{
			"bufferView":76,
			"componentType":5126,
			"count":271,
			"type":"VEC3"
		},
		{
			"bufferView":77,
			"componentType":5126,
			"count":271,
			"type":"VEC4"
		},
		{
			"bufferView":78,
			"componentType":5126,
			"count":271,
			"type":"VEC3"
		},
		{
			"bufferView":79,
			"componentType":5126,
			"count":271,
			"type":"VEC3"
		},
		{
			"bufferView":80,
			"componentType":5126,
			"count":271,
			"type":"VEC4"
		},
		{
			"bufferView":81,
			"componentType":5126,
			"count":271,
			"type":"VEC3"
		},
		{
			"bufferView":82,
			"componentType":5126,
			"count":271,
			"type":"VEC3"
		},
		{
			"bufferView":83,
			"componentType":5126,
			"count":271,
			"type":"VEC4"
		},
		{
			"bufferView":84,
			"componentType":5126,
			"count":271,
			"type":"VEC3"
		},
		{
			"bufferView":85,
			"componentType":5126,
			"count":271,
			"type":"VEC3"
		},
		{
			"bufferView":86,
			"componentType":5126,
			"count":271,
			"type":"VEC4"
		},
		{
			"bufferView":87,
			"componentType":5126,
			"count":271,
			"type":"VEC3"
		},
		{
			"bufferView":88,
			"componentType":5126,
			"count":271,
			"type":"VEC3"
		},
		{
			"bufferView":89,
			"componentType":5126,
			"count":271,
			"type":"VEC4"
		},
		{
			"bufferView":90,
			"componentType":5126,
			"count":271,
			"type":"VEC3"
		},
		{
			"bufferView":91,
			"componentType":5126,
			"count":271,
			"type":"VEC3"
		},
		{
			"bufferView":92,
			"componentType":5126,
			"count":271,
			"type":"VEC4"
		},
		{
			"bufferView":93,
			"componentType":5126,
			"count":271,
			"type":"VEC3"
		},
		{
			"bufferView":94,
			"componentType":5126,
			"count":271,
			"type":"VEC3"
		},
		{
			"bufferView":95,
			"componentType":5126,
			"count":271,
			"type":"VEC4"
		},
		{
			"bufferView":96,
			"componentType":5126,
			"count":271,
			"type":"VEC3"
		},
		{
			"bufferView":97,
			"componentType":5126,
			"count":271,
			"type":"VEC3"
		},
		{
			"bufferView":98,
			"componentType":5126,
			"count":271,
			"type":"VEC4"
		},
		{
			"bufferView":99,
			"componentType":5126,
			"count":271,
			"type":"VEC3"
		},
		{
			"bufferView":100,
			"componentType":5126,
			"count":271,
			"type":"VEC3"
		},
		{
			"bufferView":101,
			"componentType":5126,
			"count":271,
			"type":"VEC4"
		},
		{
			"bufferView":102,
			"componentType":5126,
			"count":271,
			"type":"VEC3"
		},
		{
			"bufferView":103,
			"componentType":5126,
			"count":271,
			"type":"VEC3"
		},
		{
			"bufferView":104,
			"componentType":5126,
			"count":271,
			"type":"VEC4"
		},
		{
			"bufferView":105,
			"componentType":5126,
			"count":271,
			"type":"VEC3"
		},
		{
			"bufferView":106,
			"componentType":5126,
			"count":271,
			"type":"VEC3"
		},
		{
			"bufferView":107,
			"componentType":5126,
			"count":271,
			"type":"VEC4"
		},
		{
			"bufferView":108,
			"componentType":5126,
			"count":271,
			"type":"VEC3"
		},
		{
			"bufferView":109,
			"componentType":5126,
			"count":271,
			"type":"VEC3"
		},
		{
			"bufferView":110,
			"componentType":5126,
			"count":271,
			"type":"VEC4"
		},
		{
			"bufferView":111,
			"componentType":5126,
			"count":271,
			"type":"VEC3"
		},
		{
			"bufferView":112,
			"componentType":5126,
			"count":271,
			"type":"VEC3"
		},
		{
			"bufferView":113,
			"componentType":5126,
			"count":271,
			"type":"VEC4"
		},
		{
			"bufferView":114,
			"componentType":5126,
			"count":271,
			"type":"VEC3"
		},
		{
			"bufferView":115,
			"componentType":5126,
			"count":271,
			"type":"VEC3"
		},
		{
			"bufferView":116,
			"componentType":5126,
			"count":271,
			"type":"VEC4"
		},
		{
			"bufferView":117,
			"componentType":5126,
			"count":271,
			"type":"VEC3"
		},
		{
			"bufferView":118,
			"componentType":5126,
			"count":271,
			"type":"VEC3"
		},
		{
			"bufferView":119,
			"componentType":5126,
			"count":271,
			"type":"VEC4"
		},
		{
			"bufferView":120,
			"componentType":5126,
			"count":271,
			"type":"VEC3"
		},
		{
			"bufferView":121,
			"componentType":5126,
			"count":271,
			"type":"VEC3"
		},
		{
			"bufferView":122,
			"componentType":5126,
			"count":271,
			"type":"VEC4"
		},
		{
			"bufferView":123,
			"componentType":5126,
			"count":271,
			"type":"VEC3"
		},
		{
			"bufferView":124,
			"componentType":5126,
			"count":271,
			"type":"VEC3"
		},
		{
			"bufferView":125,
			"componentType":5126,
			"count":271,
			"type":"VEC4"
		},
		{
			"bufferView":126,
			"componentType":5126,
			"count":271,
			"type":"VEC3"
		},
		{
			"bufferView":127,
			"componentType":5126,
			"count":271,
			"type":"VEC3"
		},
		{
			"bufferView":128,
			"componentType":5126,
			"count":271,
			"type":"VEC4"
		},
		{
			"bufferView":129,
			"componentType":5126,
			"count":271,
			"type":"VEC3"
		},
		{
			"bufferView":130,
			"componentType":5126,
			"count":271,
			"type":"VEC3"
		},
		{
			"bufferView":131,
			"componentType":5126,
			"count":271,
			"type":"VEC4"
		},
		{
			"bufferView":132,
			"componentType":5126,
			"count":271,
			"type":"VEC3"
		},
		{
			"bufferView":133,
			"componentType":5126,
			"count":271,
			"type":"VEC3"
		},
		{
			"bufferView":134,
			"componentType":5126,
			"count":271,
			"type":"VEC4"
		},
		{
			"bufferView":135,
			"componentType":5126,
			"count":271,
			"type":"VEC3"
		},
		{
			"bufferView":136,
			"componentType":5126,
			"count":271,
			"type":"VEC3"
		},
		{
			"bufferView":137,
			"componentType":5126,
			"count":271,
			"type":"VEC4"
		},
		{
			"bufferView":138,
			"componentType":5126,
			"count":271,
			"type":"VEC3"
		}
	],
	"bufferViews":[
		{
			"buffer":0,
			"byteLength":16836,
			"byteOffset":0,
			"target":34962
		},
		{
			"buffer":0,
			"byteLength":16836,
			"byteOffset":16836,
			"target":34962
		},
		{
			"buffer":0,
			"byteLength":11224,
			"byteOffset":33672,
			"target":34962
		},
		{
			"buffer":0,
			"byteLength":5612,
			"byteOffset":44896,
			"target":34962
		},
		{
			"buffer":0,
			"byteLength":22448,
			"byteOffset":50508,
			"target":34962
		},
		{
			"buffer":0,
			"byteLength":9144,
			"byteOffset":72956,
			"target":34963
		},
		{
			"buffer":0,
			"byteLength":2688,
			"byteOffset":82100
		},
		{
			"buffer":0,
			"byteLength":48,
			"byteOffset":84788,
			"target":34962
		},
		{
			"buffer":0,
			"byteLength":48,
			"byteOffset":84836,
			"target":34962
		},
		{
			"buffer":0,
			"byteLength":32,
			"byteOffset":84884,
			"target":34962
		},
		{
			"buffer":0,
			"byteLength":32,
			"byteOffset":84916,
			"target":34962
		},
		{
			"buffer":0,
			"byteLength":12,
			"byteOffset":84948,
			"target":34963
		},
		{
			"buffer":0,
			"byteLength":8,
			"byteOffset":84960
		},
		{
			"buffer":0,
			"byteLength":24,
			"byteOffset":84968
		},
		{
			"buffer":0,
			"byteLength":32,
			"byteOffset":84992
		},
		{
			"buffer":0,
			"byteLength":24,
			"byteOffset":85024
		},
		{
			"buffer":0,
			"byteLength":1084,
			"byteOffset":85048
		},
		{
			"buffer":0,
			"byteLength":4336,
			"byteOffset":86132
		},
		{
			"buffer":0,
			"byteLength":3252,
			"byteOffset":90468
		},
		{
			"buffer":0,
			"byteLength":3252,
			"byteOffset":93720
		},
		{
			"buffer":0,
			"byteLength":4336,
			"byteOffset":96972
		},
		{
			"buffer":0,
			"byteLength":3252,
			"byteOffset":101308
		},
		{
			"buffer":0,
			"byteLength":3252,
			"byteOffset":104560
		},
		{
			"buffer":0,
			"byteLength":4336,
			"byteOffset":107812
		},
		{
			"buffer":0,
			"byteLength":3252,
			"byteOffset":112148
		},
		{
			"buffer":0,
			"byteLength":3252,
			"byteOffset":115400
		},
		{
			"buffer":0,
			"byteLength":4336,
			"byteOffset":118652
		},
		{
			"buffer":0,
			"byteLength":3252,
			"byteOffset":122988
		},
		{
			"buffer":0,
			"byteLength":3252,
			"byteOffset":126240
		},
		{
			"buffer":0,
			"byteLength":4336,
			"byteOffset":129492
		},
		{
			"buffer":0,
			"byteLength":3252,
			"byteOffset":133828
		},
		{
			"buffer":0,
			"byteLength":3252,
			"byteOffset":137080
		},
		{
			"buffer":0,
			"byteLength":4336,
			"byteOffset":140332
		},
		{
			"buffer":0,
			"byteLength":3252,
			"byteOffset":144668
		},
		{
			"buffer":0,
			"byteLength":3252,
			"byteOffset":147920
		},
		{
			"buffer":0,
			"byteLength":4336,
			"byteOffset":151172
		},
		{
			"buffer":0,
			"byteLength":3252,
			"byteOffset":155508
		},
		{
			"buffer":0,
			"byteLength":3252,
			"byteOffset":158760
		},
		{
			"buffer":0,
			"byteLength":4336,
			"byteOffset":162012
		},
		{
			"buffer":0,
			"byteLength":3252,
			"byteOffset":166348
		},
		{
			"buffer":0,
			"byteLength":3252,
			"byteOffset":169600
		},
		{
			"buffer":0,
			"byteLength":4336,
			"byteOffset":172852
		},
		{
			"buffer":0,
			"byteLength":3252,
			"byteOffset":177188
		},
		{
			"buffer":0,
			"byteLength":3252,
			"byteOffset":180440
		},
		{
			"buffer":0,
			"byteLength":4336,
			"byteOffset":183692
		},
		{
			"buffer":0,
			"byteLength":3252,
			"byteOffset":188028
		},
		{
			"buffer":0,
			"byteLength":3252,
			"byteOffset":191280
		},
		{
			"buffer":0,
			"byteLength":4336,
			"byteOffset":194532
		},
		{
			"buffer":0,
			"byteLength":3252,
			"byteOffset":198868
		},
		{
			"buffer":0,
			"byteLength":3252,
			"byteOffset":202120
		},
		{
			"buffer":0,
			"byteLength":4336,
			"byteOffset":205372
		},
		{
			"buffer":0,
			"byteLength":3252,
			"byteOffset":209708
		},
		{
			"buffer":0,
			"byteLength":3252,
			"byteOffset":212960
		},
		{
			"buffer":0,
			"byteLength":4336,
			"byteOffset":216212
		},
		{
			"buffer":0,
			"byteLength":3252,
			"byteOffset":220548
		},
		{
			"buffer":0,
			"byteLength":3252,
			"byteOffset":223800
		},
		{
			"buffer":0,
			"byteLength":4336,
			"byteOffset":227052
		},
		{
			"buffer":0,
			"byteLength":3252,
			"byteOffset":231388
		},
		{
			"buffer":0,
			"byteLength":3252,
			"byteOffset":234640
		},
		{
			"buffer":0,
			"byteLength":4336,
			"byteOffset":237892
		},
		{
			"buffer":0,
			"byteLength":3252,
			"byteOffset":242228
		},
		{
			"buffer":0,
			"byteLength":3252,
			"byteOffset":245480
		},
		{
			"buffer":0,
			"byteLength":4336,
			"byteOffset":248732
		},
		{
			"buffer":0,
			"byteLength":3252,
			"byteOffset":253068
		},
		{
			"buffer":0,
			"byteLength":3252,
			"byteOffset":256320
		},
		{
			"buffer":0,
			"byteLength":4336,
			"byteOffset":259572
		},
		{
			"buffer":0,
			"byteLength":3252,
			"byteOffset":263908
		},
		{
			"buffer":0,
			"byteLength":3252,
			"byteOffset":267160
		},
		{
			"buffer":0,
			"byteLength":4336,
			"byteOffset":270412
		},
		{
			"buffer":0,
			"byteLength":3252,
			"byteOffset":274748
		},
		{
			"buffer":0,
			"byteLength":3252,
			"byteOffset":278000
		},
		{
			"buffer":0,
			"byteLength":4336,
			"byteOffset":281252
		},
		{
			"buffer":0,
			"byteLength":3252,
			"byteOffset":285588
		},
		{
			"buffer":0,
			"byteLength":3252,
			"byteOffset":288840
		},
		{
			"buffer":0,
			"byteLength":4336,
			"byteOffset":292092
		},
		{
			"buffer":0,
			"byteLength":3252,
			"byteOffset":296428
		},
		{
			"buffer":0,
			"byteLength":3252,
			"byteOffset":299680
		},
		{
			"buffer":0,
			"byteLength":4336,
			"byteOffset":302932
		},
		{
			"buffer":0,
			"byteLength":3252,
			"byteOffset":307268
		},
		{
			"buffer":0,
			"byteLength":3252,
			"byteOffset":310520
		},
		{
			"buffer":0,
			"byteLength":4336,
			"byteOffset":313772
		},
		{
			"buffer":0,
			"byteLength":3252,
			"byteOffset":318108
		},
		{
			"buffer":0,
			"byteLength":3252,
			"byteOffset":321360
		},
		{
			"buffer":0,
			"byteLength":4336,
			"byteOffset":324612
		},
		{
			"buffer":0,
			"byteLength":3252,
			"byteOffset":328948
		},
		{
			"buffer":0,
			"byteLength":3252,
			"byteOffset":332200
		},
		{
			"buffer":0,
			"byteLength":4336,
			"byteOffset":335452
		},
		{
			"buffer":0,
			"byteLength":3252,
			"byteOffset":339788
		},
		{
			"buffer":0,
			"byteLength":3252,
			"byteOffset":343040
		},
		{
			"buffer":0,
			"byteLength":4336,
			"byteOffset":346292
		},
		{
			"buffer":0,
			"byteLength":3252,
			"byteOffset":350628
		},
		{
			"buffer":0,
			"byteLength":3252,
			"byteOffset":353880
		},
		{
			"buffer":0,
			"byteLength":4336,
			"byteOffset":357132
		},
		{
			"buffer":0,
			"byteLength":3252,
			"byteOffset":361468
		},
		{
			"buffer":0,
			"byteLength":3252,
			"byteOffset":364720
		},
		{
			"buffer":0,
			"byteLength":4336,
			"byteOffset":367972
		},
		{
			"buffer":0,
			"byteLength":3252,
			"byteOffset":372308
		},
		{
			"buffer":0,
			"byteLength":3252,
			"byteOffset":375560
		},
		{
			"buffer":0,
			"byteLength":4336,
			"byteOffset":378812
		},
		{
			"buffer":0,
			"byteLength":3252,
			"byteOffset":383148
		},
		{
			"buffer":0,
			"byteLength":3252,
			"byteOffset":386400
		},
		{
			"buffer":0,
			"byteLength":4336,
			"byteOffset":389652
		},
		{
			"buffer":0,
			"byteLength":3252,
			"byteOffset":393988
		},
		{
			"buffer":0,
			"byteLength":3252,
			"byteOffset":397240
		},
		{
			"buffer":0,
			"byteLength":4336,
			"byteOffset":400492
		},
		{
			"buffer":0,
			"byteLength":3252,
			"byteOffset":404828
		},
		{
			"buffer":0,
			"byteLength":3252,
			"byteOffset":408080
		},
		{
			"buffer":0,
			"byteLength":4336,
			"byteOffset":411332
		},
		{
			"buffer":0,
			"byteLength":3252,
			"byteOffset":415668
		},
		{
			"buffer":0,
			"byteLength":3252,
			"byteOffset":418920
		},
		{
			"buffer":0,
			"byteLength":4336,
			"byteOffset":422172
		},
		{
			"buffer":0,
			"byteLength":3252,
			"byteOffset":426508
		},
		{
			"buffer":0,
			"byteLength":3252,
			"byteOffset":429760
		},
		{
			"buffer":0,
			"byteLength":4336,
			"byteOffset":433012
		},
		{
			"buffer":0,
			"byteLength":3252,
			"byteOffset":437348
		},
		{
			"buffer":0,
			"byteLength":3252,
			"byteOffset":440600
		},
		{
			"buffer":0,
			"byteLength":4336,
			"byteOffset":443852
		},
		{
			"buffer":0,
			"byteLength":3252,
			"byteOffset":448188
		},
		{
			"buffer":0,
			"byteLength":3252,
			"byteOffset":451440
		},
		{
			"buffer":0,
			"byteLength":4336,
			"byteOffset":454692
		},
		{
			"buffer":0,
			"byteLength":3252,
			"byteOffset":459028
		},
		{
			"buffer":0,
			"byteLength":3252,
			"byteOffset":462280
		},
		{
			"buffer":0,
			"byteLength":4336,
			"byteOffset":465532
		},
		{
			"buffer":0,
			"byteLength":3252,
			"byteOffset":469868
		},
		{
			"buffer":0,
			"byteLength":3252,
			"byteOffset":473120
		},
		{
			"buffer":0,
			"byteLength":4336,
			"byteOffset":476372
		},
		{
			"buffer":0,
			"byteLength":3252,
			"byteOffset":480708
		},
		{
			"buffer":0,
			"byteLength":3252,
			"byteOffset":483960
		},
		{
			"buffer":0,
			"byteLength":4336,
			"byteOffset":487212
		},
		{
			"buffer":0,
			"byteLength":3252,
			"byteOffset":491548
		},
		{
			"buffer":0,
			"byteLength":3252,
			"byteOffset":494800
		},
		{
			"buffer":0,
			"byteLength":4336,
			"byteOffset":498052
		},
		{
			"buffer":0,
			"byteLength":3252,
			"byteOffset":502388
		},
		{
			"buffer":0,
			"byteLength":3252,
			"byteOffset":505640
		},
		{
			"buffer":0,
			"byteLength":4336,
			"byteOffset":508892
		},
		{
			"buffer":0,
			"byteLength":3252,
			"byteOffset":513228
		},
		{
			"buffer":0,
			"byteLength":3252,
			"byteOffset":516480
		},
		{
			"buffer":0,
			"byteLength":4336,
			"byteOffset":519732
		},
		{
			"buffer":0,
			"byteLength":3252,
			"byteOffset":524068
		}
	],
	"samplers":[
		{
			"magFilter":9729,
			"minFilter":9987
		}
	],
	"buffers":[
		{
			"byteLength":527320,
			"uri":"tulip_model.bin"
		}
	]
}
