{
	"asset":{
		"generator":"Khronos glTF Blender I/O v5.2.39",
		"version":"2.0"
	},
	"extensionsUsed":[
		"KHR_materials_transmission",
		"KHR_materials_specular"
	],
	"scene":0,
	"scenes":[
		{
			"name":"Scene",
			"nodes":[
				9
			]
		}
	],
	"nodes":[
		{
			"name":"Pot_1",
			"translation":[
				0,
				0.10979065299034119,
				0
			]
		},
		{
			"mesh":0,
			"name":"mesh_0"
		},
		{
			"mesh":1,
			"name":"mesh_0.001"
		},
		{
			"mesh":2,
			"name":"mesh_0.002"
		},
		{
			"mesh":3,
			"name":"mesh_0.003"
		},
		{
			"mesh":4,
			"name":"mesh_0.004"
		},
		{
			"children":[
				1,
				2,
				3,
				4,
				5
			],
			"name":"Sunflower.gn_0"
		},
		{
			"children":[
				0,
				6
			],
			"name":"GLTF_SceneRootNode",
			"rotation":[
				0.70710688829422,
				0,
				0,
				0.7071066498756409
			]
		},
		{
			"children":[
				7
			],
			"name":"root"
		},
		{
			"children":[
				8
			],
			"name":"Sketchfab_model",
			"rotation":[
				-0.70710688829422,
				0,
				0,
				0.7071066498756409
			]
		}
	],
	"animations":[
		{
			"channels":[
				{
					"sampler":0,
					"target":{
						"node":1,
						"path":"weights"
					}
				},
				{
					"sampler":1,
					"target":{
						"node":2,
						"path":"weights"
					}
				},
				{
					"sampler":2,
					"target":{
						"node":3,
						"path":"weights"
					}
				},
				{
					"sampler":3,
					"target":{
						"node":4,
						"path":"weights"
					}
				},
				{
					"sampler":4,
					"target":{
						"node":5,
						"path":"weights"
					}
				}
			],
			"name":"Grow.001",
			"samplers":[
				{
					"input":270,
					"interpolation":"LINEAR",
					"output":271
				},
				{
					"input":270,
					"interpolation":"LINEAR",
					"output":271
				},
				{
					"input":270,
					"interpolation":"LINEAR",
					"output":271
				},
				{
					"input":270,
					"interpolation":"LINEAR",
					"output":271
				},
				{
					"input":270,
					"interpolation":"LINEAR",
					"output":271
				}
			]
		}
	],
	"materials":[
		{
			"alphaMode":"BLEND",
			"doubleSided":true,
			"extensions":{
				"KHR_materials_transmission":{
					"transmissionFactor":0.10526300221681595
				},
				"KHR_materials_specular":{
					"specularTexture":{
						"index":0
					}
				}
			},
			"name":"leaf",
			"pbrMetallicRoughness":{
				"baseColorFactor":[
					1,
					1,
					1,
					0.8947370052337646
				],
				"baseColorTexture":{
					"index":1
				},
				"metallicFactor":0,
				"roughnessFactor":0.26641198992729187
			}
		},
		{
			"doubleSided":true,
			"name":"stem",
			"pbrMetallicRoughness":{
				"baseColorFactor":[
					0.07350140064954758,
					0.800000011920929,
					0.09714750200510025,
					1
				],
				"metallicFactor":0,
				"roughnessFactor":0.5
			}
		},
		{
			"doubleSided":true,
			"name":"sepal",
			"pbrMetallicRoughness":{
				"baseColorFactor":[
					0.030879100784659386,
					0.8000230193138123,
					0.11351999640464783,
					1
				],
				"metallicFactor":0,
				"roughnessFactor":0.3506230115890503
			}
		},
		{
			"doubleSided":true,
			"name":"petal",
			"pbrMetallicRoughness":{
				"baseColorFactor":[
					0.9900000095367432,
					0.9200000166893005,
					0.27000001072883606,
					1
				],
				"metallicFactor":0,
				"roughnessFactor":0.4000000059604645
			}
		},
		{
			"doubleSided":true,
			"name":"seed",
			"pbrMetallicRoughness":{
				"baseColorFactor":[
					0.800000011920929,
					0.26923900842666626,
					0.028900399804115295,
					1
				],
				"metallicFactor":0,
				"roughnessFactor":0.5
			}
		}
	],
	"meshes":[
		{
			"extras":{
				"targetNames":[
					"target_0",
					"target_1",
					"target_2",
					"target_3",
					"target_4",
					"target_5",
					"target_6",
					"target_7",
					"target_8",
					"target_9",
					"target_10",
					"target_11",
					"target_12",
					"target_13",
					"target_14",
					"target_15",
					"target_16",
					"target_17",
					"target_18",
					"target_19",
					"target_20",
					"target_21",
					"target_22",
					"target_23",
					"target_24"
				]
			},
			"name":"mesh_0",
			"primitives":[
				{
					"attributes":{
						"POSITION":0,
						"NORMAL":1,
						"TEXCOORD_0":2
					},
					"indices":3,
					"material":0,
					"targets":[
						{
							"POSITION":4,
							"NORMAL":5
						},
						{
							"POSITION":6,
							"NORMAL":7
						},
						{
							"POSITION":8,
							"NORMAL":9
						},
						{
							"POSITION":10,
							"NORMAL":11
						},
						{
							"POSITION":12,
							"NORMAL":13
						},
						{
							"POSITION":14,
							"NORMAL":15
						},
						{
							"POSITION":16,
							"NORMAL":17
						},
						{
							"POSITION":18,
							"NORMAL":19
						},
						{
							"POSITION":20,
							"NORMAL":21
						},
						{
							"POSITION":22,
							"NORMAL":23
						},
						{
							"POSITION":24,
							"NORMAL":25
						},
						{
							"POSITION":26,
							"NORMAL":27
						},
						{
							"POSITION":28,
							"NORMAL":29
						},
						{
							"POSITION":30,
							"NORMAL":31
						},
						{
							"POSITION":32,
							"NORMAL":33
						},
						{
							"POSITION":34,
							"NORMAL":35
						},
						{
							"POSITION":36,
							"NORMAL":37
						},
						{
							"POSITION":38,
							"NORMAL":39
						},
						{
							"POSITION":40,
							"NORMAL":41
						},
						{
							"POSITION":42,
							"NORMAL":43
						},
						{
							"POSITION":44,
							"NORMAL":45
						},
						{
							"POSITION":46,
							"NORMAL":47
						},
						{
							"POSITION":48,
							"NORMAL":49
						},
						{
							"POSITION":50,
							"NORMAL":51
						},
						{
							"POSITION":52,
							"NORMAL":53
						}
					]
				}
			],
			"weights":[
				0,
				0,
				0,
				0,
				0,
				0,
				0,
				0,
				0,
				0,
				0,
				0,
				0,
				0,
				0,
				0,
				0,
				0,
				0,
				0,
				0,
				0,
				0,
				0,
				0
			]
		},
		{
			"extras":{
				"targetNames":[
					"target_0",
					"target_1",
					"target_2",
					"target_3",
					"target_4",
					"target_5",
					"target_6",
					"target_7",
					"target_8",
					"target_9",
					"target_10",
					"target_11",
					"target_12",
					"target_13",
					"target_14",
					"target_15",
					"target_16",
					"target_17",
					"target_18",
					"target_19",
					"target_20",
					"target_21",
					"target_22",
					"target_23",
					"target_24"
				]
			},
			"name":"mesh_0.001",
			"primitives":[
				{
					"attributes":{
						"POSITION":54,
						"NORMAL":55,
						"TEXCOORD_0":56
					},
					"indices":57,
					"material":1,
					"targets":[
						{
							"POSITION":58,
							"NORMAL":59
						},
						{
							"POSITION":60,
							"NORMAL":61
						},
						{
							"POSITION":62,
							"NORMAL":63
						},
						{
							"POSITION":64,
							"NORMAL":65
						},
						{
							"POSITION":66,
							"NORMAL":67
						},
						{
							"POSITION":68,
							"NORMAL":69
						},
						{
							"POSITION":70,
							"NORMAL":71
						},
						{
							"POSITION":72,
							"NORMAL":73
						},
						{
							"POSITION":74,
							"NORMAL":75
						},
						{
							"POSITION":76,
							"NORMAL":77
						},
						{
							"POSITION":78,
							"NORMAL":79
						},
						{
							"POSITION":80,
							"NORMAL":81
						},
						{
							"POSITION":82,
							"NORMAL":83
						},
						{
							"POSITION":84,
							"NORMAL":85
						},
						{
							"POSITION":86,
							"NORMAL":87
						},
						{
							"POSITION":88,
							"NORMAL":89
						},
						{
							"POSITION":90,
							"NORMAL":91
						},
						{
							"POSITION":92,
							"NORMAL":93
						},
						{
							"POSITION":94,
							"NORMAL":95
						},
						{
							"POSITION":96,
							"NORMAL":97
						},
						{
							"POSITION":98,
							"NORMAL":99
						},
						{
							"POSITION":100,
							"NORMAL":101
						},
						{
							"POSITION":102,
							"NORMAL":103
						},
						{
							"POSITION":104,
							"NORMAL":105
						},
						{
							"POSITION":106,
							"NORMAL":107
						}
					]
				}
			],
			"weights":[
				0,
				0,
				0,
				0,
				0,
				0,
				0,
				0,
				0,
				0,
				0,
				0,
				0,
				0,
				0,
				0,
				0,
				0,
				0,
				0,
				0,
				0,
				0,
				0,
				0
			]
		},
		{
			"extras":{
				"targetNames":[
					"target_0",
					"target_1",
					"target_2",
					"target_3",
					"target_4",
					"target_5",
					"target_6",
					"target_7",
					"target_8",
					"target_9",
					"target_10",
					"target_11",
					"target_12",
					"target_13",
					"target_14",
					"target_15",
					"target_16",
					"target_17",
					"target_18",
					"target_19",
					"target_20",
					"target_21",
					"target_22",
					"target_23",
					"target_24"
				]
			},
			"name":"mesh_0.002",
			"primitives":[
				{
					"attributes":{
						"POSITION":108,
						"NORMAL":109,
						"TEXCOORD_0":110
					},
					"indices":111,
					"material":2,
					"targets":[
						{
							"POSITION":112,
							"NORMAL":113
						},
						{
							"POSITION":114,
							"NORMAL":115
						},
						{
							"POSITION":116,
							"NORMAL":117
						},
						{
							"POSITION":118,
							"NORMAL":119
						},
						{
							"POSITION":120,
							"NORMAL":121
						},
						{
							"POSITION":122,
							"NORMAL":123
						},
						{
							"POSITION":124,
							"NORMAL":125
						},
						{
							"POSITION":126,
							"NORMAL":127
						},
						{
							"POSITION":128,
							"NORMAL":129
						},
						{
							"POSITION":130,
							"NORMAL":131
						},
						{
							"POSITION":132,
							"NORMAL":133
						},
						{
							"POSITION":134,
							"NORMAL":135
						},
						{
							"POSITION":136,
							"NORMAL":137
						},
						{
							"POSITION":138,
							"NORMAL":139
						},
						{
							"POSITION":140,
							"NORMAL":141
						},
						{
							"POSITION":142,
							"NORMAL":143
						},
						{
							"POSITION":144,
							"NORMAL":145
						},
						{
							"POSITION":146,
							"NORMAL":147
						},
						{
							"POSITION":148,
							"NORMAL":149
						},
						{
							"POSITION":150,
							"NORMAL":151
						},
						{
							"POSITION":152,
							"NORMAL":153
						},
						{
							"POSITION":154,
							"NORMAL":155
						},
						{
							"POSITION":156,
							"NORMAL":157
						},
						{
							"POSITION":158,
							"NORMAL":159
						},
						{
							"POSITION":160,
							"NORMAL":161
						}
					]
				}
			],
			"weights":[
				0,
				0,
				0,
				0,
				0,
				0,
				0,
				0,
				0,
				0,
				0,
				0,
				0,
				0,
				0,
				0,
				0,
				0,
				0,
				0,
				0,
				0,
				0,
				0,
				0
			]
		},
		{
			"extras":{
				"targetNames":[
					"target_0",
					"target_1",
					"target_2",
					"target_3",
					"target_4",
					"target_5",
					"target_6",
					"target_7",
					"target_8",
					"target_9",
					"target_10",
					"target_11",
					"target_12",
					"target_13",
					"target_14",
					"target_15",
					"target_16",
					"target_17",
					"target_18",
					"target_19",
					"target_20",
					"target_21",
					"target_22",
					"target_23",
					"target_24"
				]
			},
			"name":"mesh_0.003",
			"primitives":[
				{
					"attributes":{
						"POSITION":162,
						"NORMAL":163,
						"TEXCOORD_0":164
					},
					"indices":165,
					"material":3,
					"targets":[
						{
							"POSITION":166,
							"NORMAL":167
						},
						{
							"POSITION":168,
							"NORMAL":169
						},
						{
							"POSITION":170,
							"NORMAL":171
						},
						{
							"POSITION":172,
							"NORMAL":173
						},
						{
							"POSITION":174,
							"NORMAL":175
						},
						{
							"POSITION":176,
							"NORMAL":177
						},
						{
							"POSITION":178,
							"NORMAL":179
						},
						{
							"POSITION":180,
							"NORMAL":181
						},
						{
							"POSITION":182,
							"NORMAL":183
						},
						{
							"POSITION":184,
							"NORMAL":185
						},
						{
							"POSITION":186,
							"NORMAL":187
						},
						{
							"POSITION":188,
							"NORMAL":189
						},
						{
							"POSITION":190,
							"NORMAL":191
						},
						{
							"POSITION":192,
							"NORMAL":193
						},
						{
							"POSITION":194,
							"NORMAL":195
						},
						{
							"POSITION":196,
							"NORMAL":197
						},
						{
							"POSITION":198,
							"NORMAL":199
						},
						{
							"POSITION":200,
							"NORMAL":201
						},
						{
							"POSITION":202,
							"NORMAL":203
						},
						{
							"POSITION":204,
							"NORMAL":205
						},
						{
							"POSITION":206,
							"NORMAL":207
						},
						{
							"POSITION":208,
							"NORMAL":209
						},
						{
							"POSITION":210,
							"NORMAL":211
						},
						{
							"POSITION":212,
							"NORMAL":213
						},
						{
							"POSITION":214,
							"NORMAL":215
						}
					]
				}
			],
			"weights":[
				0,
				0,
				0,
				0,
				0,
				0,
				0,
				0,
				0,
				0,
				0,
				0,
				0,
				0,
				0,
				0,
				0,
				0,
				0,
				0,
				0,
				0,
				0,
				0,
				0
			]
		},
		{
			"extras":{
				"targetNames":[
					"target_0",
					"target_1",
					"target_2",
					"target_3",
					"target_4",
					"target_5",
					"target_6",
					"target_7",
					"target_8",
					"target_9",
					"target_10",
					"target_11",
					"target_12",
					"target_13",
					"target_14",
					"target_15",
					"target_16",
					"target_17",
					"target_18",
					"target_19",
					"target_20",
					"target_21",
					"target_22",
					"target_23",
					"target_24"
				]
			},
			"name":"mesh_0.004",
			"primitives":[
				{
					"attributes":{
						"POSITION":216,
						"NORMAL":217,
						"TEXCOORD_0":218
					},
					"indices":219,
					"material":4,
					"targets":[
						{
							"POSITION":220,
							"NORMAL":221
						},
						{
							"POSITION":222,
							"NORMAL":223
						},
						{
							"POSITION":224,
							"NORMAL":225
						},
						{
							"POSITION":226,
							"NORMAL":227
						},
						{
							"POSITION":228,
							"NORMAL":229
						},
						{
							"POSITION":230,
							"NORMAL":231
						},
						{
							"POSITION":232,
							"NORMAL":233
						},
						{
							"POSITION":234,
							"NORMAL":235
						},
						{
							"POSITION":236,
							"NORMAL":237
						},
						{
							"POSITION":238,
							"NORMAL":239
						},
						{
							"POSITION":240,
							"NORMAL":241
						},
						{
							"POSITION":242,
							"NORMAL":243
						},
						{
							"POSITION":244,
							"NORMAL":245
						},
						{
							"POSITION":246,
							"NORMAL":247
						},
						{
							"POSITION":248,
							"NORMAL":249
						},
						{
							"POSITION":250,
							"NORMAL":251
						},
						{
							"POSITION":252,
							"NORMAL":253
						},
						{
							"POSITION":254,
							"NORMAL":255
						},
						{
							"POSITION":256,
							"NORMAL":257
						},
						{
							"POSITION":258,
							"NORMAL":259
						},
						{
							"POSITION":260,
							"NORMAL":261
						},
						{
							"POSITION":262,
							"NORMAL":263
						},
						{
							"POSITION":264,
							"NORMAL":265
						},
						{
							"POSITION":266,
							"NORMAL":267
						},
						{
							"POSITION":268,
							"NORMAL":269
						}
					]
				}
			],
			"weights":[
				0,
				0,
				0,
				0,
				0,
				0,
				0,
				0,
				0,
				0,
				0,
				0,
				0,
				0,
				0,
				0,
				0,
				0,
				0,
				0,
				0,
				0,
				0,
				0,
				0
			]
		}
	],
	"textures":[
		{
			"sampler":0,
			"source":0
		},
		{
			"sampler":1,
			"source":1
		}
	],
	"images":[
		{
			"mimeType":"image/png",
			"name":"leaf_specularf0",
			"uri":"leaf_specularf0.png"
		},
		{
			"mimeType":"image/png",
			"name":"leaf_baseColor",
			"uri":"leaf_baseColor.png"
		}
	],
	"accessors":[
		{
			"bufferView":0,
			"componentType":5126,
			"count":22509,
			"max":[
				0.00031349706114269793,
				0.1480431854724884,
				-0.0037544877268373966
			],
			"min":[
				-0.0003127665549982339,
				0.017535019665956497,
				-0.015263599343597889
			],
			"type":"VEC3"
		},
		{
			"bufferView":1,
			"componentType":5126,
			"count":22509,
			"type":"VEC3"
		},
		{
			"bufferView":2,
			"componentType":5126,
			"count":22509,
			"type":"VEC2"
		},
		{
			"bufferView":3,
			"componentType":5123,
			"count":22509,
			"type":"SCALAR"
		},
		{
			"bufferView":4,
			"componentType":5126,
			"count":22509,
			"max":[
				0.004440470598638058,
				0.013766199350357056,
				0.003777856472879648
			],
			"min":[
				-0.004180537536740303,
				0.0014858860522508621,
				-0.005293319001793861
			],
			"type":"VEC3"
		},
		{
			"bufferView":5,
			"componentType":5126,
			"count":22509,
			"type":"VEC3"
		},
		{
			"bufferView":6,
			"componentType":5126,
			"count":22509,
			"max":[
				0.014471791684627533,
				0.04484179615974426,
				0.012262370437383652
			],
			"min":[
				-0.013829456642270088,
				0.005069641396403313,
				-0.017387263476848602
			],
			"type":"VEC3"
		},
		{
			"bufferView":7,
			"componentType":5126,
			"count":22509,
			"type":"VEC3"
		},
		{
			"bufferView":8,
			"componentType":5126,
			"count":22509,
			"max":[
				0.022867007181048393,
				0.07159069180488586,
				0.01953725889325142
			],
			"min":[
				-0.022219892591238022,
				0.008235085755586624,
				-0.028054580092430115
			],
			"type":"VEC3"
		},
		{
			"bufferView":9,
			"componentType":5126,
			"count":22509,
			"type":"VEC3"
		},
		{
			"bufferView":10,
			"componentType":5126,
			"count":22509,
			"max":[
				0.0303012914955616,
				0.09356331825256348,
				0.02551291137933731
			],
			"min":[
				-0.02886679768562317,
				0.010697267949581146,
				-0.03661075606942177
			],
			"type":"VEC3"
		},
		{
			"bufferView":11,
			"componentType":5126,
			"count":22509,
			"type":"VEC3"
		},
		{
			"bufferView":12,
			"componentType":5126,
			"count":22509,
			"max":[
				0.03602827340364456,
				0.1115298867225647,
				0.029650643467903137
			],
			"min":[
				-0.034163832664489746,
				0.013942763209342957,
				-0.040926866233348846
			],
			"type":"VEC3"
		},
		{
			"bufferView":13,
			"componentType":5126,
			"count":22509,
			"type":"VEC3"
		},
		{
			"bufferView":14,
			"componentType":5126,
			"count":22509,
			"max":[
				0.037640996277332306,
				0.12168622016906738,
				0.03673718869686127
			],
			"min":[
				-0.03730711340904236,
				0.012377366423606873,
				-0.050233542919158936
			],
			"type":"VEC3"
		},
		{
			"bufferView":15,
			"componentType":5126,
			"count":22509,
			"type":"VEC3"
		},
		{
			"bufferView":16,
			"componentType":5126,
			"count":22509,
			"max":[
				0.04454541206359863,
				0.13193988800048828,
				0.03644020855426788
			],
			"min":[
				-0.037213101983070374,
				0.01455419510602951,
				-0.0490969717502594
			],
			"type":"VEC3"
		},
		{
			"bufferView":17,
			"componentType":5126,
			"count":22509,
			"type":"VEC3"
		},
		{
			"bufferView":18,
			"componentType":5126,
			"count":22509,
			"max":[
				0.03999947011470795,
				0.12988781929016113,
				0.034446701407432556
			],
			"min":[
				-0.04132063686847687,
				0.017581552267074585,
				-0.05092748999595642
			],
			"type":"VEC3"
		},
		{
			"bufferView":19,
			"componentType":5126,
			"count":22509,
			"type":"VEC3"
		},
		{
			"bufferView":20,
			"componentType":5126,
			"count":22509,
			"max":[
				0.04498930275440216,
				0.13396620750427246,
				0.036208271980285645
			],
			"min":[
				-0.03999447822570801,
				0.014415375888347626,
				-0.052799493074417114
			],
			"type":"VEC3"
		},
		{
			"bufferView":21,
			"componentType":5126,
			"count":22509,
			"type":"VEC3"
		},
		{
			"bufferView":22,
			"componentType":5126,
			"count":22509,
			"max":[
				0.043877869844436646,
				0.12453973293304443,
				0.03570204973220825
			],
			"min":[
				-0.037457793951034546,
				0.009970195591449738,
				-0.047876954078674316
			],
			"type":"VEC3"
		},
		{
			"bufferView":23,
			"componentType":5126,
			"count":22509,
			"type":"VEC3"
		},
		{
			"bufferView":24,
			"componentType":5126,
			"count":22509,
			"max":[
				0.03490099310874939,
				0.11204707622528076,
				0.03862982988357544
			],
			"min":[
				-0.035944581031799316,
				0.015340715646743774,
				-0.04240939021110535
			],
			"type":"VEC3"
		},
		{
			"bufferView":25,
			"componentType":5126,
			"count":22509,
			"type":"VEC3"
		},
		{
			"bufferView":26,
			"componentType":5126,
			"count":22509,
			"max":[
				0.036101728677749634,
				0.10048031806945801,
				0.024110078811645508
			],
			"min":[
				-0.03243432939052582,
				0.01071767508983612,
				-0.037987470626831055
			],
			"type":"VEC3"
		},
		{
			"bufferView":27,
			"componentType":5126,
			"count":22509,
			"type":"VEC3"
		},
		{
			"bufferView":28,
			"componentType":5126,
			"count":22509,
			"max":[
				0.02844958007335663,
				0.07583832740783691,
				0.024620145559310913
			],
			"min":[
				-0.02443230152130127,
				-0.0005713701248168945,
				-0.031393617391586304
			],
			"type":"VEC3"
		},
		{
			"bufferView":29,
			"componentType":5126,
			"count":22509,
			"type":"VEC3"
		},
		{
			"bufferView":30,
			"componentType":5126,
			"count":22509,
			"max":[
				0.02509137988090515,
				0.057971954345703125,
				0.017636626958847046
			],
			"min":[
				-0.0209428071975708,
				0.0019622445106506348,
				-0.032775163650512695
			],
			"type":"VEC3"
		},
		{
			"bufferView":31,
			"componentType":5126,
			"count":22509,
			"type":"VEC3"
		},
		{
			"bufferView":32,
			"componentType":5126,
			"count":22509,
			"max":[
				0.031225092709064484,
				0.03588557243347168,
				0.025377430021762848
			],
			"min":[
				-0.02095491625368595,
				-0.014609754085540771,
				-0.0417458638548851
			],
			"type":"VEC3"
		},
		{
			"bufferView":33,
			"componentType":5126,
			"count":22509,
			"type":"VEC3"
		},
		{
			"bufferView":34,
			"componentType":5126,
			"count":22509,
			"max":[
				0.03159354254603386,
				0.02878516912460327,
				0.019517697393894196
			],
			"min":[
				-0.018626093864440918,
				-0.021797657012939453,
				-0.010709181427955627
			],
			"type":"VEC3"
		},
		{
			"bufferView":35,
			"componentType":5126,
			"count":22509,
			"type":"VEC3"
		},
		{
			"bufferView":36,
			"componentType":5126,
			"count":22509,
			"max":[
				0.025901293382048607,
				0.02225101739168167,
				0.029694631695747375
			],
			"min":[
				-0.033713165670633316,
				-0.016314387321472168,
				-0.02968103438615799
			],
			"type":"VEC3"
		},
		{
			"bufferView":37,
			"componentType":5126,
			"count":22509,
			"type":"VEC3"
		},
		{
			"bufferView":38,
			"componentType":5126,
			"count":22509,
			"max":[
				0.03371569514274597,
				0.034060120582580566,
				0.025264009833335876
			],
			"min":[
				-0.03529012203216553,
				-0.019177734851837158,
				-0.034077927470207214
			],
			"type":"VEC3"
		},
		{
			"bufferView":39,
			"componentType":5126,
			"count":22509,
			"type":"VEC3"
		},
		{
			"bufferView":40,
			"componentType":5126,
			"count":22509,
			"max":[
				0.02868223935365677,
				0.01802099123597145,
				0.018186993896961212
			],
			"min":[
				-0.02034071460366249,
				-0.03957831859588623,
				-0.01774599403142929
			],
			"type":"VEC3"
		},
		{
			"bufferView":41,
			"componentType":5126,
			"count":22509,
			"type":"VEC3"
		},
		{
			"bufferView":42,
			"componentType":5126,
			"count":22509,
			"max":[
				0.020291224122047424,
				0.025403738021850586,
				0.018244892358779907
			],
			"min":[
				-0.01841568946838379,
				-0.023604154586791992,
				-0.01570791006088257
			],
			"type":"VEC3"
		},
		{
			"bufferView":43,
			"componentType":5126,
			"count":22509,
			"type":"VEC3"
		},
		{
			"bufferView":44,
			"componentType":5126,
			"count":22509,
			"max":[
				0.02136896178126335,
				0.017252087593078613,
				0.01911459118127823
			],
			"min":[
				-0.013729855418205261,
				-0.019452720880508423,
				-0.014081895351409912
			],
			"type":"VEC3"
		},
		{
			"bufferView":45,
			"componentType":5126,
			"count":22509,
			"type":"VEC3"
		},
		{
			"bufferView":46,
			"componentType":5126,
			"count":22509,
			"max":[
				0.01604699343442917,
				0.022776365280151367,
				0.027279287576675415
			],
			"min":[
				-0.01756460592150688,
				-0.021192967891693115,
				-0.030245579779148102
			],
			"type":"VEC3"
		},
		{
			"bufferView":47,
			"componentType":5126,
			"count":22509,
			"type":"VEC3"
		},
		{
			"bufferView":48,
			"componentType":5126,
			"count":22509,
			"max":[
				0.01641446352005005,
				0.01488882303237915,
				0.010876528918743134
			],
			"min":[
				-0.016773365437984467,
				-0.009764492511749268,
				-0.018131285905838013
			],
			"type":"VEC3"
		},
		{
			"bufferView":49,
			"componentType":5126,
			"count":22509,
			"type":"VEC3"
		},
		{
			"bufferView":50,
			"componentType":5126,
			"count":22509,
			"max":[
				0.017279647290706635,
				0.014229297637939453,
				0.012592434883117676
			],
			"min":[
				-0.014541953802108765,
				-0.014757990837097168,
				-0.012795262038707733
			],
			"type":"VEC3"
		},
		{
			"bufferView":51,
			"componentType":5126,
			"count":22509,
			"type":"VEC3"
		},
		{
			"bufferView":52,
			"componentType":5126,
			"count":22509,
			"max":[
				0.0033043324947357178,
				0.004966259002685547,
				0.0048524439334869385
			],
			"min":[
				-0.005143899470567703,
				-0.005445957183837891,
				-0.0055135926231741905
			],
			"type":"VEC3"
		},
		{
			"bufferView":53,
			"componentType":5126,
			"count":22509,
			"type":"VEC3"
		},
		{
			"bufferView":54,
			"componentType":5126,
			"count":1504,
			"max":[
				0.0024158156011253595,
				0.1504393368959427,
				0.0022052812855690718
			],
			"min":[
				-0.002530676079913974,
				-0.0005606604390777647,
				-0.016755633056163788
			],
			"type":"VEC3"
		},
		{
			"bufferView":55,
			"componentType":5126,
			"count":1504,
			"type":"VEC3"
		},
		{
			"bufferView":56,
			"componentType":5126,
			"count":1504,
			"type":"VEC2"
		},
		{
			"bufferView":57,
			"componentType":5123,
			"count":8832,
			"type":"SCALAR"
		},
		{
			"bufferView":58,
			"componentType":5126,
			"count":1504,
			"max":[
				0.00026516756042838097,
				0.013972610235214233,
				0.00016866507939994335
			],
			"min":[
				-0.00023385812528431416,
				-4.937569610774517e-05,
				-0.0015822146087884903
			],
			"type":"VEC3"
		},
		{
			"bufferView":59,
			"componentType":5126,
			"count":1504,
			"type":"VEC3"
		},
		{
			"bufferView":60,
			"componentType":5126,
			"count":1504,
			"max":[
				0.000922458479180932,
				0.045424774289131165,
				0.000698323012329638
			],
			"min":[
				-0.0009981878101825714,
				-0.00023563398281112313,
				-0.004975173622369766
			],
			"type":"VEC3"
		},
		{
			"bufferView":61,
			"componentType":5126,
			"count":1504,
			"type":"VEC3"
		},
		{
			"bufferView":62,
			"componentType":5126,
			"count":1504,
			"max":[
				0.0014381520450115204,
				0.07293634116649628,
				0.0013862731866538525
			],
			"min":[
				-0.0016282841097563505,
				-0.00030310614965856075,
				-0.00832541473209858
			],
			"type":"VEC3"
		},
		{
			"bufferView":63,
			"componentType":5126,
			"count":1504,
			"type":"VEC3"
		},
		{
			"bufferView":64,
			"componentType":5126,
			"count":1504,
			"max":[
				0.001826075604185462,
				0.09426626563072205,
				0.0013046171516180038
			],
			"min":[
				-0.002117105992510915,
				0.0006540106260217726,
				-0.010651012882590294
			],
			"type":"VEC3"
		},
		{
			"bufferView":65,
			"componentType":5126,
			"count":1504,
			"type":"VEC3"
		},
		{
			"bufferView":66,
			"componentType":5126,
			"count":1504,
			"max":[
				0.003977048210799694,
				0.11338841915130615,
				0.0038720015436410904
			],
			"min":[
				-0.0037093735300004482,
				-0.0012476108968257904,
				-0.013496734201908112
			],
			"type":"VEC3"
		},
		{
			"bufferView":67,
			"componentType":5126,
			"count":1504,
			"type":"VEC3"
		},
		{
			"bufferView":68,
			"componentType":5126,
			"count":1504,
			"max":[
				0.004069345537573099,
				0.12359358370304108,
				0.000643695704638958
			],
			"min":[
				-0.003128653159365058,
				-0.00042079732520505786,
				-0.014599386602640152
			],
			"type":"VEC3"
		},
		{
			"bufferView":69,
			"componentType":5126,
			"count":1504,
			"type":"VEC3"
		},
		{
			"bufferView":70,
			"componentType":5126,
			"count":1504,
			"max":[
				0.004845103248953819,
				0.1338339000940323,
				0.003049014136195183
			],
			"min":[
				-0.0036128934007138014,
				0.0003918034490197897,
				-0.014024601317942142
			],
			"type":"VEC3"
		},
		{
			"bufferView":71,
			"componentType":5126,
			"count":1504,
			"type":"VEC3"
		},
		{
			"bufferView":72,
			"componentType":5126,
			"count":1504,
			"max":[
				0.002922598272562027,
				0.13222037255764008,
				0.0010017813183367252
			],
			"min":[
				-0.0032948898151516914,
				0.00031711673364043236,
				-0.017833920195698738
			],
			"type":"VEC3"
		},
		{
			"bufferView":73,
			"componentType":5126,
			"count":1504,
			"type":"VEC3"
		},
		{
			"bufferView":74,
			"componentType":5126,
			"count":1504,
			"max":[
				0.006329537834972143,
				0.13519836962223053,
				0.006088625639677048
			],
			"min":[
				-0.0036315293982625008,
				-0.0020702232141047716,
				-0.014410197734832764
			],
			"type":"VEC3"
		},
		{
			"bufferView":75,
			"componentType":5126,
			"count":1504,
			"type":"VEC3"
		},
		{
			"bufferView":76,
			"componentType":5126,
			"count":1504,
			"max":[
				0.005176857113838196,
				0.1265629678964615,
				0.001126253861002624
			],
			"min":[
				-0.005947026424109936,
				-0.00019148713909089565,
				-0.01640055887401104
			],
			"type":"VEC3"
		},
		{
			"bufferView":77,
			"componentType":5126,
			"count":1504,
			"type":"VEC3"
		},
		{
			"bufferView":78,
			"componentType":5126,
			"count":1504,
			"max":[
				0.006993530318140984,
				0.11265407502651215,
				0.0009810030460357666
			],
			"min":[
				-0.0035994229838252068,
				-0.0027198055759072304,
				-0.01470637321472168
			],
			"type":"VEC3"
		},
		{
			"bufferView":79,
			"componentType":5126,
			"count":1504,
			"type":"VEC3"
		},
		{
			"bufferView":80,
			"componentType":5126,
			"count":1504,
			"max":[
				0.006139320321381092,
				0.10127854347229004,
				0.003914070315659046
			],
			"min":[
				-0.008607774041593075,
				-0.0005065816803835332,
				-0.014479630626738071
			],
			"type":"VEC3"
		},
		{
			"bufferView":81,
			"componentType":5126,
			"count":1504,
			"type":"VEC3"
		},
		{
			"bufferView":82,
			"componentType":5126,
			"count":1504,
			"max":[
				0.007390649523586035,
				0.07773077487945557,
				0.0046015651896595955
			],
			"min":[
				-0.006755324546247721,
				-0.0013330853544175625,
				-0.012928380630910397
			],
			"type":"VEC3"
		},
		{
			"bufferView":83,
			"componentType":5126,
			"count":1504,
			"type":"VEC3"
		},
		{
			"bufferView":84,
			"componentType":5126,
			"count":1504,
			"max":[
				0.005888189654797316,
				0.05096793174743652,
				0.0034542130306363106
			],
			"min":[
				-0.007531255017966032,
				0.001483578234910965,
				-0.013319090940058231
			],
			"type":"VEC3"
		},
		{
			"bufferView":85,
			"componentType":5126,
			"count":1504,
			"type":"VEC3"
		},
		{
			"bufferView":86,
			"componentType":5126,
			"count":1504,
			"max":[
				0.005936597008258104,
				0.023290514945983887,
				0.004791140556335449
			],
			"min":[
				-0.005496799014508724,
				-0.001463189721107483,
				-0.008688516914844513
			],
			"type":"VEC3"
		},
		{
			"bufferView":87,
			"componentType":5126,
			"count":1504,
			"type":"VEC3"
		},
		{
			"bufferView":88,
			"componentType":5126,
			"count":1504,
			"max":[
				0.0062934826128184795,
				0.0072019100189208984,
				0.007749006152153015
			],
			"min":[
				-0.005361530929803848,
				-0.0044727325439453125,
				-0.005150915123522282
			],
			"type":"VEC3"
		},
		{
			"bufferView":89,
			"componentType":5126,
			"count":1504,
			"type":"VEC3"
		},
		{
			"bufferView":90,
			"componentType":5126,
			"count":1504,
			"max":[
				0.007525804918259382,
				0.006668806076049805,
				0.006069362163543701
			],
			"min":[
				-0.008458535186946392,
				-0.004647165536880493,
				-0.005696788430213928
			],
			"type":"VEC3"
		},
		{
			"bufferView":91,
			"componentType":5126,
			"count":1504,
			"type":"VEC3"
		},
		{
			"bufferView":92,
			"componentType":5126,
			"count":1504,
			"max":[
				0.010123210959136486,
				0.006500724703073502,
				0.007240071892738342
			],
			"min":[
				-0.007230591494590044,
				-0.006052970886230469,
				-0.007070308085530996
			],
			"type":"VEC3"
		},
		{
			"bufferView":93,
			"componentType":5126,
			"count":1504,
			"type":"VEC3"
		},
		{
			"bufferView":94,
			"componentType":5126,
			"count":1504,
			"max":[
				0.007077335380017757,
				0.003900289535522461,
				0.006666138768196106
			],
			"min":[
				-0.007660886738449335,
				-0.00620618462562561,
				-0.007738441228866577
			],
			"type":"VEC3"
		},
		{
			"bufferView":95,
			"componentType":5126,
			"count":1504,
			"type":"VEC3"
		},
		{
			"bufferView":96,
			"componentType":5126,
			"count":1504,
			"max":[
				0.003401490394026041,
				0.004871755838394165,
				0.005040057003498077
			],
			"min":[
				-0.004491345025599003,
				-0.006074368953704834,
				-0.005779698491096497
			],
			"type":"VEC3"
		},
		{
			"bufferView":97,
			"componentType":5126,
			"count":1504,
			"type":"VEC3"
		},
		{
			"bufferView":98,
			"componentType":5126,
			"count":1504,
			"max":[
				0.004097886849194765,
				0.006641395390033722,
				0.005549609661102295
			],
			"min":[
				-0.006365017034113407,
				-0.005499780178070068,
				-0.00411020964384079
			],
			"type":"VEC3"
		},
		{
			"bufferView":99,
			"componentType":5126,
			"count":1504,
			"type":"VEC3"
		},
		{
			"bufferView":100,
			"componentType":5126,
			"count":1504,
			"max":[
				0.004138309508562088,
				0.00543975830078125,
				0.0035090132150799036
			],
			"min":[
				-0.004250208847224712,
				-0.006825625896453857,
				-0.005102247931063175
			],
			"type":"VEC3"
		},
		{
			"bufferView":101,
			"componentType":5126,
			"count":1504,
			"type":"VEC3"
		},
		{
			"bufferView":102,
			"componentType":5126,
			"count":1504,
			"max":[
				0.008593101985752583,
				0.002932906150817871,
				0.006374910939484835
			],
			"min":[
				-0.007122510112822056,
				-0.004660487174987793,
				-0.00780608830973506
			],
			"type":"VEC3"
		},
		{
			"bufferView":103,
			"componentType":5126,
			"count":1504,
			"type":"VEC3"
		},
		{
			"bufferView":104,
			"componentType":5126,
			"count":1504,
			"max":[
				0.004152524750679731,
				0.004935085773468018,
				0.003140851855278015
			],
			"min":[
				-0.0035754628479480743,
				-0.00377810001373291,
				-0.003496229648590088
			],
			"type":"VEC3"
		},
		{
			"bufferView":105,
			"componentType":5126,
			"count":1504,
			"type":"VEC3"
		},
		{
			"bufferView":106,
			"componentType":5126,
			"count":1504,
			"max":[
				0.002180623821914196,
				0.0015503168106079102,
				0.0018631070852279663
			],
			"min":[
				-0.0021528059151023626,
				-0.001163482666015625,
				-0.0019667604938149452
			],
			"type":"VEC3"
		},
		{
			"bufferView":107,
			"componentType":5126,
			"count":1504,
			"type":"VEC3"
		},
		{
			"bufferView":108,
			"componentType":5126,
			"count":4908,
			"max":[
				-0.00014028573059476912,
				0.14993256330490112,
				-0.00017376506002619863
			],
			"min":[
				-0.00014028573059476912,
				0.14993256330490112,
				-0.00017376506002619863
			],
			"type":"VEC3"
		},
		{
			"bufferView":109,
			"componentType":5126,
			"count":4908,
			"type":"VEC3"
		},
		{
			"bufferView":110,
			"componentType":5126,
			"count":4908,
			"type":"VEC2"
		},
		{
			"bufferView":111,
			"componentType":5123,
			"count":4908,
			"type":"SCALAR"
		},
		{
			"bufferView":112,
			"componentType":5126,
			"count":4908,
			"max":[
				9.286643762607127e-05,
				0.013926282525062561,
				-6.819453847128898e-05
			],
			"min":[
				9.286643762607127e-05,
				0.013926282525062561,
				-6.819453847128898e-05
			],
			"type":"VEC3"
		},
		{
			"componentType":5126,
			"count":4908,
			"sparse":{
				"count":1,
				"indices":{
					"bufferView":113,
					"componentType":5121
				},
				"values":{
					"bufferView":114
				}
			},
			"type":"VEC3"
		},
		{
			"bufferView":115,
			"componentType":5126,
			"count":4908,
			"max":[
				0.0002179342700401321,
				0.04526032507419586,
				6.440842116717249e-05
			],
			"min":[
				0.0002179342700401321,
				0.04526032507419586,
				6.440842116717249e-05
			],
			"type":"VEC3"
		},
		{
			"componentType":5126,
			"count":4908,
			"sparse":{
				"count":1,
				"indices":{
					"bufferView":116,
					"componentType":5121
				},
				"values":{
					"bufferView":117
				}
			},
			"type":"VEC3"
		},
		{
			"bufferView":118,
			"componentType":5126,
			"count":4908,
			"max":[
				0.00024019755073823035,
				0.07272404432296753,
				0.00036712599103339016
			],
			"min":[
				0.00024019755073823035,
				0.07272404432296753,
				0.00036712599103339016
			],
			"type":"VEC3"
		},
		{
			"componentType":5126,
			"count":4908,
			"sparse":{
				"count":1,
				"indices":{
					"bufferView":119,
					"componentType":5121
				},
				"values":{
					"bufferView":120
				}
			},
			"type":"VEC3"
		},
		{
			"bufferView":121,
			"componentType":5126,
			"count":4908,
			"max":[
				0.0001232763461302966,
				0.09391152858734131,
				-0.0006051265518181026
			],
			"min":[
				0.0001232763461302966,
				0.09391152858734131,
				-0.0006051265518181026
			],
			"type":"VEC3"
		},
		{
			"componentType":5126,
			"count":4908,
			"sparse":{
				"count":1,
				"indices":{
					"bufferView":122,
					"componentType":5121
				},
				"values":{
					"bufferView":123
				}
			},
			"type":"VEC3"
		},
		{
			"bufferView":124,
			"componentType":5126,
			"count":4908,
			"max":[
				-0.001090480014681816,
				0.11287426948547363,
				0.0008423342369496822
			],
			"min":[
				-0.001090480014681816,
				0.11287426948547363,
				0.0008423342369496822
			],
			"type":"VEC3"
		},
		{
			"componentType":5126,
			"count":4908,
			"sparse":{
				"count":1,
				"indices":{
					"bufferView":125,
					"componentType":5121
				},
				"values":{
					"bufferView":126
				}
			},
			"type":"VEC3"
		},
		{
			"bufferView":127,
			"componentType":5126,
			"count":4908,
			"max":[
				0.0003811498754657805,
				0.12322065234184265,
				-0.0015199133194983006
			],
			"min":[
				0.0003811498754657805,
				0.12322065234184265,
				-0.0015199133194983006
			],
			"type":"VEC3"
		},
		{
			"componentType":5126,
			"count":4908,
			"sparse":{
				"count":1,
				"indices":{
					"bufferView":128,
					"componentType":5121
				},
				"values":{
					"bufferView":129
				}
			},
			"type":"VEC3"
		},
		{
			"bufferView":130,
			"componentType":5126,
			"count":4908,
			"max":[
				0.0003443701134528965,
				0.13309568166732788,
				0.0006772403721697628
			],
			"min":[
				0.0003443701134528965,
				0.13309568166732788,
				0.0006772403721697628
			],
			"type":"VEC3"
		},
		{
			"componentType":5126,
			"count":4908,
			"sparse":{
				"count":1,
				"indices":{
					"bufferView":131,
					"componentType":5121
				},
				"values":{
					"bufferView":132
				}
			},
			"type":"VEC3"
		},
		{
			"bufferView":133,
			"componentType":5126,
			"count":4908,
			"max":[
				-0.0010809550294652581,
				0.13186770677566528,
				0.0005456820945255458
			],
			"min":[
				-0.0010809550294652581,
				0.13186770677566528,
				0.0005456820945255458
			],
			"type":"VEC3"
		},
		{
			"componentType":5126,
			"count":4908,
			"sparse":{
				"count":1,
				"indices":{
					"bufferView":134,
					"componentType":5121
				},
				"values":{
					"bufferView":135
				}
			},
			"type":"VEC3"
		},
		{
			"bufferView":136,
			"componentType":5126,
			"count":4908,
			"max":[
				0.0017883449327200651,
				0.1345616579055786,
				7.065849786158651e-05
			],
			"min":[
				0.0017883449327200651,
				0.1345616579055786,
				7.065849786158651e-05
			],
			"type":"VEC3"
		},
		{
			"componentType":5126,
			"count":4908,
			"sparse":{
				"count":1,
				"indices":{
					"bufferView":137,
					"componentType":5121
				},
				"values":{
					"bufferView":138
				}
			},
			"type":"VEC3"
		},
		{
			"bufferView":139,
			"componentType":5126,
			"count":4908,
			"max":[
				0.0011493740603327751,
				0.12605631351470947,
				0.0010446844389662147
			],
			"min":[
				0.0011493740603327751,
				0.12605631351470947,
				0.0010446844389662147
			],
			"type":"VEC3"
		},
		{
			"componentType":5126,
			"count":4908,
			"sparse":{
				"count":1,
				"indices":{
					"bufferView":140,
					"componentType":5121
				},
				"values":{
					"bufferView":141
				}
			},
			"type":"VEC3"
		},
		{
			"bufferView":142,
			"componentType":5126,
			"count":4908,
			"max":[
				-0.0012440227437764406,
				0.11380517482757568,
				-0.0007520552608184516
			],
			"min":[
				-0.004499868024140596,
				0.11071133613586426,
				-0.0025212629698216915
			],
			"type":"VEC3"
		},
		{
			"bufferView":143,
			"componentType":5126,
			"count":4908,
			"type":"VEC3"
		},
		{
			"bufferView":144,
			"componentType":5126,
			"count":4908,
			"max":[
				0.005941823590546846,
				0.10467314720153809,
				0.0044095320627093315
			],
			"min":[
				-0.003445092821493745,
				0.09556102752685547,
				-0.0018176436424255371
			],
			"type":"VEC3"
		},
		{
			"bufferView":145,
			"componentType":5126,
			"count":4908,
			"type":"VEC3"
		},
		{
			"bufferView":146,
			"componentType":5126,
			"count":4908,
			"max":[
				0.012651682831346989,
				0.09256470203399658,
				0.01463302318006754
			],
			"min":[
				-0.014899280853569508,
				0.06729400157928467,
				0.0001390073448419571
			],
			"type":"VEC3"
		},
		{
			"bufferView":147,
			"componentType":5126,
			"count":4908,
			"type":"VEC3"
		},
		{
			"bufferView":148,
			"componentType":5126,
			"count":4908,
			"max":[
				0.031079495325684547,
				0.07165074348449707,
				0.0007275296375155449
			],
			"min":[
				-0.02006298489868641,
				0.02594292163848877,
				-0.022653430700302124
			],
			"type":"VEC3"
		},
		{
			"bufferView":149,
			"componentType":5126,
			"count":4908,
			"type":"VEC3"
		},
		{
			"bufferView":150,
			"componentType":5126,
			"count":4908,
			"max":[
				0.01415979489684105,
				0.03107011318206787,
				0.008294460363686085
			],
			"min":[
				-0.024060934782028198,
				-0.009109139442443848,
				-0.02252112329006195
			],
			"type":"VEC3"
		},
		{
			"bufferView":151,
			"componentType":5126,
			"count":4908,
			"type":"VEC3"
		},
		{
			"bufferView":152,
			"componentType":5126,
			"count":4908,
			"max":[
				0.013044711202383041,
				0.01713871955871582,
				0.00783782359212637
			],
			"min":[
				-0.019154757261276245,
				-0.01823270320892334,
				-0.019234023988246918
			],
			"type":"VEC3"
		},
		{
			"bufferView":153,
			"componentType":5126,
			"count":4908,
			"type":"VEC3"
		},
		{
			"bufferView":154,
			"componentType":5126,
			"count":4908,
			"max":[
				0.028561018407344818,
				0.02406132221221924,
				0.007128037512302399
			],
			"min":[
				-0.019647128880023956,
				-0.020453572273254395,
				-0.01923859864473343
			],
			"type":"VEC3"
		},
		{
			"bufferView":155,
			"componentType":5126,
			"count":4908,
			"type":"VEC3"
		},
		{
			"bufferView":156,
			"componentType":5126,
			"count":4908,
			"max":[
				0.02076069265604019,
				0.01917576789855957,
				0.0028404947370290756
			],
			"min":[
				-0.02951657772064209,
				-0.03208339214324951,
				-0.016050763428211212
			],
			"type":"VEC3"
		},
		{
			"bufferView":157,
			"componentType":5126,
			"count":4908,
			"type":"VEC3"
		},
		{
			"bufferView":158,
			"componentType":5126,
			"count":4908,
			"max":[
				0.028012007474899292,
				0.011727094650268555,
				0.011758923530578613
			],
			"min":[
				-0.019647717475891113,
				-0.02790355682373047,
				-0.02763136476278305
			],
			"type":"VEC3"
		},
		{
			"bufferView":159,
			"componentType":5126,
			"count":4908,
			"type":"VEC3"
		},
		{
			"bufferView":160,
			"componentType":5126,
			"count":4908,
			"max":[
				0.016208574175834656,
				0.01968204975128174,
				0.004030732437968254
			],
			"min":[
				-0.024756014347076416,
				-0.021886229515075684,
				-0.017556175589561462
			],
			"type":"VEC3"
		},
		{
			"bufferView":161,
			"componentType":5126,
			"count":4908,
			"type":"VEC3"
		},
		{
			"bufferView":162,
			"componentType":5126,
			"count":4908,
			"max":[
				0.015781506896018982,
				0.005373716354370117,
				0.01455000415444374
			],
			"min":[
				-0.011200189590454102,
				-0.01571512222290039,
				-0.018360301852226257
			],
			"type":"VEC3"
		},
		{
			"bufferView":163,
			"componentType":5126,
			"count":4908,
			"type":"VEC3"
		},
		{
			"bufferView":164,
			"componentType":5126,
			"count":4908,
			"max":[
				0.007081836462020874,
				0.02147817611694336,
				0.014788001775741577
			],
			"min":[
				-0.0037954149302095175,
				-0.006096363067626953,
				-0.01855478435754776
			],
			"type":"VEC3"
		},
		{
			"bufferView":165,
			"componentType":5126,
			"count":4908,
			"type":"VEC3"
		},
		{
			"bufferView":166,
			"componentType":5126,
			"count":4908,
			"max":[
				0.008269456215202808,
				0.007408022880554199,
				0.007916487753391266
			],
			"min":[
				-0.005171120632439852,
				-0.009760379791259766,
				-0.008245058357715607
			],
			"type":"VEC3"
		},
		{
			"bufferView":167,
			"componentType":5126,
			"count":4908,
			"type":"VEC3"
		},
		{
			"bufferView":168,
			"componentType":5126,
			"count":4908,
			"max":[
				0.009655849076807499,
				0.006301164627075195,
				0.00865122675895691
			],
			"min":[
				-0.0048534017987549305,
				-0.012513279914855957,
				-0.005848236382007599
			],
			"type":"VEC3"
		},
		{
			"bufferView":169,
			"componentType":5126,
			"count":4908,
			"type":"VEC3"
		},
		{
			"bufferView":170,
			"componentType":5126,
			"count":4908,
			"max":[
				0.003148886375129223,
				0.005357146263122559,
				0.005259864032268524
			],
			"min":[
				-0.0029079760424792767,
				-0.0034182071685791016,
				-0.005520481616258621
			],
			"type":"VEC3"
		},
		{
			"bufferView":171,
			"componentType":5126,
			"count":4908,
			"type":"VEC3"
		},
		{
			"bufferView":172,
			"componentType":5126,
			"count":4680,
			"max":[
				-0.00014028573059476912,
				0.14993256330490112,
				-0.00017376506002619863
			],
			"min":[
				-0.00014028573059476912,
				0.14993256330490112,
				-0.00017376506002619863
			],
			"type":"VEC3"
		},
		{
			"bufferView":173,
			"componentType":5126,
			"count":4680,
			"type":"VEC3"
		},
		{
			"bufferView":174,
			"componentType":5126,
			"count":4680,
			"type":"VEC2"
		},
		{
			"bufferView":175,
			"componentType":5123,
			"count":4680,
			"type":"SCALAR"
		},
		{
			"bufferView":176,
			"componentType":5126,
			"count":4680,
			"max":[
				9.286643762607127e-05,
				0.013926282525062561,
				-6.819453847128898e-05
			],
			"min":[
				9.286643762607127e-05,
				0.013926282525062561,
				-6.819453847128898e-05
			],
			"type":"VEC3"
		},
		{
			"componentType":5126,
			"count":4680,
			"sparse":{
				"count":1,
				"indices":{
					"bufferView":177,
					"componentType":5121
				},
				"values":{
					"bufferView":178
				}
			},
			"type":"VEC3"
		},
		{
			"bufferView":179,
			"componentType":5126,
			"count":4680,
			"max":[
				0.0002179342700401321,
				0.04526032507419586,
				6.440842116717249e-05
			],
			"min":[
				0.0002179342700401321,
				0.04526032507419586,
				6.440842116717249e-05
			],
			"type":"VEC3"
		},
		{
			"componentType":5126,
			"count":4680,
			"sparse":{
				"count":1,
				"indices":{
					"bufferView":180,
					"componentType":5121
				},
				"values":{
					"bufferView":181
				}
			},
			"type":"VEC3"
		},
		{
			"bufferView":182,
			"componentType":5126,
			"count":4680,
			"max":[
				0.00024019755073823035,
				0.07272404432296753,
				0.00036712599103339016
			],
			"min":[
				0.00024019755073823035,
				0.07272404432296753,
				0.00036712599103339016
			],
			"type":"VEC3"
		},
		{
			"componentType":5126,
			"count":4680,
			"sparse":{
				"count":1,
				"indices":{
					"bufferView":183,
					"componentType":5121
				},
				"values":{
					"bufferView":184
				}
			},
			"type":"VEC3"
		},
		{
			"bufferView":185,
			"componentType":5126,
			"count":4680,
			"max":[
				0.0001232763461302966,
				0.09391152858734131,
				-0.0006051265518181026
			],
			"min":[
				0.0001232763461302966,
				0.09391152858734131,
				-0.0006051265518181026
			],
			"type":"VEC3"
		},
		{
			"componentType":5126,
			"count":4680,
			"sparse":{
				"count":1,
				"indices":{
					"bufferView":186,
					"componentType":5121
				},
				"values":{
					"bufferView":187
				}
			},
			"type":"VEC3"
		},
		{
			"bufferView":188,
			"componentType":5126,
			"count":4680,
			"max":[
				-0.001090480014681816,
				0.11287426948547363,
				0.0008423342369496822
			],
			"min":[
				-0.001090480014681816,
				0.11287426948547363,
				0.0008423342369496822
			],
			"type":"VEC3"
		},
		{
			"componentType":5126,
			"count":4680,
			"sparse":{
				"count":1,
				"indices":{
					"bufferView":189,
					"componentType":5121
				},
				"values":{
					"bufferView":190
				}
			},
			"type":"VEC3"
		},
		{
			"bufferView":191,
			"componentType":5126,
			"count":4680,
			"max":[
				0.0003811498754657805,
				0.12322065234184265,
				-0.0015199133194983006
			],
			"min":[
				0.0003811498754657805,
				0.12322065234184265,
				-0.0015199133194983006
			],
			"type":"VEC3"
		},
		{
			"componentType":5126,
			"count":4680,
			"sparse":{
				"count":1,
				"indices":{
					"bufferView":192,
					"componentType":5121
				},
				"values":{
					"bufferView":193
				}
			},
			"type":"VEC3"
		},
		{
			"bufferView":194,
			"componentType":5126,
			"count":4680,
			"max":[
				0.0003443701134528965,
				0.13309568166732788,
				0.0006772403721697628
			],
			"min":[
				0.0003443701134528965,
				0.13309568166732788,
				0.0006772403721697628
			],
			"type":"VEC3"
		},
		{
			"componentType":5126,
			"count":4680,
			"sparse":{
				"count":1,
				"indices":{
					"bufferView":195,
					"componentType":5121
				},
				"values":{
					"bufferView":196
				}
			},
			"type":"VEC3"
		},
		{
			"bufferView":197,
			"componentType":5126,
			"count":4680,
			"max":[
				-0.0010809550294652581,
				0.13186770677566528,
				0.0005456820945255458
			],
			"min":[
				-0.0010809550294652581,
				0.13186770677566528,
				0.0005456820945255458
			],
			"type":"VEC3"
		},
		{
			"componentType":5126,
			"count":4680,
			"sparse":{
				"count":1,
				"indices":{
					"bufferView":198,
					"componentType":5121
				},
				"values":{
					"bufferView":199
				}
			},
			"type":"VEC3"
		},
		{
			"bufferView":200,
			"componentType":5126,
			"count":4680,
			"max":[
				0.0017883449327200651,
				0.1345616579055786,
				7.065849786158651e-05
			],
			"min":[
				0.0017883449327200651,
				0.1345616579055786,
				7.065849786158651e-05
			],
			"type":"VEC3"
		},
		{
			"componentType":5126,
			"count":4680,
			"sparse":{
				"count":1,
				"indices":{
					"bufferView":201,
					"componentType":5121
				},
				"values":{
					"bufferView":202
				}
			},
			"type":"VEC3"
		},
		{
			"bufferView":203,
			"componentType":5126,
			"count":4680,
			"max":[
				0.0011493740603327751,
				0.12605631351470947,
				0.0010446844389662147
			],
			"min":[
				0.0011493740603327751,
				0.12605631351470947,
				0.0010446844389662147
			],
			"type":"VEC3"
		},
		{
			"componentType":5126,
			"count":4680,
			"sparse":{
				"count":1,
				"indices":{
					"bufferView":204,
					"componentType":5121
				},
				"values":{
					"bufferView":205
				}
			},
			"type":"VEC3"
		},
		{
			"bufferView":206,
			"componentType":5126,
			"count":4680,
			"max":[
				-0.0015143685741350055,
				0.11362791061401367,
				-0.0010034828446805477
			],
			"min":[
				-0.004222453106194735,
				0.11105597019195557,
				-0.002173792803660035
			],
			"type":"VEC3"
		},
		{
			"bufferView":207,
			"componentType":5126,
			"count":4680,
			"type":"VEC3"
		},
		{
			"bufferView":208,
			"componentType":5126,
			"count":4680,
			"max":[
				0.005116094369441271,
				0.10405707359313965,
				0.005614187568426132
			],
			"min":[
				-0.002629321301355958,
				0.09656798839569092,
				-0.0008365690591745079
			],
			"type":"VEC3"
		},
		{
			"bufferView":209,
			"componentType":5126,
			"count":4680,
			"type":"VEC3"
		},
		{
			"bufferView":210,
			"componentType":5126,
			"count":4680,
			"max":[
				0.005126478616148233,
				0.08751964569091797,
				0.019537391141057014
			],
			"min":[
				-0.0072165862657129765,
				0.07222318649291992,
				0.001828797161579132
			],
			"type":"VEC3"
		},
		{
			"bufferView":211,
			"componentType":5126,
			"count":4680,
			"type":"VEC3"
		},
		{
			"bufferView":212,
			"componentType":5126,
			"count":4680,
			"max":[
				0.019022487103939056,
				0.07096445560455322,
				0.01859254203736782
			],
			"min":[
				-0.003958098590373993,
				0.0443042516708374,
				-0.008156207390129566
			],
			"type":"VEC3"
		},
		{
			"bufferView":213,
			"componentType":5126,
			"count":4680,
			"type":"VEC3"
		},
		{
			"bufferView":214,
			"componentType":5126,
			"count":4680,
			"max":[
				0.012305622920393944,
				0.045687198638916016,
				0.030844174325466156
			],
			"min":[
				-0.0329618826508522,
				0.002452373504638672,
				0.002002755645662546
			],
			"type":"VEC3"
		},
		{
			"bufferView":215,
			"componentType":5126,
			"count":4680,
			"type":"VEC3"
		},
		{
			"bufferView":216,
			"componentType":5126,
			"count":4680,
			"max":[
				0.040512923151254654,
				0.04173457622528076,
				0.031049683690071106
			],
			"min":[
				-0.0324096605181694,
				-0.028086543083190918,
				0.0009923763573169708
			],
			"type":"VEC3"
		},
		{
			"bufferView":217,
			"componentType":5126,
			"count":4680,
			"type":"VEC3"
		},
		{
			"bufferView":218,
			"componentType":5126,
			"count":4680,
			"max":[
				0.04791407287120819,
				0.054690003395080566,
				0.024900056421756744
			],
			"min":[
				-0.04932626336812973,
				-0.03599190711975098,
				-0.011167362332344055
			],
			"type":"VEC3"
		},
		{
			"bufferView":219,
			"componentType":5126,
			"count":4680,
			"type":"VEC3"
		},
		{
			"bufferView":220,
			"componentType":5126,
			"count":4680,
			"max":[
				0.053467750549316406,
				0.042851924896240234,
				0.004332408308982849
			],
			"min":[
				-0.05620339512825012,
				-0.06601357460021973,
				-0.017837107181549072
			],
			"type":"VEC3"
		},
		{
			"bufferView":221,
			"componentType":5126,
			"count":4680,
			"type":"VEC3"
		},
		{
			"bufferView":222,
			"componentType":5126,
			"count":4680,
			"max":[
				0.050264179706573486,
				0.03928208351135254,
				0.011582203209400177
			],
			"min":[
				-0.05035822093486786,
				-0.04493582248687744,
				-0.0565652921795845
			],
			"type":"VEC3"
		},
		{
			"bufferView":223,
			"componentType":5126,
			"count":4680,
			"type":"VEC3"
		},
		{
			"bufferView":224,
			"componentType":5126,
			"count":4680,
			"max":[
				0.039020732045173645,
				0.027690649032592773,
				0.004319526255130768
			],
			"min":[
				-0.03686240315437317,
				-0.04838728904724121,
				-0.041921645402908325
			],
			"type":"VEC3"
		},
		{
			"bufferView":225,
			"componentType":5126,
			"count":4680,
			"type":"VEC3"
		},
		{
			"bufferView":226,
			"componentType":5126,
			"count":4680,
			"max":[
				0.021899163722991943,
				0.005708456039428711,
				0.010975010693073273
			],
			"min":[
				-0.021719157695770264,
				-0.022106528282165527,
				-0.04844596982002258
			],
			"type":"VEC3"
		},
		{
			"bufferView":227,
			"componentType":5126,
			"count":4680,
			"type":"VEC3"
		},
		{
			"bufferView":228,
			"componentType":5126,
			"count":4680,
			"max":[
				0.01103779673576355,
				0.016793012619018555,
				0.020486921072006226
			],
			"min":[
				-0.0045455992221832275,
				-0.02056288719177246,
				-0.03301119804382324
			],
			"type":"VEC3"
		},
		{
			"bufferView":229,
			"componentType":5126,
			"count":4680,
			"type":"VEC3"
		},
		{
			"bufferView":230,
			"componentType":5126,
			"count":4680,
			"max":[
				0.008264537900686264,
				0.01483011245727539,
				0.01185917854309082
			],
			"min":[
				-0.01032519992440939,
				-0.01241147518157959,
				-0.013860739767551422
			],
			"type":"VEC3"
		},
		{
			"bufferView":231,
			"componentType":5126,
			"count":4680,
			"type":"VEC3"
		},
		{
			"bufferView":232,
			"componentType":5126,
			"count":4680,
			"max":[
				0.009364873170852661,
				0.013273239135742188,
				0.012241512537002563
			],
			"min":[
				-0.010173914954066277,
				-0.01676321029663086,
				-0.010803461074829102
			],
			"type":"VEC3"
		},
		{
			"bufferView":233,
			"componentType":5126,
			"count":4680,
			"type":"VEC3"
		},
		{
			"bufferView":234,
			"componentType":5126,
			"count":4680,
			"max":[
				0.003265462815761566,
				0.005646347999572754,
				0.009168453514575958
			],
			"min":[
				-0.005329873412847519,
				-0.00702667236328125,
				-0.007997140288352966
			],
			"type":"VEC3"
		},
		{
			"bufferView":235,
			"componentType":5126,
			"count":4680,
			"type":"VEC3"
		},
		{
			"bufferView":236,
			"componentType":5126,
			"count":6000,
			"max":[
				-0.00014028573059476912,
				0.14993256330490112,
				-0.00017376506002619863
			],
			"min":[
				-0.00014028573059476912,
				0.14993256330490112,
				-0.00017376506002619863
			],
			"type":"VEC3"
		},
		{
			"bufferView":237,
			"componentType":5126,
			"count":6000,
			"type":"VEC3"
		},
		{
			"bufferView":238,
			"componentType":5126,
			"count":6000,
			"type":"VEC2"
		},
		{
			"bufferView":239,
			"componentType":5123,
			"count":30000,
			"type":"SCALAR"
		},
		{
			"bufferView":240,
			"componentType":5126,
			"count":6000,
			"max":[
				9.286643762607127e-05,
				0.013926282525062561,
				-6.819453847128898e-05
			],
			"min":[
				9.286643762607127e-05,
				0.013926282525062561,
				-6.819453847128898e-05
			],
			"type":"VEC3"
		},
		{
			"componentType":5126,
			"count":6000,
			"sparse":{
				"count":1,
				"indices":{
					"bufferView":241,
					"componentType":5121
				},
				"values":{
					"bufferView":242
				}
			},
			"type":"VEC3"
		},
		{
			"bufferView":243,
			"componentType":5126,
			"count":6000,
			"max":[
				0.0002179342700401321,
				0.04526032507419586,
				6.440842116717249e-05
			],
			"min":[
				0.0002179342700401321,
				0.04526032507419586,
				6.440842116717249e-05
			],
			"type":"VEC3"
		},
		{
			"componentType":5126,
			"count":6000,
			"sparse":{
				"count":1,
				"indices":{
					"bufferView":244,
					"componentType":5121
				},
				"values":{
					"bufferView":245
				}
			},
			"type":"VEC3"
		},
		{
			"bufferView":246,
			"componentType":5126,
			"count":6000,
			"max":[
				0.00024019755073823035,
				0.07272404432296753,
				0.00036712599103339016
			],
			"min":[
				0.00024019755073823035,
				0.07272404432296753,
				0.00036712599103339016
			],
			"type":"VEC3"
		},
		{
			"componentType":5126,
			"count":6000,
			"sparse":{
				"count":1,
				"indices":{
					"bufferView":247,
					"componentType":5121
				},
				"values":{
					"bufferView":248
				}
			},
			"type":"VEC3"
		},
		{
			"bufferView":249,
			"componentType":5126,
			"count":6000,
			"max":[
				0.0001232763461302966,
				0.09391152858734131,
				-0.0006051265518181026
			],
			"min":[
				0.0001232763461302966,
				0.09391152858734131,
				-0.0006051265518181026
			],
			"type":"VEC3"
		},
		{
			"componentType":5126,
			"count":6000,
			"sparse":{
				"count":1,
				"indices":{
					"bufferView":250,
					"componentType":5121
				},
				"values":{
					"bufferView":251
				}
			},
			"type":"VEC3"
		},
		{
			"bufferView":252,
			"componentType":5126,
			"count":6000,
			"max":[
				-0.001090480014681816,
				0.11287426948547363,
				0.0008423342369496822
			],
			"min":[
				-0.001090480014681816,
				0.11287426948547363,
				0.0008423342369496822
			],
			"type":"VEC3"
		},
		{
			"componentType":5126,
			"count":6000,
			"sparse":{
				"count":1,
				"indices":{
					"bufferView":253,
					"componentType":5121
				},
				"values":{
					"bufferView":254
				}
			},
			"type":"VEC3"
		},
		{
			"bufferView":255,
			"componentType":5126,
			"count":6000,
			"max":[
				0.0003811498754657805,
				0.12322065234184265,
				-0.0015199133194983006
			],
			"min":[
				0.0003811498754657805,
				0.12322065234184265,
				-0.0015199133194983006
			],
			"type":"VEC3"
		},
		{
			"componentType":5126,
			"count":6000,
			"sparse":{
				"count":1,
				"indices":{
					"bufferView":256,
					"componentType":5121
				},
				"values":{
					"bufferView":257
				}
			},
			"type":"VEC3"
		},
		{
			"bufferView":258,
			"componentType":5126,
			"count":6000,
			"max":[
				0.0003443701134528965,
				0.13309568166732788,
				0.0006772403721697628
			],
			"min":[
				0.0003443701134528965,
				0.13309568166732788,
				0.0006772403721697628
			],
			"type":"VEC3"
		},
		{
			"componentType":5126,
			"count":6000,
			"sparse":{
				"count":1,
				"indices":{
					"bufferView":259,
					"componentType":5121
				},
				"values":{
					"bufferView":260
				}
			},
			"type":"VEC3"
		},
		{
			"bufferView":261,
			"componentType":5126,
			"count":6000,
			"max":[
				-0.0010809550294652581,
				0.13186770677566528,
				0.0005456820945255458
			],
			"min":[
				-0.0010809550294652581,
				0.13186770677566528,
				0.0005456820945255458
			],
			"type":"VEC3"
		},
		{
			"componentType":5126,
			"count":6000,
			"sparse":{
				"count":1,
				"indices":{
					"bufferView":262,
					"componentType":5121
				},
				"values":{
					"bufferView":263
				}
			},
			"type":"VEC3"
		},
		{
			"bufferView":264,
			"componentType":5126,
			"count":6000,
			"max":[
				0.0017883449327200651,
				0.1345616579055786,
				7.065849786158651e-05
			],
			"min":[
				0.0017883449327200651,
				0.1345616579055786,
				7.065849786158651e-05
			],
			"type":"VEC3"
		},
		{
			"componentType":5126,
			"count":6000,
			"sparse":{
				"count":1,
				"indices":{
					"bufferView":265,
					"componentType":5121
				},
				"values":{
					"bufferView":266
				}
			},
			"type":"VEC3"
		},
		{
			"bufferView":267,
			"componentType":5126,
			"count":6000,
			"max":[
				0.0011493740603327751,
				0.12605631351470947,
				0.0010446844389662147
			],
			"min":[
				0.0011493740603327751,
				0.12605631351470947,
				0.0010446844389662147
			],
			"type":"VEC3"
		},
		{
			"componentType":5126,
			"count":6000,
			"sparse":{
				"count":1,
				"indices":{
					"bufferView":268,
					"componentType":5121
				},
				"values":{
					"bufferView":269
				}
			},
			"type":"VEC3"
		},
		{
			"bufferView":270,
			"componentType":5126,
			"count":6000,
			"max":[
				-0.0014883923577144742,
				0.11366534233093262,
				-0.0011854006443172693
			],
			"min":[
				-0.004232558887451887,
				0.11101675033569336,
				-0.0023202968295663595
			],
			"type":"VEC3"
		},
		{
			"bufferView":271,
			"componentType":5126,
			"count":6000,
			"type":"VEC3"
		},
		{
			"bufferView":272,
			"componentType":5126,
			"count":6000,
			"max":[
				0.005203712731599808,
				0.10406911373138428,
				0.0019751512445509434
			],
			"min":[
				-0.0026792341377586126,
				0.0964430570602417,
				-0.001254314323887229
			],
			"type":"VEC3"
		},
		{
			"bufferView":273,
			"componentType":5126,
			"count":6000,
			"type":"VEC3"
		},
		{
			"bufferView":274,
			"componentType":5126,
			"count":6000,
			"max":[
				0.005257362499833107,
				0.08354127407073975,
				0.007762943394482136
			],
			"min":[
				-0.007237713318318129,
				0.07193779945373535,
				0.001291397726163268
			],
			"type":"VEC3"
		},
		{
			"bufferView":275,
			"componentType":5126,
			"count":6000,
			"type":"VEC3"
		},
		{
			"bufferView":276,
			"componentType":5126,
			"count":6000,
			"max":[
				0.013723442330956459,
				0.0590362548828125,
				0.00040629226714372635
			],
			"min":[
				-0.0030938321724534035,
				0.04389381408691406,
				-0.008919727988541126
			],
			"type":"VEC3"
		},
		{
			"bufferView":277,
			"componentType":5126,
			"count":6000,
			"type":"VEC3"
		},
		{
			"bufferView":278,
			"componentType":5126,
			"count":6000,
			"max":[
				0.004305124282836914,
				0.029241442680358887,
				0.009387129917740822
			],
			"min":[
				-0.016037028282880783,
				0.008650541305541992,
				0.0007790564559400082
			],
			"type":"VEC3"
		},
		{
			"bufferView":279,
			"componentType":5126,
			"count":6000,
			"type":"VEC3"
		},
		{
			"bufferView":280,
			"componentType":5126,
			"count":6000,
			"max":[
				0.010699175298213959,
				0.015353560447692871,
				0.009048385545611382
			],
			"min":[
				-0.013340875506401062,
				-0.00808560848236084,
				-0.0005264016799628735
			],
			"type":"VEC3"
		},
		{
			"bufferView":281,
			"componentType":5126,
			"count":6000,
			"type":"VEC3"
		},
		{
			"bufferView":282,
			"componentType":5126,
			"count":6000,
			"max":[
				0.015439838171005249,
				0.019258975982666016,
				0.008237194269895554
			],
			"min":[
				-0.010380987077951431,
				-0.005710482597351074,
				-0.004226165823638439
			],
			"type":"VEC3"
		},
		{
			"bufferView":283,
			"componentType":5126,
			"count":6000,
			"type":"VEC3"
		},
		{
			"bufferView":284,
			"componentType":5126,
			"count":6000,
			"max":[
				0.010749518871307373,
				0.008770108222961426,
				0.004609417170286179
			],
			"min":[
				-0.0166226327419281,
				-0.018853306770324707,
				-0.002705455757677555
			],
			"type":"VEC3"
		},
		{
			"bufferView":285,
			"componentType":5126,
			"count":6000,
			"type":"VEC3"
		},
		{
			"bufferView":286,
			"componentType":5126,
			"count":6000,
			"max":[
				0.014577940106391907,
				0.012057185173034668,
				0.011955272406339645
			],
			"min":[
				-0.011099740862846375,
				-0.009887337684631348,
				-0.009915722534060478
			],
			"type":"VEC3"
		},
		{
			"bufferView":287,
			"componentType":5126,
			"count":6000,
			"type":"VEC3"
		},
		{
			"bufferView":288,
			"componentType":5126,
			"count":6000,
			"max":[
				0.011199124157428741,
				0.012895584106445312,
				0.005105920135974884
			],
			"min":[
				-0.011468343436717987,
				-0.009648919105529785,
				-0.004948701709508896
			],
			"type":"VEC3"
		},
		{
			"bufferView":289,
			"componentType":5126,
			"count":6000,
			"type":"VEC3"
		},
		{
			"bufferView":290,
			"componentType":5126,
			"count":6000,
			"max":[
				0.007961846888065338,
				0.006182312965393066,
				0.011279799044132233
			],
			"min":[
				-0.006663769483566284,
				-0.004042983055114746,
				-0.007110133767127991
			],
			"type":"VEC3"
		},
		{
			"bufferView":291,
			"componentType":5126,
			"count":6000,
			"type":"VEC3"
		},
		{
			"bufferView":292,
			"componentType":5126,
			"count":6000,
			"max":[
				0.006877735257148743,
				0.007692933082580566,
				0.013482396490871906
			],
			"min":[
				0.0009101852774620056,
				-0.0067996978759765625,
				-0.0051617808640003204
			],
			"type":"VEC3"
		},
		{
			"bufferView":293,
			"componentType":5126,
			"count":6000,
			"type":"VEC3"
		},
		{
			"bufferView":294,
			"componentType":5126,
			"count":6000,
			"max":[
				0.0014140699058771133,
				0.006707429885864258,
				0.003200523555278778
			],
			"min":[
				-0.005467841401696205,
				-0.002947688102722168,
				-0.005718083120882511
			],
			"type":"VEC3"
		},
		{
			"bufferView":295,
			"componentType":5126,
			"count":6000,
			"type":"VEC3"
		},
		{
			"bufferView":296,
			"componentType":5126,
			"count":6000,
			"max":[
				0.0021240562200546265,
				0.0038231611251831055,
				0.004529159516096115
			],
			"min":[
				-0.005211449693888426,
				-0.006569981575012207,
				-0.003438507206737995
			],
			"type":"VEC3"
		},
		{
			"bufferView":297,
			"componentType":5126,
			"count":6000,
			"type":"VEC3"
		},
		{
			"bufferView":298,
			"componentType":5126,
			"count":6000,
			"max":[
				0.0001245010644197464,
				0.0010595321655273438,
				0.003778026904910803
			],
			"min":[
				-0.003067687153816223,
				-0.0036498308181762695,
				-0.002200331538915634
			],
			"type":"VEC3"
		},
		{
			"bufferView":299,
			"componentType":5126,
			"count":6000,
			"type":"VEC3"
		},
		{
			"bufferView":300,
			"componentType":5126,
			"count":250,
			"max":[
				10.416666666666666
			],
			"min":[
				0.041666666666666664
			],
			"type":"SCALAR"
		},
		{
			"bufferView":301,
			"componentType":5126,
			"count":6250,
			"type":"SCALAR"
		}
	],
	"bufferViews":[
		{
			"buffer":0,
			"byteLength":270108,
			"byteOffset":0,
			"target":34962
		},
		{
			"buffer":0,
			"byteLength":270108,
			"byteOffset":270108,
			"target":34962
		},
		{
			"buffer":0,
			"byteLength":180072,
			"byteOffset":540216,
			"target":34962
		},
		{
			"buffer":0,
			"byteLength":45018,
			"byteOffset":720288,
			"target":34963
		},
		{
			"buffer":0,
			"byteLength":270108,
			"byteOffset":765308,
			"target":34962
		},
		{
			"buffer":0,
			"byteLength":270108,
			"byteOffset":1035416,
			"target":34962
		},
		{
			"buffer":0,
			"byteLength":270108,
			"byteOffset":1305524,
			"target":34962
		},
		{
			"buffer":0,
			"byteLength":270108,
			"byteOffset":1575632,
			"target":34962
		},
		{
			"buffer":0,
			"byteLength":270108,
			"byteOffset":1845740,
			"target":34962
		},
		{
			"buffer":0,
			"byteLength":270108,
			"byteOffset":2115848,
			"target":34962
		},
		{
			"buffer":0,
			"byteLength":270108,
			"byteOffset":2385956,
			"target":34962
		},
		{
			"buffer":0,
			"byteLength":270108,
			"byteOffset":2656064,
			"target":34962
		},
		{
			"buffer":0,
			"byteLength":270108,
			"byteOffset":2926172,
			"target":34962
		},
		{
			"buffer":0,
			"byteLength":270108,
			"byteOffset":3196280,
			"target":34962
		},
		{
			"buffer":0,
			"byteLength":270108,
			"byteOffset":3466388,
			"target":34962
		},
		{
			"buffer":0,
			"byteLength":270108,
			"byteOffset":3736496,
			"target":34962
		},
		{
			"buffer":0,
			"byteLength":270108,
			"byteOffset":4006604,
			"target":34962
		},
		{
			"buffer":0,
			"byteLength":270108,
			"byteOffset":4276712,
			"target":34962
		},
		{
			"buffer":0,
			"byteLength":270108,
			"byteOffset":4546820,
			"target":34962
		},
		{
			"buffer":0,
			"byteLength":270108,
			"byteOffset":4816928,
			"target":34962
		},
		{
			"buffer":0,
			"byteLength":270108,
			"byteOffset":5087036,
			"target":34962
		},
		{
			"buffer":0,
			"byteLength":270108,
			"byteOffset":5357144,
			"target":34962
		},
		{
			"buffer":0,
			"byteLength":270108,
			"byteOffset":5627252,
			"target":34962
		},
		{
			"buffer":0,
			"byteLength":270108,
			"byteOffset":5897360,
			"target":34962
		},
		{
			"buffer":0,
			"byteLength":270108,
			"byteOffset":6167468,
			"target":34962
		},
		{
			"buffer":0,
			"byteLength":270108,
			"byteOffset":6437576,
			"target":34962
		},
		{
			"buffer":0,
			"byteLength":270108,
			"byteOffset":6707684,
			"target":34962
		},
		{
			"buffer":0,
			"byteLength":270108,
			"byteOffset":6977792,
			"target":34962
		},
		{
			"buffer":0,
			"byteLength":270108,
			"byteOffset":7247900,
			"target":34962
		},
		{
			"buffer":0,
			"byteLength":270108,
			"byteOffset":7518008,
			"target":34962
		},
		{
			"buffer":0,
			"byteLength":270108,
			"byteOffset":7788116,
			"target":34962
		},
		{
			"buffer":0,
			"byteLength":270108,
			"byteOffset":8058224,
			"target":34962
		},
		{
			"buffer":0,
			"byteLength":270108,
			"byteOffset":8328332,
			"target":34962
		},
		{
			"buffer":0,
			"byteLength":270108,
			"byteOffset":8598440,
			"target":34962
		},
		{
			"buffer":0,
			"byteLength":270108,
			"byteOffset":8868548,
			"target":34962
		},
		{
			"buffer":0,
			"byteLength":270108,
			"byteOffset":9138656,
			"target":34962
		},
		{
			"buffer":0,
			"byteLength":270108,
			"byteOffset":9408764,
			"target":34962
		},
		{
			"buffer":0,
			"byteLength":270108,
			"byteOffset":9678872,
			"target":34962
		},
		{
			"buffer":0,
			"byteLength":270108,
			"byteOffset":9948980,
			"target":34962
		},
		{
			"buffer":0,
			"byteLength":270108,
			"byteOffset":10219088,
			"target":34962
		},
		{
			"buffer":0,
			"byteLength":270108,
			"byteOffset":10489196,
			"target":34962
		},
		{
			"buffer":0,
			"byteLength":270108,
			"byteOffset":10759304,
			"target":34962
		},
		{
			"buffer":0,
			"byteLength":270108,
			"byteOffset":11029412,
			"target":34962
		},
		{
			"buffer":0,
			"byteLength":270108,
			"byteOffset":11299520,
			"target":34962
		},
		{
			"buffer":0,
			"byteLength":270108,
			"byteOffset":11569628,
			"target":34962
		},
		{
			"buffer":0,
			"byteLength":270108,
			"byteOffset":11839736,
			"target":34962
		},
		{
			"buffer":0,
			"byteLength":270108,
			"byteOffset":12109844,
			"target":34962
		},
		{
			"buffer":0,
			"byteLength":270108,
			"byteOffset":12379952,
			"target":34962
		},
		{
			"buffer":0,
			"byteLength":270108,
			"byteOffset":12650060,
			"target":34962
		},
		{
			"buffer":0,
			"byteLength":270108,
			"byteOffset":12920168,
			"target":34962
		},
		{
			"buffer":0,
			"byteLength":270108,
			"byteOffset":13190276,
			"target":34962
		},
		{
			"buffer":0,
			"byteLength":270108,
			"byteOffset":13460384,
			"target":34962
		},
		{
			"buffer":0,
			"byteLength":270108,
			"byteOffset":13730492,
			"target":34962
		},
		{
			"buffer":0,
			"byteLength":270108,
			"byteOffset":14000600,
			"target":34962
		},
		{
			"buffer":0,
			"byteLength":18048,
			"byteOffset":14270708,
			"target":34962
		},
		{
			"buffer":0,
			"byteLength":18048,
			"byteOffset":14288756,
			"target":34962
		},
		{
			"buffer":0,
			"byteLength":12032,
			"byteOffset":14306804,
			"target":34962
		},
		{
			"buffer":0,
			"byteLength":17664,
			"byteOffset":14318836,
			"target":34963
		},
		{
			"buffer":0,
			"byteLength":18048,
			"byteOffset":14336500,
			"target":34962
		},
		{
			"buffer":0,
			"byteLength":18048,
			"byteOffset":14354548,
			"target":34962
		},
		{
			"buffer":0,
			"byteLength":18048,
			"byteOffset":14372596,
			"target":34962
		},
		{
			"buffer":0,
			"byteLength":18048,
			"byteOffset":14390644,
			"target":34962
		},
		{
			"buffer":0,
			"byteLength":18048,
			"byteOffset":14408692,
			"target":34962
		},
		{
			"buffer":0,
			"byteLength":18048,
			"byteOffset":14426740,
			"target":34962
		},
		{
			"buffer":0,
			"byteLength":18048,
			"byteOffset":14444788,
			"target":34962
		},
		{
			"buffer":0,
			"byteLength":18048,
			"byteOffset":14462836,
			"target":34962
		},
		{
			"buffer":0,
			"byteLength":18048,
			"byteOffset":14480884,
			"target":34962
		},
		{
			"buffer":0,
			"byteLength":18048,
			"byteOffset":14498932,
			"target":34962
		},
		{
			"buffer":0,
			"byteLength":18048,
			"byteOffset":14516980,
			"target":34962
		},
		{
			"buffer":0,
			"byteLength":18048,
			"byteOffset":14535028,
			"target":34962
		},
		{
			"buffer":0,
			"byteLength":18048,
			"byteOffset":14553076,
			"target":34962
		},
		{
			"buffer":0,
			"byteLength":18048,
			"byteOffset":14571124,
			"target":34962
		},
		{
			"buffer":0,
			"byteLength":18048,
			"byteOffset":14589172,
			"target":34962
		},
		{
			"buffer":0,
			"byteLength":18048,
			"byteOffset":14607220,
			"target":34962
		},
		{
			"buffer":0,
			"byteLength":18048,
			"byteOffset":14625268,
			"target":34962
		},
		{
			"buffer":0,
			"byteLength":18048,
			"byteOffset":14643316,
			"target":34962
		},
		{
			"buffer":0,
			"byteLength":18048,
			"byteOffset":14661364,
			"target":34962
		},
		{
			"buffer":0,
			"byteLength":18048,
			"byteOffset":14679412,
			"target":34962
		},
		{
			"buffer":0,
			"byteLength":18048,
			"byteOffset":14697460,
			"target":34962
		},
		{
			"buffer":0,
			"byteLength":18048,
			"byteOffset":14715508,
			"target":34962
		},
		{
			"buffer":0,
			"byteLength":18048,
			"byteOffset":14733556,
			"target":34962
		},
		{
			"buffer":0,
			"byteLength":18048,
			"byteOffset":14751604,
			"target":34962
		},
		{
			"buffer":0,
			"byteLength":18048,
			"byteOffset":14769652,
			"target":34962
		},
		{
			"buffer":0,
			"byteLength":18048,
			"byteOffset":14787700,
			"target":34962
		},
		{
			"buffer":0,
			"byteLength":18048,
			"byteOffset":14805748,
			"target":34962
		},
		{
			"buffer":0,
			"byteLength":18048,
			"byteOffset":14823796,
			"target":34962
		},
		{
			"buffer":0,
			"byteLength":18048,
			"byteOffset":14841844,
			"target":34962
		},
		{
			"buffer":0,
			"byteLength":18048,
			"byteOffset":14859892,
			"target":34962
		},
		{
			"buffer":0,
			"byteLength":18048,
			"byteOffset":14877940,
			"target":34962
		},
		{
			"buffer":0,
			"byteLength":18048,
			"byteOffset":14895988,
			"target":34962
		},
		{
			"buffer":0,
			"byteLength":18048,
			"byteOffset":14914036,
			"target":34962
		},
		{
			"buffer":0,
			"byteLength":18048,
			"byteOffset":14932084,
			"target":34962
		},
		{
			"buffer":0,
			"byteLength":18048,
			"byteOffset":14950132,
			"target":34962
		},
		{
			"buffer":0,
			"byteLength":18048,
			"byteOffset":14968180,
			"target":34962
		},
		{
			"buffer":0,
			"byteLength":18048,
			"byteOffset":14986228,
			"target":34962
		},
		{
			"buffer":0,
			"byteLength":18048,
			"byteOffset":15004276,
			"target":34962
		},
		{
			"buffer":0,
			"byteLength":18048,
			"byteOffset":15022324,
			"target":34962
		},
		{
			"buffer":0,
			"byteLength":18048,
			"byteOffset":15040372,
			"target":34962
		},
		{
			"buffer":0,
			"byteLength":18048,
			"byteOffset":15058420,
			"target":34962
		},
		{
			"buffer":0,
			"byteLength":18048,
			"byteOffset":15076468,
			"target":34962
		},
		{
			"buffer":0,
			"byteLength":18048,
			"byteOffset":15094516,
			"target":34962
		},
		{
			"buffer":0,
			"byteLength":18048,
			"byteOffset":15112564,
			"target":34962
		},
		{
			"buffer":0,
			"byteLength":18048,
			"byteOffset":15130612,
			"target":34962
		},
		{
			"buffer":0,
			"byteLength":18048,
			"byteOffset":15148660,
			"target":34962
		},
		{
			"buffer":0,
			"byteLength":18048,
			"byteOffset":15166708,
			"target":34962
		},
		{
			"buffer":0,
			"byteLength":18048,
			"byteOffset":15184756,
			"target":34962
		},
		{
			"buffer":0,
			"byteLength":18048,
			"byteOffset":15202804,
			"target":34962
		},
		{
			"buffer":0,
			"byteLength":18048,
			"byteOffset":15220852,
			"target":34962
		},
		{
			"buffer":0,
			"byteLength":58896,
			"byteOffset":15238900,
			"target":34962
		},
		{
			"buffer":0,
			"byteLength":58896,
			"byteOffset":15297796,
			"target":34962
		},
		{
			"buffer":0,
			"byteLength":39264,
			"byteOffset":15356692,
			"target":34962
		},
		{
			"buffer":0,
			"byteLength":9816,
			"byteOffset":15395956,
			"target":34963
		},
		{
			"buffer":0,
			"byteLength":58896,
			"byteOffset":15405772,
			"target":34962
		},
		{
			"buffer":0,
			"byteLength":1,
			"byteOffset":15464668
		},
		{
			"buffer":0,
			"byteLength":12,
			"byteOffset":15464672
		},
		{
			"buffer":0,
			"byteLength":58896,
			"byteOffset":15464684,
			"target":34962
		},
		{
			"buffer":0,
			"byteLength":1,
			"byteOffset":15523580
		},
		{
			"buffer":0,
			"byteLength":12,
			"byteOffset":15523584
		},
		{
			"buffer":0,
			"byteLength":58896,
			"byteOffset":15523596,
			"target":34962
		},
		{
			"buffer":0,
			"byteLength":1,
			"byteOffset":15582492
		},
		{
			"buffer":0,
			"byteLength":12,
			"byteOffset":15582496
		},
		{
			"buffer":0,
			"byteLength":58896,
			"byteOffset":15582508,
			"target":34962
		},
		{
			"buffer":0,
			"byteLength":1,
			"byteOffset":15641404
		},
		{
			"buffer":0,
			"byteLength":12,
			"byteOffset":15641408
		},
		{
			"buffer":0,
			"byteLength":58896,
			"byteOffset":15641420,
			"target":34962
		},
		{
			"buffer":0,
			"byteLength":1,
			"byteOffset":15700316
		},
		{
			"buffer":0,
			"byteLength":12,
			"byteOffset":15700320
		},
		{
			"buffer":0,
			"byteLength":58896,
			"byteOffset":15700332,
			"target":34962
		},
		{
			"buffer":0,
			"byteLength":1,
			"byteOffset":15759228
		},
		{
			"buffer":0,
			"byteLength":12,
			"byteOffset":15759232
		},
		{
			"buffer":0,
			"byteLength":58896,
			"byteOffset":15759244,
			"target":34962
		},
		{
			"buffer":0,
			"byteLength":1,
			"byteOffset":15818140
		},
		{
			"buffer":0,
			"byteLength":12,
			"byteOffset":15818144
		},
		{
			"buffer":0,
			"byteLength":58896,
			"byteOffset":15818156,
			"target":34962
		},
		{
			"buffer":0,
			"byteLength":1,
			"byteOffset":15877052
		},
		{
			"buffer":0,
			"byteLength":12,
			"byteOffset":15877056
		},
		{
			"buffer":0,
			"byteLength":58896,
			"byteOffset":15877068,
			"target":34962
		},
		{
			"buffer":0,
			"byteLength":1,
			"byteOffset":15935964
		},
		{
			"buffer":0,
			"byteLength":12,
			"byteOffset":15935968
		},
		{
			"buffer":0,
			"byteLength":58896,
			"byteOffset":15935980,
			"target":34962
		},
		{
			"buffer":0,
			"byteLength":1,
			"byteOffset":15994876
		},
		{
			"buffer":0,
			"byteLength":12,
			"byteOffset":15994880
		},
		{
			"buffer":0,
			"byteLength":58896,
			"byteOffset":15994892,
			"target":34962
		},
		{
			"buffer":0,
			"byteLength":58896,
			"byteOffset":16053788,
			"target":34962
		},
		{
			"buffer":0,
			"byteLength":58896,
			"byteOffset":16112684,
			"target":34962
		},
		{
			"buffer":0,
			"byteLength":58896,
			"byteOffset":16171580,
			"target":34962
		},
		{
			"buffer":0,
			"byteLength":58896,
			"byteOffset":16230476,
			"target":34962
		},
		{
			"buffer":0,
			"byteLength":58896,
			"byteOffset":16289372,
			"target":34962
		},
		{
			"buffer":0,
			"byteLength":58896,
			"byteOffset":16348268,
			"target":34962
		},
		{
			"buffer":0,
			"byteLength":58896,
			"byteOffset":16407164,
			"target":34962
		},
		{
			"buffer":0,
			"byteLength":58896,
			"byteOffset":16466060,
			"target":34962
		},
		{
			"buffer":0,
			"byteLength":58896,
			"byteOffset":16524956,
			"target":34962
		},
		{
			"buffer":0,
			"byteLength":58896,
			"byteOffset":16583852,
			"target":34962
		},
		{
			"buffer":0,
			"byteLength":58896,
			"byteOffset":16642748,
			"target":34962
		},
		{
			"buffer":0,
			"byteLength":58896,
			"byteOffset":16701644,
			"target":34962
		},
		{
			"buffer":0,
			"byteLength":58896,
			"byteOffset":16760540,
			"target":34962
		},
		{
			"buffer":0,
			"byteLength":58896,
			"byteOffset":16819436,
			"target":34962
		},
		{
			"buffer":0,
			"byteLength":58896,
			"byteOffset":16878332,
			"target":34962
		},
		{
			"buffer":0,
			"byteLength":58896,
			"byteOffset":16937228,
			"target":34962
		},
		{
			"buffer":0,
			"byteLength":58896,
			"byteOffset":16996124,
			"target":34962
		},
		{
			"buffer":0,
			"byteLength":58896,
			"byteOffset":17055020,
			"target":34962
		},
		{
			"buffer":0,
			"byteLength":58896,
			"byteOffset":17113916,
			"target":34962
		},
		{
			"buffer":0,
			"byteLength":58896,
			"byteOffset":17172812,
			"target":34962
		},
		{
			"buffer":0,
			"byteLength":58896,
			"byteOffset":17231708,
			"target":34962
		},
		{
			"buffer":0,
			"byteLength":58896,
			"byteOffset":17290604,
			"target":34962
		},
		{
			"buffer":0,
			"byteLength":58896,
			"byteOffset":17349500,
			"target":34962
		},
		{
			"buffer":0,
			"byteLength":58896,
			"byteOffset":17408396,
			"target":34962
		},
		{
			"buffer":0,
			"byteLength":58896,
			"byteOffset":17467292,
			"target":34962
		},
		{
			"buffer":0,
			"byteLength":58896,
			"byteOffset":17526188,
			"target":34962
		},
		{
			"buffer":0,
			"byteLength":58896,
			"byteOffset":17585084,
			"target":34962
		},
		{
			"buffer":0,
			"byteLength":58896,
			"byteOffset":17643980,
			"target":34962
		},
		{
			"buffer":0,
			"byteLength":58896,
			"byteOffset":17702876,
			"target":34962
		},
		{
			"buffer":0,
			"byteLength":56160,
			"byteOffset":17761772,
			"target":34962
		},
		{
			"buffer":0,
			"byteLength":56160,
			"byteOffset":17817932,
			"target":34962
		},
		{
			"buffer":0,
			"byteLength":37440,
			"byteOffset":17874092,
			"target":34962
		},
		{
			"buffer":0,
			"byteLength":9360,
			"byteOffset":17911532,
			"target":34963
		},
		{
			"buffer":0,
			"byteLength":56160,
			"byteOffset":17920892,
			"target":34962
		},
		{
			"buffer":0,
			"byteLength":1,
			"byteOffset":17977052
		},
		{
			"buffer":0,
			"byteLength":12,
			"byteOffset":17977056
		},
		{
			"buffer":0,
			"byteLength":56160,
			"byteOffset":17977068,
			"target":34962
		},
		{
			"buffer":0,
			"byteLength":1,
			"byteOffset":18033228
		},
		{
			"buffer":0,
			"byteLength":12,
			"byteOffset":18033232
		},
		{
			"buffer":0,
			"byteLength":56160,
			"byteOffset":18033244,
			"target":34962
		},
		{
			"buffer":0,
			"byteLength":1,
			"byteOffset":18089404
		},
		{
			"buffer":0,
			"byteLength":12,
			"byteOffset":18089408
		},
		{
			"buffer":0,
			"byteLength":56160,
			"byteOffset":18089420,
			"target":34962
		},
		{
			"buffer":0,
			"byteLength":1,
			"byteOffset":18145580
		},
		{
			"buffer":0,
			"byteLength":12,
			"byteOffset":18145584
		},
		{
			"buffer":0,
			"byteLength":56160,
			"byteOffset":18145596,
			"target":34962
		},
		{
			"buffer":0,
			"byteLength":1,
			"byteOffset":18201756
		},
		{
			"buffer":0,
			"byteLength":12,
			"byteOffset":18201760
		},
		{
			"buffer":0,
			"byteLength":56160,
			"byteOffset":18201772,
			"target":34962
		},
		{
			"buffer":0,
			"byteLength":1,
			"byteOffset":18257932
		},
		{
			"buffer":0,
			"byteLength":12,
			"byteOffset":18257936
		},
		{
			"buffer":0,
			"byteLength":56160,
			"byteOffset":18257948,
			"target":34962
		},
		{
			"buffer":0,
			"byteLength":1,
			"byteOffset":18314108
		},
		{
			"buffer":0,
			"byteLength":12,
			"byteOffset":18314112
		},
		{
			"buffer":0,
			"byteLength":56160,
			"byteOffset":18314124,
			"target":34962
		},
		{
			"buffer":0,
			"byteLength":1,
			"byteOffset":18370284
		},
		{
			"buffer":0,
			"byteLength":12,
			"byteOffset":18370288
		},
		{
			"buffer":0,
			"byteLength":56160,
			"byteOffset":18370300,
			"target":34962
		},
		{
			"buffer":0,
			"byteLength":1,
			"byteOffset":18426460
		},
		{
			"buffer":0,
			"byteLength":12,
			"byteOffset":18426464
		},
		{
			"buffer":0,
			"byteLength":56160,
			"byteOffset":18426476,
			"target":34962
		},
		{
			"buffer":0,
			"byteLength":1,
			"byteOffset":18482636
		},
		{
			"buffer":0,
			"byteLength":12,
			"byteOffset":18482640
		},
		{
			"buffer":0,
			"byteLength":56160,
			"byteOffset":18482652,
			"target":34962
		},
		{
			"buffer":0,
			"byteLength":56160,
			"byteOffset":18538812,
			"target":34962
		},
		{
			"buffer":0,
			"byteLength":56160,
			"byteOffset":18594972,
			"target":34962
		},
		{
			"buffer":0,
			"byteLength":56160,
			"byteOffset":18651132,
			"target":34962
		},
		{
			"buffer":0,
			"byteLength":56160,
			"byteOffset":18707292,
			"target":34962
		},
		{
			"buffer":0,
			"byteLength":56160,
			"byteOffset":18763452,
			"target":34962
		},
		{
			"buffer":0,
			"byteLength":56160,
			"byteOffset":18819612,
			"target":34962
		},
		{
			"buffer":0,
			"byteLength":56160,
			"byteOffset":18875772,
			"target":34962
		},
		{
			"buffer":0,
			"byteLength":56160,
			"byteOffset":18931932,
			"target":34962
		},
		{
			"buffer":0,
			"byteLength":56160,
			"byteOffset":18988092,
			"target":34962
		},
		{
			"buffer":0,
			"byteLength":56160,
			"byteOffset":19044252,
			"target":34962
		},
		{
			"buffer":0,
			"byteLength":56160,
			"byteOffset":19100412,
			"target":34962
		},
		{
			"buffer":0,
			"byteLength":56160,
			"byteOffset":19156572,
			"target":34962
		},
		{
			"buffer":0,
			"byteLength":56160,
			"byteOffset":19212732,
			"target":34962
		},
		{
			"buffer":0,
			"byteLength":56160,
			"byteOffset":19268892,
			"target":34962
		},
		{
			"buffer":0,
			"byteLength":56160,
			"byteOffset":19325052,
			"target":34962
		},
		{
			"buffer":0,
			"byteLength":56160,
			"byteOffset":19381212,
			"target":34962
		},
		{
			"buffer":0,
			"byteLength":56160,
			"byteOffset":19437372,
			"target":34962
		},
		{
			"buffer":0,
			"byteLength":56160,
			"byteOffset":19493532,
			"target":34962
		},
		{
			"buffer":0,
			"byteLength":56160,
			"byteOffset":19549692,
			"target":34962
		},
		{
			"buffer":0,
			"byteLength":56160,
			"byteOffset":19605852,
			"target":34962
		},
		{
			"buffer":0,
			"byteLength":56160,
			"byteOffset":19662012,
			"target":34962
		},
		{
			"buffer":0,
			"byteLength":56160,
			"byteOffset":19718172,
			"target":34962
		},
		{
			"buffer":0,
			"byteLength":56160,
			"byteOffset":19774332,
			"target":34962
		},
		{
			"buffer":0,
			"byteLength":56160,
			"byteOffset":19830492,
			"target":34962
		},
		{
			"buffer":0,
			"byteLength":56160,
			"byteOffset":19886652,
			"target":34962
		},
		{
			"buffer":0,
			"byteLength":56160,
			"byteOffset":19942812,
			"target":34962
		},
		{
			"buffer":0,
			"byteLength":56160,
			"byteOffset":19998972,
			"target":34962
		},
		{
			"buffer":0,
			"byteLength":56160,
			"byteOffset":20055132,
			"target":34962
		},
		{
			"buffer":0,
			"byteLength":56160,
			"byteOffset":20111292,
			"target":34962
		},
		{
			"buffer":0,
			"byteLength":72000,
			"byteOffset":20167452,
			"target":34962
		},
		{
			"buffer":0,
			"byteLength":72000,
			"byteOffset":20239452,
			"target":34962
		},
		{
			"buffer":0,
			"byteLength":48000,
			"byteOffset":20311452,
			"target":34962
		},
		{
			"buffer":0,
			"byteLength":60000,
			"byteOffset":20359452,
			"target":34963
		},
		{
			"buffer":0,
			"byteLength":72000,
			"byteOffset":20419452,
			"target":34962
		},
		{
			"buffer":0,
			"byteLength":1,
			"byteOffset":20491452
		},
		{
			"buffer":0,
			"byteLength":12,
			"byteOffset":20491456
		},
		{
			"buffer":0,
			"byteLength":72000,
			"byteOffset":20491468,
			"target":34962
		},
		{
			"buffer":0,
			"byteLength":1,
			"byteOffset":20563468
		},
		{
			"buffer":0,
			"byteLength":12,
			"byteOffset":20563472
		},
		{
			"buffer":0,
			"byteLength":72000,
			"byteOffset":20563484,
			"target":34962
		},
		{
			"buffer":0,
			"byteLength":1,
			"byteOffset":20635484
		},
		{
			"buffer":0,
			"byteLength":12,
			"byteOffset":20635488
		},
		{
			"buffer":0,
			"byteLength":72000,
			"byteOffset":20635500,
			"target":34962
		},
		{
			"buffer":0,
			"byteLength":1,
			"byteOffset":20707500
		},
		{
			"buffer":0,
			"byteLength":12,
			"byteOffset":20707504
		},
		{
			"buffer":0,
			"byteLength":72000,
			"byteOffset":20707516,
			"target":34962
		},
		{
			"buffer":0,
			"byteLength":1,
			"byteOffset":20779516
		},
		{
			"buffer":0,
			"byteLength":12,
			"byteOffset":20779520
		},
		{
			"buffer":0,
			"byteLength":72000,
			"byteOffset":20779532,
			"target":34962
		},
		{
			"buffer":0,
			"byteLength":1,
			"byteOffset":20851532
		},
		{
			"buffer":0,
			"byteLength":12,
			"byteOffset":20851536
		},
		{
			"buffer":0,
			"byteLength":72000,
			"byteOffset":20851548,
			"target":34962
		},
		{
			"buffer":0,
			"byteLength":1,
			"byteOffset":20923548
		},
		{
			"buffer":0,
			"byteLength":12,
			"byteOffset":20923552
		},
		{
			"buffer":0,
			"byteLength":72000,
			"byteOffset":20923564,
			"target":34962
		},
		{
			"buffer":0,
			"byteLength":1,
			"byteOffset":20995564
		},
		{
			"buffer":0,
			"byteLength":12,
			"byteOffset":20995568
		},
		{
			"buffer":0,
			"byteLength":72000,
			"byteOffset":20995580,
			"target":34962
		},
		{
			"buffer":0,
			"byteLength":1,
			"byteOffset":21067580
		},
		{
			"buffer":0,
			"byteLength":12,
			"byteOffset":21067584
		},
		{
			"buffer":0,
			"byteLength":72000,
			"byteOffset":21067596,
			"target":34962
		},
		{
			"buffer":0,
			"byteLength":1,
			"byteOffset":21139596
		},
		{
			"buffer":0,
			"byteLength":12,
			"byteOffset":21139600
		},
		{
			"buffer":0,
			"byteLength":72000,
			"byteOffset":21139612,
			"target":34962
		},
		{
			"buffer":0,
			"byteLength":72000,
			"byteOffset":21211612,
			"target":34962
		},
		{
			"buffer":0,
			"byteLength":72000,
			"byteOffset":21283612,
			"target":34962
		},
		{
			"buffer":0,
			"byteLength":72000,
			"byteOffset":21355612,
			"target":34962
		},
		{
			"buffer":0,
			"byteLength":72000,
			"byteOffset":21427612,
			"target":34962
		},
		{
			"buffer":0,
			"byteLength":72000,
			"byteOffset":21499612,
			"target":34962
		},
		{
			"buffer":0,
			"byteLength":72000,
			"byteOffset":21571612,
			"target":34962
		},
		{
			"buffer":0,
			"byteLength":72000,
			"byteOffset":21643612,
			"target":34962
		},
		{
			"buffer":0,
			"byteLength":72000,
			"byteOffset":21715612,
			"target":34962
		},
		{
			"buffer":0,
			"byteLength":72000,
			"byteOffset":21787612,
			"target":34962
		},
		{
			"buffer":0,
			"byteLength":72000,
			"byteOffset":21859612,
			"target":34962
		},
		{
			"buffer":0,
			"byteLength":72000,
			"byteOffset":21931612,
			"target":34962
		},
		{
			"buffer":0,
			"byteLength":72000,
			"byteOffset":22003612,
			"target":34962
		},
		{
			"buffer":0,
			"byteLength":72000,
			"byteOffset":22075612,
			"target":34962
		},
		{
			"buffer":0,
			"byteLength":72000,
			"byteOffset":22147612,
			"target":34962
		},
		{
			"buffer":0,
			"byteLength":72000,
			"byteOffset":22219612,
			"target":34962
		},
		{
			"buffer":0,
			"byteLength":72000,
			"byteOffset":22291612,
			"target":34962
		},
		{
			"buffer":0,
			"byteLength":72000,
			"byteOffset":22363612,
			"target":34962
		},
		{
			"buffer":0,
			"byteLength":72000,
			"byteOffset":22435612,
			"target":34962
		},
		{
			"buffer":0,
			"byteLength":72000,
			"byteOffset":22507612,
			"target":34962
		},
		{
			"buffer":0,
			"byteLength":72000,
			"byteOffset":22579612,
			"target":34962
		},
		{
			"buffer":0,
			"byteLength":72000,
			"byteOffset":22651612,
			"target":34962
		},
		{
			"buffer":0,
			"byteLength":72000,
			"byteOffset":22723612,
			"target":34962
		},
		{
			"buffer":0,
			"byteLength":72000,
			"byteOffset":22795612,
			"target":34962
		},
		{
			"buffer":0,
			"byteLength":72000,
			"byteOffset":22867612,
			"target":34962
		},
		{
			"buffer":0,
			"byteLength":72000,
			"byteOffset":22939612,
			"target":34962
		},
		{
			"buffer":0,
			"byteLength":72000,
			"byteOffset":23011612,
			"target":34962
		},
		{
			"buffer":0,
			"byteLength":72000,
			"byteOffset":23083612,
			"target":34962
		},
		{
			"buffer":0,
			"byteLength":72000,
			"byteOffset":23155612,
			"target":34962
		},
		{
			"buffer":0,
			"byteLength":72000,
			"byteOffset":23227612,
			"target":34962
		},
		{
			"buffer":0,
			"byteLength":1000,
			"byteOffset":23299612
		},
		{
			"buffer":0,
			"byteLength":25000,
			"byteOffset":23300612
		}
	],
	"samplers":[
		{
			"magFilter":9729,
			"minFilter":9987
		},
		{
			"magFilter":9729,
			"minFilter":9987,
			"wrapS":33071,
			"wrapT":33071
		}
	],
	"buffers":[
		{
			"byteLength":23325612,
			"uri":"sunflower.bin"
		}
	]
}
