<svg xmlns="http://www.w3.org/2000/svg" viewBox="0 0 128 128" fill="none">
  <defs><linearGradient id="m" x1="20" y1="2" x2="108" y2="122" gradientUnits="userSpaceOnUse"><stop stop-color="#FFD2FF"/><stop offset=".28" stop-color="#DC69FF"/><stop offset=".63" stop-color="#8B43EA"/><stop offset="1" stop-color="#522887"/></linearGradient></defs>
  <circle cx="64" cy="56" r="43" stroke="#33134F" stroke-width="12"/><circle cx="64" cy="56" r="43" stroke="url(#m)" stroke-width="8"/>
  <path d="M39 21 32 2l21 12L64 0l11 14L96 2l-7 20-25 8-25-9Z" fill="url(#m)" stroke="#33134F" stroke-width="4" stroke-linejoin="round"/><path d="m64 6 7 8-7 8-7-8 7-8Z" fill="#FFD633"/>
  <path d="M32 68C15 68 4 77 2 92c12-2 20 1 29 8l13-17-12-15ZM96 68c17 0 28 9 30 24-12-2-20 1-29 8L84 83l12-15Z" fill="url(#m)" stroke="#33134F" stroke-width="4" stroke-linejoin="round"/>
  <path d="M29 95h70l8 10-14 5-5 15-24-12-24 12-5-15-14-5 8-10Z" fill="#33134F"/><path d="M35 97h58l7 7-11 4-4 11-21-10-21 10-4-11-11-4 7-7Z" fill="url(#m)"/>
  <circle cx="19" cy="60" r="3" fill="#FFD6FF"/><circle cx="109" cy="60" r="3" fill="#FFD6FF"/><circle cx="64" cy="2" r="2" fill="#FFF7C2"/>
</svg>
