{
  "accessors": [
    {
      "bufferView": 3,
      "componentType": 5126,
      "count": 2350,
      "max": [
        0.9424923062324524,
        0.8586254119873047,
        1.329331398010254
      ],
      "min": [
        -0.9424923062324524,
        -0.7658480405807495,
        -1.9984885454177856
      ],
      "type": "VEC3"
    },
    {
      "bufferView": 3,
      "byteOffset": 28200,
      "componentType": 5126,
      "count": 2350,
      "max": [
        1.0,
        0.9980500340461731,
        0.9353009462356567
      ],
      "min": [
        -1.0,
        -0.9990264773368835,
        -0.9895424842834473
      ],
      "type": "VEC3"
    },
    {
      "bufferView": 2,
      "componentType": 5126,
      "count": 2350,
      "max": [
        1.0,
        1.0
      ],
      "min": [
        0.029952678829431534,
        -4.5299530029296875e-06
      ],
      "type": "VEC2"
    },
    {
      "bufferView": 1,
      "componentType": 5125,
      "count": 2838,
      "type": "SCALAR"
    },
    {
      "bufferView": 3,
      "byteOffset": 56400,
      "componentType": 5126,
      "count": 628,
      "max": [
        0.3977375328540802,
        0.3212169110774994,
        -1.6246181726455688
      ],
      "min": [
        -0.3977375328540802,
        0.16560617089271545,
        -1.8493609428405762
      ],
      "type": "VEC3"
    },
    {
      "bufferView": 3,
      "byteOffset": 63936,
      "componentType": 5126,
      "count": 628,
      "max": [
        0.9830614328384399,
        0.9839242696762085,
        0.937244713306427
      ],
      "min": [
        -0.9830614328384399,
        -0.9839242696762085,
        -0.937268078327179
      ],
      "type": "VEC3"
    },
    {
      "bufferView": 2,
      "byteOffset": 18800,
      "componentType": 5126,
      "count": 628,
      "max": [
        1.0,
        0.9498649835586548
      ],
      "min": [
        0.0,
        0.0
      ],
      "type": "VEC2"
    },
    {
      "bufferView": 1,
      "byteOffset": 11352,
      "componentType": 5125,
      "count": 636,
      "type": "SCALAR"
    },
    {
      "bufferView": 3,
      "byteOffset": 71472,
      "componentType": 5126,
      "count": 1104,
      "max": [
        5.012259483337402,
        68.46366882324219,
        3.1348607540130615
      ],
      "min": [
        -5.012259483337402,
        -3.3504528999328613,
        -2.6904985904693604
      ],
      "type": "VEC3"
    },
    {
      "bufferView": 3,
      "byteOffset": 84720,
      "componentType": 5126,
      "count": 1104,
      "max": [
        0.9981464147567749,
        0.7782596349716187,
        0.9995035529136658
      ],
      "min": [
        -0.9981464147567749,
        -0.3180101811885834,
        -0.9987892508506775
      ],
      "type": "VEC3"
    },
    {
      "bufferView": 2,
      "byteOffset": 23824,
      "componentType": 5126,
      "count": 1104,
      "max": [
        1.0,
        1.1575485467910767
      ],
      "min": [
        0.0,
        0.0
      ],
      "type": "VEC2"
    },
    {
      "bufferView": 1,
      "byteOffset": 13896,
      "componentType": 5125,
      "count": 1344,
      "type": "SCALAR"
    },
    {
      "bufferView": 3,
      "byteOffset": 97968,
      "componentType": 5126,
      "count": 84,
      "max": [
        0.08643034845590591,
        0.0793345719575882,
        -1.1600432395935059
      ],
      "min": [
        -0.08605160564184189,
        -0.2638137638568878,
        -1.4847757816314697
      ],
      "type": "VEC3"
    },
    {
      "bufferView": 3,
      "byteOffset": 98976,
      "componentType": 5126,
      "count": 84,
      "max": [
        0.9275103807449341,
        0.5339969992637634,
        0.6069812178611755
      ],
      "min": [
        -0.9272452592849731,
        -0.9158111214637756,
        -0.9639635682106018
      ],
      "type": "VEC3"
    },
    {
      "bufferView": 2,
      "byteOffset": 32656,
      "componentType": 5126,
      "count": 84,
      "max": [
        0.5313505530357361,
        1.7881393432617188e-07
      ],
      "min": [
        0.5,
        0.0
      ],
      "type": "VEC2"
    },
    {
      "bufferView": 1,
      "byteOffset": 19272,
      "componentType": 5125,
      "count": 114,
      "type": "SCALAR"
    },
    {
      "bufferView": 3,
      "byteOffset": 99984,
      "componentType": 5126,
      "count": 2353,
      "max": [
        -0.34460222721099854,
        0.3830810785293579,
        1.0457149744033813
      ],
      "min": [
        -1.9974992275238037,
        -0.7526491284370422,
        -1.2473385334014893
      ],
      "type": "VEC3"
    },
    {
      "bufferView": 3,
      "byteOffset": 128220,
      "componentType": 5126,
      "count": 2353,
      "max": [
        0.5860413312911987,
        0.9996976256370544,
        0.9970125555992126
      ],
      "min": [
        -0.973158061504364,
        -0.9994728565216064,
        -0.9615691304206848
      ],
      "type": "VEC3"
    },
    {
      "bufferView": 2,
      "byteOffset": 33328,
      "componentType": 5126,
      "count": 2353,
      "max": [
        1.0,
        0.9280866384506226
      ],
      "min": [
        0.0,
        -1.1920928955078125e-07
      ],
      "type": "VEC2"
    },
    {
      "bufferView": 1,
      "byteOffset": 19728,
      "componentType": 5125,
      "count": 2739,
      "type": "SCALAR"
    },
    {
      "bufferView": 3,
      "byteOffset": 156456,
      "componentType": 5126,
      "count": 2353,
      "max": [
        1.9982473850250244,
        0.3830810785293579,
        1.0457149744033813
      ],
      "min": [
        0.34535035490989685,
        -0.7526491284370422,
        -1.2473385334014893
      ],
      "type": "VEC3"
    },
    {
      "bufferView": 3,
      "byteOffset": 184692,
      "componentType": 5126,
      "count": 2353,
      "max": [
        0.9596015810966492,
        0.9978137016296387,
        0.9742658138275146
      ],
      "min": [
        -0.9867151379585266,
        -0.9946756958961487,
        -0.9821246862411499
      ],
      "type": "VEC3"
    },
    {
      "bufferView": 2,
      "byteOffset": 52152,
      "componentType": 5126,
      "count": 2353,
      "max": [
        1.0,
        0.9280866384506226
      ],
      "min": [
        0.0,
        -1.1920928955078125e-07
      ],
      "type": "VEC2"
    },
    {
      "bufferView": 1,
      "byteOffset": 30684,
      "componentType": 5125,
      "count": 2739,
      "type": "SCALAR"
    },
    {
      "bufferView": 5,
      "componentType": 5126,
      "count": 4,
      "max": [
        5.596798419952393,
        0.0,
        2.5664560965279386e-16,
        0.0,
        0.0,
        1.0,
        0.0,
        0.0,
        6.484472374408321e-16,
        4.9359941482543945,
        1.0,
        0.0,
        9.085345272467774e-16,
        6.659152984619141,
        0.0,
        1.0
      ],
      "min": [
        1.0,
        -5.988990922791261e-16,
        0.0,
        0.0,
        -6.374360341196528e-17,
        -5.335339069366455,
        -4.9359941482543945,
        0.0,
        0.0,
        0.0,
        -5.335339069366455,
        0.0,
        0.0,
        0.0,
        -7.771509170532227,
        1.0
      ],
      "type": "MAT4"
    },
    {
      "bufferView": 5,
      "byteOffset": 256,
      "componentType": 5126,
      "count": 26,
      "max": [
        1.8379621505737305,
        4.589990139007568,
        4.542622089385986,
        0.0,
        1.9492398500442505,
        1.2036035060882568,
        1.8251357078552246,
        0.0,
        2.5930986404418945,
        2.437633514404297,
        2.5354647636413574,
        0.0,
        5.141897678375244,
        0.24053949117660522,
        3.027574062347412,
        1.0
      ],
      "min": [
        -4.448210716247559,
        -4.59622859954834,
        -4.113535404205322,
        0.0,
        -2.0739352703094482,
        -1.9092762470245361,
        -1.8980962038040161,
        0.0,
        -1.0221971273422241,
        -2.117464542388916,
        -2.467532157897949,
        0.0,
        -4.004187107086182,
        -9.733560562133789,
        -3.748814582824707,
        1.0
      ],
      "type": "MAT4"
    },
    {
      "bufferView": 0,
      "componentType": 5123,
      "count": 84,
      "type": "VEC4"
    },
    {
      "bufferView": 4,
      "componentType": 5126,
      "count": 84,
      "max": [
        1.0,
        0.16571655869483948,
        0.0,
        0.0
      ],
      "min": [
        0.8342834115028381,
        0.0,
        0.0,
        0.0
      ],
      "type": "VEC4"
    },
    {
      "bufferView": 0,
      "byteOffset": 672,
      "componentType": 5123,
      "count": 2353,
      "type": "VEC4"
    },
    {
      "bufferView": 4,
      "byteOffset": 1344,
      "componentType": 5126,
      "count": 2353,
      "max": [
        1.0,
        0.4919198155403137,
        0.0,
        0.0
      ],
      "min": [
        0.508080244064331,
        0.0,
        0.0,
        0.0
      ],
      "type": "VEC4"
    },
    {
      "bufferView": 0,
      "byteOffset": 19496,
      "componentType": 5123,
      "count": 2353,
      "type": "VEC4"
    },
    {
      "bufferView": 4,
      "byteOffset": 38992,
      "componentType": 5126,
      "count": 2353,
      "max": [
        1.0,
        0.5,
        0.019376207143068314,
        0.0
      ],
      "min": [
        0.4903118908405304,
        0.0,
        0.0,
        0.0
      ],
      "type": "VEC4"
    }
  ],
  "asset": {
    "extras": {
      "author": "CMoth (https://sketchfab.com/CMoth)",
      "license": "CC-BY-4.0 (http://creativecommons.org/licenses/by/4.0/)",
      "source": "https://sketchfab.com/3d-models/green-peach-aphid-first-model-7965851eaaab44af9db80d1713859d54",
      "title": "Green Peach Aphid - First Model"
    },
    "generator": "Sketchfab-16.10.0",
    "version": "2.0"
  },
  "bufferViews": [
    {
      "buffer": 0,
      "byteLength": 38320,
      "byteStride": 8,
      "name": "shortBufferViews",
      "target": 34962
    },
    {
      "buffer": 0,
      "byteLength": 41640,
      "byteOffset": 38320,
      "name": "floatBufferViews",
      "target": 34963
    },
    {
      "buffer": 0,
      "byteLength": 70976,
      "byteOffset": 79960,
      "byteStride": 8,
      "name": "floatBufferViews",
      "target": 34962
    },
    {
      "buffer": 0,
      "byteLength": 212928,
      "byteOffset": 150936,
      "byteStride": 12,
      "name": "floatBufferViews",
      "target": 34962
    },
    {
      "buffer": 0,
      "byteLength": 76640,
      "byteOffset": 363864,
      "byteStride": 16,
      "name": "floatBufferViews",
      "target": 34962
    },
    {
      "buffer": 0,
      "byteLength": 1920,
      "byteOffset": 440504,
      "name": "floatBufferViews"
    }
  ],
  "buffers": [
    {
      "byteLength": 442424,
      "uri": "aphid.bin"
    }
  ],
  "materials": [
    {
      "doubleSided": true,
      "name": "Material.005",
      "pbrMetallicRoughness": {
        "baseColorFactor": [
          0.6444796819705819,
          1.0,
          0.14412847085805763,
          1.0
        ],
        "roughnessFactor": 0.7
      }
    },
    {
      "doubleSided": true,
      "name": "Material.002",
      "pbrMetallicRoughness": {
        "baseColorFactor": [
          0.0,
          0.0,
          0.0,
          1.0
        ],
        "metallicFactor": 0.444,
        "roughnessFactor": 0.5
      }
    },
    {
      "doubleSided": true,
      "name": "Material.004",
      "pbrMetallicRoughness": {
        "baseColorFactor": [
          0.6456412035361802,
          1.0,
          0.14412847085805752,
          1.0
        ],
        "roughnessFactor": 0.7
      }
    },
    {
      "doubleSided": true,
      "name": "Material.003",
      "pbrMetallicRoughness": {
        "baseColorFactor": [
          0.6444796819705819,
          1.0,
          0.14412847085805763,
          1.0
        ],
        "roughnessFactor": 0.7
      }
    }
  ],
  "meshes": [
    {
      "name": "Object_0",
      "primitives": [
        {
          "attributes": {
            "NORMAL": 1,
            "POSITION": 0,
            "TEXCOORD_0": 2
          },
          "indices": 3,
          "material": 0,
          "mode": 4
        }
      ]
    },
    {
      "name": "Object_1",
      "primitives": [
        {
          "attributes": {
            "NORMAL": 5,
            "POSITION": 4,
            "TEXCOORD_0": 6
          },
          "indices": 7,
          "material": 1,
          "mode": 4
        }
      ]
    },
    {
      "name": "Object_2",
      "primitives": [
        {
          "attributes": {
            "NORMAL": 9,
            "POSITION": 8,
            "TEXCOORD_0": 10
          },
          "indices": 11,
          "material": 2,
          "mode": 4
        }
      ]
    },
    {
      "name": "Object_3",
      "primitives": [
        {
          "attributes": {
            "JOINTS_0": 26,
            "NORMAL": 13,
            "POSITION": 12,
            "TEXCOORD_0": 14,
            "WEIGHTS_0": 27
          },
          "indices": 15,
          "material": 3,
          "mode": 4
        }
      ]
    },
    {
      "name": "Object_4",
      "primitives": [
        {
          "attributes": {
            "JOINTS_0": 28,
            "NORMAL": 17,
            "POSITION": 16,
            "TEXCOORD_0": 18,
            "WEIGHTS_0": 29
          },
          "indices": 19,
          "material": 0,
          "mode": 4
        }
      ]
    },
    {
      "name": "Object_5",
      "primitives": [
        {
          "attributes": {
            "JOINTS_0": 30,
            "NORMAL": 21,
            "POSITION": 20,
            "TEXCOORD_0": 22,
            "WEIGHTS_0": 31
          },
          "indices": 23,
          "material": 3,
          "mode": 4
        }
      ]
    }
  ],
  "nodes": [
    {
      "children": [
        1
      ],
      "matrix": [
        1.0,
        0.0,
        0.0,
        0.0,
        0.0,
        2.220446049250313e-16,
        -1.0,
        0.0,
        0.0,
        1.0,
        2.220446049250313e-16,
        0.0,
        0.0,
        0.0,
        0.0,
        1.0
      ],
      "name": "Sketchfab_model"
    },
    {
      "children": [
        2
      ],
      "name": "root"
    },
    {
      "children": [
        3,
        6,
        8,
        16
      ],
      "matrix": [
        1.0,
        0.0,
        0.0,
        0.0,
        0.0,
        2.220446049250313e-16,
        1.0,
        0.0,
        0.0,
        -1.0,
        2.220446049250313e-16,
        0.0,
        0.0,
        0.0,
        0.0,
        1.0
      ],
      "name": "GLTF_SceneRootNode"
    },
    {
      "children": [
        4,
        5
      ],
      "matrix": [
        0.7855566740036011,
        0.0,
        0.0,
        0.0,
        0.0,
        0.8706203103065491,
        0.0,
        0.0,
        0.0,
        0.0,
        0.9452013373374939,
        0.0,
        0.0,
        0.0,
        0.4140826165676117,
        1.0
      ],
      "name": "Body_1"
    },
    {
      "mesh": 0,
      "name": "Object_4"
    },
    {
      "mesh": 1,
      "name": "Object_5"
    },
    {
      "children": [
        7
      ],
      "matrix": [
        -0.07942080497741634,
        5.235705915500788e-09,
        -8.91854288468836e-09,
        0.0,
        -1.6672635949856053e-09,
        0.01232649374854471,
        0.0220835752663221,
        0.0,
        8.918543721349769e-09,
        0.06934903206175899,
        -0.03870887751950736,
        0.0,
        0.0,
        0.33693912625312805,
        -1.3351012468338013,
        1.0
      ],
      "name": "Feelers_2"
    },
    {
      "mesh": 2,
      "name": "Object_7"
    },
    {
      "children": [
        9
      ],
      "matrix": [
        0.17867358028888702,
        0.0,
        0.0,
        0.0,
        0.0,
        -0.17032667834594917,
        0.05397287223119529,
        0.0,
        0.0,
        -0.05397287223119529,
        -0.17032667834594917,
        0.0,
        0.0,
        0.04404684528708458,
        -1.4705678224563599,
        1.0
      ],
      "name": "Mouth.001_7"
    },
    {
      "children": [
        10,
        12,
        11
      ],
      "name": "GLTF_created_0"
    },
    {
      "children": [
        13
      ],
      "name": "GLTF_created_0_rootJoint"
    },
    {
      "name": "Mouth_6"
    },
    {
      "mesh": 3,
      "name": "Object_12",
      "skin": 0
    },
    {
      "children": [
        14
      ],
      "name": "Bone_5",
      "rotation": [
        -1.4901159417490817e-08,
        0.0,
        0.0,
        1.0
      ],
      "scale": [
        1.0,
        1.0000001192092896,
        1.0000001192092896
      ],
      "translation": [
        0.0,
        4.470348358154297e-08,
        6.183981895446777e-07
      ]
    },
    {
      "children": [
        15
      ],
      "name": "Bone.001_4",
      "rotation": [
        -0.3769841492176056,
        4.015749123091401e-17,
        4.015748792219156e-17,
        0.9262198209762573
      ],
      "translation": [
        0.0,
        1.0,
        7.748603820800781e-07
      ]
    },
    {
      "name": "Bone.002_3",
      "rotation": [
        0.005995703395456076,
        2.3739147832203944e-19,
        1.4400303531898638e-18,
        0.9999821186065674
      ],
      "scale": [
        1.0,
        0.9999999403953552,
        1.0
      ],
      "translation": [
        5.2112378590840744e-23,
        0.6948179006576538,
        2.384185791015625e-07
      ]
    },
    {
      "children": [
        17
      ],
      "matrix": [
        0.054306939813293,
        -0.48892390549614245,
        -0.061788668682891866,
        0.0,
        0.1766504490934398,
        0.030027538678677558,
        -0.08234254410656383,
        0.0,
        0.22609070965464706,
        -0.03459021811877361,
        0.47242123383435325,
        0.0,
        0.33827635645866394,
        -0.13328832387924194,
        -0.5476905703544617,
        1.0
      ],
      "name": "Legs.001_34"
    },
    {
      "children": [
        18,
        20,
        21,
        19
      ],
      "name": "GLTF_created_1"
    },
    {
      "children": [
        22,
        26,
        30,
        34,
        38,
        42,
        46
      ],
      "name": "GLTF_created_1_rootJoint"
    },
    {
      "name": "Legs_33"
    },
    {
      "mesh": 4,
      "name": "Object_20",
      "skin": 1
    },
    {
      "mesh": 5,
      "name": "Object_21",
      "skin": 1
    },
    {
      "children": [
        23
      ],
      "name": "Bone_11",
      "rotation": [
        3.841705620288849e-09,
        -1.862645149230957e-09,
        9.31322685637781e-10,
        1.0
      ],
      "scale": [
        1.0,
        0.9999999403953552,
        1.0
      ],
      "translation": [
        -1.4901161193847656e-08,
        -1.6391277313232422e-07,
        1.4901161193847656e-08
      ]
    },
    {
      "children": [
        24
      ],
      "name": "Bone.001_10",
      "rotation": [
        0.009053915739059448,
        0.020740777254104614,
        0.0756148025393486,
        0.996880292892456
      ],
      "scale": [
        0.9999999403953552,
        0.9999998211860657,
        0.9999999403953552
      ],
      "translation": [
        -2.2351741790771484e-08,
        0.9999997019767761,
        6.612390279769897e-08
      ]
    },
    {
      "children": [
        25
      ],
      "name": "Bone.002_9",
      "rotation": [
        -0.18470337986946106,
        -0.369852751493454,
        -0.40775787830352783,
        0.8141419887542725
      ],
      "translation": [
        1.1920928955078125e-07,
        3.758063316345215,
        -1.1175870895385742e-07
      ]
    },
    {
      "name": "Bone.003_8",
      "rotation": [
        0.23030731081962585,
        -0.13830414414405823,
        0.1377093493938446,
        0.953345000743866
      ],
      "scale": [
        1.0,
        1.0,
        0.9999999403953552
      ],
      "translation": [
        -2.384185791015625e-07,
        3.109591484069824,
        2.9802322387695313e-08
      ]
    },
    {
      "children": [
        27
      ],
      "name": "Bone.004_15",
      "rotation": [
        0.03291549161076546,
        -0.00281254923902452,
        0.0027068988420069218,
        0.9994505047798157
      ],
      "scale": [
        0.9999999403953552,
        0.9999998807907104,
        0.9999999403953552
      ],
      "translation": [
        -0.036101169884204865,
        -0.05605427175760269,
        0.46162018179893494
      ]
    },
    {
      "children": [
        28
      ],
      "name": "Bone.005_14",
      "rotation": [
        0.018225615844130516,
        0.026166370138525963,
        0.07808607816696167,
        0.9964365363121033
      ],
      "scale": [
        1.0,
        0.9999999403953552,
        1.0000001192092896
      ],
      "translation": [
        -3.725290298461914e-08,
        0.9870108366012573,
        -6.51925802230835e-08
      ]
    },
    {
      "children": [
        29
      ],
      "name": "Bone.006_13",
      "rotation": [
        -0.10999667644500732,
        -0.4346425533294678,
        -0.5206547975540161,
        0.7265708446502686
      ],
      "scale": [
        0.9999998211860657,
        0.9999998807907104,
        0.9999998807907104
      ],
      "translation": [
        0.0,
        4.030991554260254,
        -3.725290298461914e-08
      ]
    },
    {
      "name": "Bone.007_12",
      "rotation": [
        0.3485313951969147,
        -0.6922658681869507,
        -0.013440549373626709,
        0.6317541003227234
      ],
      "scale": [
        1.0,
        0.9999999403953552,
        0.9999998211860657
      ],
      "translation": [
        -1.7881393432617188e-07,
        2.7272913455963135,
        2.9802322387695313e-08
      ]
    },
    {
      "children": [
        31
      ],
      "name": "Bone.008_19",
      "rotation": [
        0.1315784603357315,
        -0.012321258895099163,
        0.014661929570138454,
        0.9911207556724548
      ],
      "scale": [
        0.9999999403953552,
        1.0,
        1.0000001192092896
      ],
      "translation": [
        -0.06303292512893677,
        -0.16883143782615662,
        0.7443923950195313
      ]
    },
    {
      "children": [
        32
      ],
      "name": "Bone.009_18",
      "rotation": [
        0.452531635761261,
        -0.17554660141468048,
        0.20756085216999054,
        0.8493038415908813
      ],
      "scale": [
        0.9999998807907104,
        0.9999998211860657,
        0.9999997615814209
      ],
      "translation": [
        3.725290298461914e-08,
        0.8396791815757751,
        -8.009374141693115e-08
      ]
    },
    {
      "children": [
        33
      ],
      "name": "Bone.010_17",
      "rotation": [
        -0.25976377725601196,
        -0.32957854866981506,
        -0.7137420773506165,
        0.5607790350914001
      ],
      "scale": [
        1.000000238418579,
        1.0000001192092896,
        1.0000001192092896
      ],
      "translation": [
        2.9802322387695313e-08,
        1.8655264377593994,
        -7.450580596923828e-08
      ]
    },
    {
      "name": "Bone.011_16",
      "rotation": [
        0.2652580738067627,
        0.0017608343623578548,
        0.15923196077346802,
        0.950936496257782
      ],
      "translation": [
        7.748603820800781e-07,
        2.3735733032226563,
        2.384185791015625e-07
      ]
    },
    {
      "children": [
        35
      ],
      "name": "Bone.012_23",
      "rotation": [
        -0.9715742468833923,
        0.04508432373404503,
        0.06248130276799202,
        0.22384600341320038
      ],
      "scale": [
        1.0,
        0.9999999403953552,
        0.9999998807907104
      ],
      "translation": [
        -0.15096871554851532,
        -3.1041605472564697,
        -0.5607974529266357
      ]
    },
    {
      "children": [
        36
      ],
      "name": "Bone.013_22",
      "rotation": [
        0.014183098450303078,
        -0.09085927903652191,
        0.11504919826984406,
        0.9890941977500916
      ],
      "scale": [
        1.0,
        1.0,
        0.9999998807907104
      ],
      "translation": [
        -1.4901161193847656e-08,
        0.6753360629081726,
        -9.685754776000977e-08
      ]
    },
    {
      "children": [
        37
      ],
      "name": "Bone.014_21",
      "rotation": [
        0.07084662467241287,
        0.41481077671051025,
        -0.4839710593223572,
        0.7672579884529114
      ],
      "scale": [
        1.0,
        0.9999998807907104,
        0.9999999403953552
      ],
      "translation": [
        -2.9802322387695313e-08,
        2.4938230514526367,
        -1.7881393432617188e-07
      ]
    },
    {
      "name": "Bone.015_20",
      "rotation": [
        -0.14449827373027802,
        -0.06841521710157394,
        0.19480770826339722,
        0.9677239060401917
      ],
      "scale": [
        1.0000001192092896,
        0.9999999403953552,
        1.0
      ],
      "translation": [
        5.960464477539063e-08,
        3.144105911254883,
        -1.7881393432617188e-07
      ]
    },
    {
      "children": [
        39
      ],
      "name": "Bone.016_27",
      "rotation": [
        -0.9835487008094788,
        0.04874745011329651,
        0.05843643099069595,
        0.16383163630962372
      ],
      "translation": [
        -0.2279438078403473,
        -4.000649929046631,
        -0.25101029872894287
      ]
    },
    {
      "children": [
        40
      ],
      "name": "Bone.017_26",
      "rotation": [
        -0.006793960928916931,
        -0.07475852966308594,
        0.10065075010061264,
        0.9920859336853027
      ],
      "translation": [
        1.4901161193847656e-08,
        0.77146977186203,
        5.960464477539063e-08
      ]
    },
    {
      "children": [
        41
      ],
      "name": "Bone.018_25",
      "rotation": [
        0.02117133140563965,
        0.5310810804367065,
        -0.3997299075126648,
        0.7468070387840271
      ],
      "scale": [
        0.9999998807907104,
        0.9999997615814209,
        0.9999999403953552
      ],
      "translation": [
        4.470348358154297e-08,
        3.2060651779174805,
        -2.9802322387695313e-08
      ]
    },
    {
      "name": "Bone.019_24",
      "rotation": [
        -0.1734139323234558,
        0.4019513428211212,
        0.07972033321857452,
        0.8955487012863159
      ],
      "scale": [
        1.0,
        0.9999998807907104,
        0.9999998211860657
      ],
      "translation": [
        -1.4901161193847656e-07,
        4.128206253051758,
        1.7881393432617188e-07
      ]
    },
    {
      "children": [
        43
      ],
      "name": "Bone.020_31",
      "rotation": [
        -0.9951083064079285,
        0.06264182925224304,
        -0.060133274644613266,
        0.04711102321743965
      ],
      "scale": [
        0.9999999403953552,
        1.0,
        0.9999998807907104
      ],
      "translation": [
        -0.27367523312568665,
        -4.49998140335083,
        -0.038072921335697174
      ]
    },
    {
      "children": [
        44
      ],
      "name": "Bone.021_30",
      "rotation": [
        0.07448532432317734,
        -0.9591567516326904,
        0.21508774161338806,
        0.16795103251934052
      ],
      "scale": [
        1.0,
        1.0000004768371582,
        1.0000001192092896
      ],
      "translation": [
        -2.9802322387695313e-08,
        0.9374954700469971,
        -5.3551048040390015e-08
      ]
    },
    {
      "children": [
        45
      ],
      "name": "Bone.022_29",
      "rotation": [
        -0.1769268959760666,
        -0.07101716846227646,
        0.416437029838562,
        0.8889508843421936
      ],
      "translation": [
        8.940696716308594e-08,
        3.201323986053467,
        -2.086162567138672e-07
      ]
    },
    {
      "name": "Bone.023_28",
      "rotation": [
        -0.03136320784687996,
        -0.4968469440937042,
        -0.1945764273405075,
        0.8451624512672424
      ],
      "scale": [
        0.9999998807907104,
        1.0,
        0.9999998807907104
      ],
      "translation": [
        1.1920928955078125e-07,
        3.684575080871582,
        -1.7881393432617188e-07
      ]
    },
    {
      "name": "neutral_bone_32",
      "rotation": [
        -0.7071068286895752,
        0.0,
        0.0,
        0.7071068286895752
      ]
    }
  ],
  "scene": 0,
  "scenes": [
    {
      "name": "Sketchfab_Scene",
      "nodes": [
        0
      ]
    }
  ],
  "skins": [
    {
      "inverseBindMatrices": 24,
      "joints": [
        10,
        13,
        14,
        15
      ],
      "skeleton": 10
    },
    {
      "inverseBindMatrices": 25,
      "joints": [
        18,
        22,
        23,
        24,
        25,
        26,
        27,
        28,
        29,
        30,
        31,
        32,
        33,
        34,
        35,
        36,
        37,
        38,
        39,
        40,
        41,
        42,
        43,
        44,
        45,
        46
      ],
      "skeleton": 18
    }
  ]
}
