{
	"asset":{
		"generator":"Khronos glTF Blender I/O v5.1.20",
		"version":"2.0"
	},
	"scene":0,
	"scenes":[
		{
			"name":"Scene",
			"nodes":[
				46
			]
		}
	],
	"nodes":[
		{
			"mesh":0,
			"name":"Object_4"
		},
		{
			"mesh":1,
			"name":"Object_5"
		},
		{
			"children":[
				0,
				1
			],
			"name":"Body_1",
			"scale":[
				0.7855566740036011,
				0.8706203103065491,
				0.9452013373374939
			],
			"translation":[
				0,
				0,
				0.4140826463699341
			]
		},
		{
			"mesh":2,
			"name":"Object_7"
		},
		{
			"children":[
				3
			],
			"name":"Feelers_2",
			"rotation":[
				0,
				0.862377405166626,
				0.5062659382820129,
				6.510768457701488e-08
			],
			"scale":[
				0.07942080497741699,
				0.025290843099355698,
				0.07942081987857819
			],
			"translation":[
				0,
				0.33693909645080566,
				-1.3351012468338013
			]
		},
		{
			"name":"Legs_33"
		},
		{
			"name":"Bone.003_8",
			"rotation":[
				0.23030726611614227,
				-0.13830412924289703,
				0.13770939409732819,
				0.953345000743866
			],
			"scale":[
				0.9999998807907104,
				1.0000001192092896,
				0.9999998211860657
			],
			"translation":[
				-7.748603820800781e-07,
				3.1095919609069824,
				2.384185791015625e-07
			]
		},
		{
			"children":[
				6
			],
			"name":"Bone.002_9",
			"rotation":[
				-0.18470355868339539,
				-0.3698529005050659,
				-0.407757967710495,
				0.8141418099403381
			],
			"scale":[
				0.9999998211860657,
				0.9999998807907104,
				0.9999998807907104
			],
			"translation":[
				0,
				3.7580623626708984,
				3.427267074584961e-07
			]
		},
		{
			"children":[
				7
			],
			"name":"Bone.001_10",
			"rotation":[
				0.00905388779938221,
				0.02074071578681469,
				0.075614795088768,
				0.996880292892456
			],
			"scale":[
				0.9999998807907104,
				1.0000001192092896,
				1.0000001192092896
			],
			"translation":[
				-1.4901161193847656e-08,
				0.999999463558197,
				-2.8312206268310547e-07
			]
		},
		{
			"children":[
				8
			],
			"name":"Bone_11",
			"rotation":[
				-0.1195853129029274,
				0.1888609677553177,
				-0.639971911907196,
				0.7351645231246948
			],
			"scale":[
				0.9999998807907104,
				1,
				1
			],
			"translation":[
				0.33827629685401917,
				-0.13328847289085388,
				-0.5476906895637512
			]
		},
		{
			"name":"Bone.007_12",
			"rotation":[
				0.3485313355922699,
				-0.692266047000885,
				-0.01344053540378809,
				0.6317539215087891
			],
			"scale":[
				0.9999999403953552,
				0.9999999403953552,
				0.9999998807907104
			],
			"translation":[
				-7.450580596923828e-08,
				2.727290391921997,
				5.662441253662109e-07
			]
		},
		{
			"children":[
				10
			],
			"name":"Bone.006_13",
			"rotation":[
				-0.1099964827299118,
				-0.4346425533294678,
				-0.5206546783447266,
				0.7265709638595581
			],
			"scale":[
				0.9999999403953552,
				1,
				0.9999999403953552
			],
			"translation":[
				1.1920928955078125e-07,
				4.030989646911621,
				-1.0617077350616455e-07
			]
		},
		{
			"children":[
				11
			],
			"name":"Bone.005_14",
			"rotation":[
				0.01822563074529171,
				0.026166392490267754,
				0.07808604091405869,
				0.9964365363121033
			],
			"scale":[
				1.0000001192092896,
				0.9999998211860657,
				1
			],
			"translation":[
				1.4901161193847656e-07,
				0.9870108962059021,
				-5.960464477539063e-08
			]
		},
		{
			"children":[
				12
			],
			"name":"Bone.004_15",
			"rotation":[
				-0.06376242637634277,
				0.17769688367843628,
				-0.6535791754722595,
				0.7329341769218445
			],
			"scale":[
				0.9999999403953552,
				1,
				1.0000001192092896
			],
			"translation":[
				0.43078184127807617,
				-0.13328847289085388,
				-0.3227650821208954
			]
		},
		{
			"name":"Bone.011_16",
			"rotation":[
				0.2652580738067627,
				0.0017609107308089733,
				0.1592320054769516,
				0.950936496257782
			],
			"scale":[
				0.9999998807907104,
				1,
				1.0000001192092896
			],
			"translation":[
				4.246830940246582e-07,
				2.3735733032226562,
				8.940696716308594e-08
			]
		},
		{
			"children":[
				14
			],
			"name":"Bone.010_17",
			"rotation":[
				-0.25976359844207764,
				-0.32957860827445984,
				-0.7137421369552612,
				0.5607789158821106
			],
			"scale":[
				1.0000001192092896,
				1,
				0.9999999403953552
			],
			"translation":[
				0,
				1.8655261993408203,
				2.8312206268310547e-07
			]
		},
		{
			"children":[
				15
			],
			"name":"Bone.009_18",
			"rotation":[
				0.4525316059589386,
				-0.1755465418100357,
				0.20756082236766815,
				0.8493038415908813
			],
			"scale":[
				1,
				0.9999998807907104,
				0.9999999403953552
			],
			"translation":[
				2.980232238769531e-07,
				0.8396793603897095,
				7.450580596923828e-09
			]
		},
		{
			"children":[
				16
			],
			"name":"Bone.008_19",
			"rotation":[
				0.08498848974704742,
				0.1456535905599594,
				-0.6508215665817261,
				0.7402656674385071
			],
			"scale":[
				0.9999999403953552,
				0.9999999403953552,
				1
			],
			"translation":[
				0.4733293652534485,
				-0.13328853249549866,
				-0.17822714149951935
			]
		},
		{
			"name":"Bone.015_20",
			"rotation":[
				-0.14449836313724518,
				-0.06841527670621872,
				0.194807767868042,
				0.9677238464355469
			],
			"scale":[
				1,
				1.0000001192092896,
				1
			],
			"translation":[
				-2.682209014892578e-07,
				3.144104242324829,
				-1.1846423149108887e-06
			]
		},
		{
			"children":[
				18
			],
			"name":"Bone.014_21",
			"rotation":[
				0.07084672152996063,
				0.4148108661174774,
				-0.4839712083339691,
				0.7672577500343323
			],
			"scale":[
				1,
				0.9999999403953552,
				0.9999998807907104
			],
			"translation":[
				3.2782554626464844e-07,
				2.493821620941162,
				1.341104507446289e-07
			]
		},
		{
			"children":[
				19
			],
			"name":"Bone.013_22",
			"rotation":[
				0.014183036051690578,
				-0.09085933119058609,
				0.11504920572042465,
				0.989094078540802
			],
			"scale":[
				1,
				1,
				0.9999999403953552
			],
			"translation":[
				-1.1920928955078125e-07,
				0.6753360033035278,
				-5.960464477539063e-08
			]
		},
		{
			"children":[
				20
			],
			"name":"Bone.012_23",
			"rotation":[
				0.6666077375411987,
				-0.741123616695404,
				0.0794273316860199,
				0.007824616506695747
			],
			"scale":[
				1,
				1.0000001192092896,
				1.0000001192092896
			],
			"translation":[
				-0.3450646996498108,
				-0.13328850269317627,
				-0.547690749168396
			]
		},
		{
			"name":"Bone.019_24",
			"rotation":[
				-0.17341390252113342,
				0.401951402425766,
				0.07972044497728348,
				0.8955486416816711
			],
			"scale":[
				1,
				1.000000238418579,
				1.0000001192092896
			],
			"translation":[
				-8.218921720981598e-07,
				4.128206729888916,
				-1.0058283805847168e-06
			]
		},
		{
			"children":[
				22
			],
			"name":"Bone.018_25",
			"rotation":[
				0.02117130160331726,
				0.5310810208320618,
				-0.39972996711730957,
				0.7468070387840271
			],
			"scale":[
				1,
				1.0000001192092896,
				1
			],
			"translation":[
				-2.980232238769531e-07,
				3.2060649394989014,
				1.1920928955078125e-07
			]
		},
		{
			"children":[
				23
			],
			"name":"Bone.017_26",
			"rotation":[
				-0.006793977227061987,
				-0.07475841790437698,
				0.10065075010061264,
				0.9920859336853027
			],
			"scale":[
				1,
				0.9999999403953552,
				1
			],
			"translation":[
				-5.960464477539063e-08,
				0.7714698314666748,
				1.4901161193847656e-08
			]
		},
		{
			"children":[
				24
			],
			"name":"Bone.016_27",
			"rotation":[
				0.6824050545692444,
				-0.7299135327339172,
				0.0256431233137846,
				0.029866328462958336
			],
			"scale":[
				1.0000001192092896,
				1.0000001192092896,
				1.0000001192092896
			],
			"translation":[
				-0.4375703036785126,
				-0.13328856229782104,
				-0.3227652311325073
			]
		},
		{
			"name":"Bone.023_28",
			"rotation":[
				-0.0313633494079113,
				-0.4968470335006714,
				-0.19457627832889557,
				0.8451623916625977
			],
			"scale":[
				0.9999999403953552,
				0.9999999403953552,
				1
			],
			"translation":[
				9.5367431640625e-07,
				3.684574604034424,
				0
			]
		},
		{
			"children":[
				26
			],
			"name":"Bone.022_29",
			"rotation":[
				-0.17692683637142181,
				-0.07101712375879288,
				0.4164368510246277,
				0.8889510035514832
			],
			"scale":[
				0.9999999403953552,
				0.9999999403953552,
				0.9999999403953552
			],
			"translation":[
				-8.344650268554688e-07,
				3.2013237476348877,
				-2.60770320892334e-07
			]
		},
		{
			"children":[
				27
			],
			"name":"Bone.021_30",
			"rotation":[
				0.07448533922433853,
				-0.9591567516326904,
				0.21508774161338806,
				0.1679510474205017
			],
			"scale":[
				0.9999999403953552,
				0.9999998807907104,
				1.0000001192092896
			],
			"translation":[
				-4.172325134277344e-07,
				0.9374954104423523,
				-2.086162567138672e-07
			]
		},
		{
			"children":[
				28
			],
			"name":"Bone.020_31",
			"rotation":[
				0.6996492147445679,
				-0.6986786723136902,
				-0.05240754038095474,
				0.13997335731983185
			],
			"scale":[
				1,
				0.9999997615814209,
				1.0000001192092896
			],
			"translation":[
				-0.4801180064678192,
				-0.13328862190246582,
				-0.17822708189487457
			]
		},
		{
			"name":"neutral_bone_32",
			"rotation":[
				-0.6043994426727295,
				0.5860733985900879,
				-0.31898367404937744,
				0.43528005480766296
			],
			"scale":[
				1,
				0.9999997615814209,
				1
			],
			"translation":[
				0.33827629685401917,
				-0.1332884132862091,
				-0.5476906895637512
			]
		},
		{
			"children":[
				9,
				13,
				17,
				21,
				25,
				29,
				30
			],
			"name":"GLTF_created_1_rootJoint",
			"rotation":[
				-1.3387753128313307e-09,
				1.4901161193847656e-08,
				4.6566123179658803e-10,
				1
			],
			"scale":[
				1,
				1.0000001192092896,
				1
			],
			"translation":[
				-1.1175870895385742e-07,
				-1.7881393432617188e-07,
				-5.960464477539063e-08
			]
		},
		{
			"mesh":3,
			"name":"Object_20",
			"skin":0
		},
		{
			"mesh":4,
			"name":"Object_21",
			"skin":0
		},
		{
			"children":[
				5,
				32,
				33,
				31
			],
			"name":"GLTF_created_1"
		},
		{
			"children":[
				34
			],
			"name":"Legs.001_34",
			"rotation":[
				-0.11958537250757217,
				0.18886098265647888,
				-0.639971911907196,
				0.73516446352005
			],
			"scale":[
				0.4957960247993469,
				0.19719870388507843,
				0.5248764753341675
			],
			"translation":[
				0.33827638626098633,
				-0.13328832387924194,
				-0.5476905703544617
			]
		},
		{
			"name":"Mouth_6"
		},
		{
			"name":"Bone.002_3",
			"rotation":[
				0.005995757877826691,
				-1.8848292882012174e-07,
				2.2602402172111624e-09,
				0.9999820590019226
			],
			"translation":[
				-1.9775190328568532e-13,
				0.6948158740997314,
				3.5762786865234375e-07
			]
		},
		{
			"children":[
				37
			],
			"name":"Bone.001_4",
			"rotation":[
				-0.3769834041595459,
				1.7457988121805101e-07,
				-1.4211285304099874e-07,
				0.9262200593948364
			],
			"scale":[
				1,
				1.0000001192092896,
				1.0000001192092896
			],
			"translation":[
				-1.421085607045472e-13,
				0.9999995231628418,
				9.5367431640625e-07
			]
		},
		{
			"children":[
				38
			],
			"name":"Bone_5",
			"rotation":[
				0.9882520437240601,
				1.1787876452729051e-08,
				1.1004935629443935e-07,
				0.15283288061618805
			],
			"scale":[
				1,
				1.0000001192092896,
				1.0000041723251343
			],
			"translation":[
				5.033537675558364e-08,
				0.044046640396118164,
				-1.4705671072006226
			]
		},
		{
			"children":[
				39
			],
			"name":"GLTF_created_0_rootJoint",
			"rotation":[
				-1.4901159417490817e-08,
				1.7114270889351246e-08,
				-2.220446049250313e-16,
				1
			],
			"scale":[
				1,
				1.0000001192092896,
				1.0000001192092896
			],
			"translation":[
				0,
				-2.384185791015625e-07,
				5.960464477539062e-07
			]
		},
		{
			"mesh":5,
			"name":"Object_12",
			"skin":1
		},
		{
			"children":[
				36,
				41,
				40
			],
			"name":"GLTF_created_0"
		},
		{
			"children":[
				42
			],
			"name":"Mouth.001_7",
			"rotation":[
				0.9882519841194153,
				0,
				0,
				0.15283313393592834
			],
			"scale":[
				0.17867359519004822,
				0.17867359519004822,
				0.17867359519004822
			],
			"translation":[
				0,
				0.04404681921005249,
				-1.4705678224563599
			]
		},
		{
			"children":[
				2,
				4,
				35,
				43
			],
			"name":"GLTF_SceneRootNode",
			"rotation":[
				0.70710688829422,
				0,
				0,
				0.7071066498756409
			]
		},
		{
			"children":[
				44
			],
			"name":"root"
		},
		{
			"children":[
				45
			],
			"name":"Sketchfab_model",
			"rotation":[
				-0.70710688829422,
				0,
				0,
				0.7071066498756409
			],
			"scale":[
				0.022511320188641548,
				0.022511322051286697,
				0.022511322051286697
			],
			"translation":[
				0,
				0.020563125610351562,
				0
			]
		}
	],
	"materials":[
		{
			"doubleSided":true,
			"name":"Material.005",
			"pbrMetallicRoughness":{
				"baseColorFactor":[
					0.6444796919822693,
					1,
					0.1441284716129303,
					1
				],
				"roughnessFactor":0.699999988079071
			}
		},
		{
			"doubleSided":true,
			"name":"Material.002",
			"pbrMetallicRoughness":{
				"baseColorFactor":[
					0,
					0,
					0,
					1
				],
				"metallicFactor":0.4440000057220459,
				"roughnessFactor":0.5
			}
		},
		{
			"doubleSided":true,
			"name":"Material.004",
			"pbrMetallicRoughness":{
				"baseColorFactor":[
					0.6456412076950073,
					1,
					0.1441284716129303,
					1
				],
				"roughnessFactor":0.699999988079071
			}
		},
		{
			"doubleSided":true,
			"name":"Material.003",
			"pbrMetallicRoughness":{
				"baseColorFactor":[
					0.6444796919822693,
					1,
					0.1441284716129303,
					1
				],
				"roughnessFactor":0.699999988079071
			}
		}
	],
	"meshes":[
		{
			"name":"Object_0",
			"primitives":[
				{
					"attributes":{
						"POSITION":0,
						"NORMAL":1,
						"TEXCOORD_0":2
					},
					"indices":3,
					"material":0
				}
			]
		},
		{
			"name":"Object_1",
			"primitives":[
				{
					"attributes":{
						"POSITION":4,
						"NORMAL":5,
						"TEXCOORD_0":6
					},
					"indices":7,
					"material":1
				}
			]
		},
		{
			"name":"Object_2",
			"primitives":[
				{
					"attributes":{
						"POSITION":8,
						"NORMAL":9,
						"TEXCOORD_0":10
					},
					"indices":11,
					"material":2
				}
			]
		},
		{
			"name":"Object_4",
			"primitives":[
				{
					"attributes":{
						"POSITION":12,
						"NORMAL":13,
						"TEXCOORD_0":14,
						"JOINTS_0":15,
						"WEIGHTS_0":16
					},
					"indices":17,
					"material":0
				}
			]
		},
		{
			"name":"Object_5",
			"primitives":[
				{
					"attributes":{
						"POSITION":19,
						"NORMAL":20,
						"TEXCOORD_0":21,
						"JOINTS_0":22,
						"WEIGHTS_0":23
					},
					"indices":24,
					"material":3
				}
			]
		},
		{
			"name":"Object_3",
			"primitives":[
				{
					"attributes":{
						"POSITION":25,
						"NORMAL":26,
						"TEXCOORD_0":27,
						"JOINTS_0":28,
						"WEIGHTS_0":29
					},
					"indices":30,
					"material":3
				}
			]
		}
	],
	"skins":[
		{
			"inverseBindMatrices":18,
			"joints":[
				31,
				9,
				8,
				7,
				6,
				13,
				12,
				11,
				10,
				17,
				16,
				15,
				14,
				21,
				20,
				19,
				18,
				25,
				24,
				23,
				22,
				29,
				28,
				27,
				26,
				30
			],
			"name":"GLTF_created_1"
		},
		{
			"inverseBindMatrices":31,
			"joints":[
				40,
				39,
				38,
				37
			],
			"name":"GLTF_created_0"
		}
	],
	"accessors":[
		{
			"bufferView":0,
			"componentType":5126,
			"count":2366,
			"max":[
				0.9424923062324524,
				0.8586254119873047,
				1.329331398010254
			],
			"min":[
				-0.9424923062324524,
				-0.7658480405807495,
				-1.9984885454177856
			],
			"type":"VEC3"
		},
		{
			"bufferView":1,
			"componentType":5126,
			"count":2366,
			"type":"VEC3"
		},
		{
			"bufferView":2,
			"componentType":5126,
			"count":2366,
			"type":"VEC2"
		},
		{
			"bufferView":3,
			"componentType":5123,
			"count":2838,
			"type":"SCALAR"
		},
		{
			"bufferView":4,
			"componentType":5126,
			"count":628,
			"max":[
				0.3977375328540802,
				0.3212169110774994,
				-1.6246181726455688
			],
			"min":[
				-0.3977375328540802,
				0.16560617089271545,
				-1.8493609428405762
			],
			"type":"VEC3"
		},
		{
			"bufferView":5,
			"componentType":5126,
			"count":628,
			"type":"VEC3"
		},
		{
			"bufferView":6,
			"componentType":5126,
			"count":628,
			"type":"VEC2"
		},
		{
			"bufferView":7,
			"componentType":5123,
			"count":636,
			"type":"SCALAR"
		},
		{
			"bufferView":8,
			"componentType":5126,
			"count":1138,
			"max":[
				5.012259483337402,
				68.46366882324219,
				3.1348607540130615
			],
			"min":[
				-5.012259483337402,
				-3.3504528999328613,
				-2.6904985904693604
			],
			"type":"VEC3"
		},
		{
			"bufferView":9,
			"componentType":5126,
			"count":1138,
			"type":"VEC3"
		},
		{
			"bufferView":10,
			"componentType":5126,
			"count":1138,
			"type":"VEC2"
		},
		{
			"bufferView":11,
			"componentType":5123,
			"count":1344,
			"type":"SCALAR"
		},
		{
			"bufferView":12,
			"componentType":5126,
			"count":2359,
			"max":[
				0.016300130635499954,
				0.10302910953760147,
				0.03924892470240593
			],
			"min":[
				-0.007349763065576553,
				0.020079826936125755,
				-0.020605430006980896
			],
			"type":"VEC3"
		},
		{
			"bufferView":13,
			"componentType":5126,
			"count":2359,
			"type":"VEC3"
		},
		{
			"bufferView":14,
			"componentType":5126,
			"count":2359,
			"type":"VEC2"
		},
		{
			"bufferView":15,
			"componentType":5121,
			"count":2359,
			"type":"VEC4"
		},
		{
			"bufferView":16,
			"componentType":5126,
			"count":2359,
			"type":"VEC4"
		},
		{
			"bufferView":17,
			"componentType":5123,
			"count":2739,
			"type":"SCALAR"
		},
		{
			"bufferView":18,
			"componentType":5126,
			"count":26,
			"type":"MAT4"
		},
		{
			"bufferView":19,
			"componentType":5126,
			"count":2357,
			"max":[
				0.019547291100025177,
				0.01303502544760704,
				0.005644896999001503
			],
			"min":[
				-0.005846383981406689,
				-0.0602421909570694,
				-0.061200130730867386
			],
			"type":"VEC3"
		},
		{
			"bufferView":20,
			"componentType":5126,
			"count":2357,
			"type":"VEC3"
		},
		{
			"bufferView":21,
			"componentType":5126,
			"count":2357,
			"type":"VEC2"
		},
		{
			"bufferView":22,
			"componentType":5121,
			"count":2357,
			"type":"VEC4"
		},
		{
			"bufferView":23,
			"componentType":5126,
			"count":2357,
			"type":"VEC4"
		},
		{
			"bufferView":24,
			"componentType":5123,
			"count":2739,
			"type":"SCALAR"
		},
		{
			"bufferView":25,
			"componentType":5126,
			"count":84,
			"max":[
				0.0019456612644717097,
				0.027667522430419922,
				-0.027068564668297768
			],
			"min":[
				-0.0019371352391317487,
				0.022448167204856873,
				-0.036169588565826416
			],
			"type":"VEC3"
		},
		{
			"bufferView":26,
			"componentType":5126,
			"count":84,
			"type":"VEC3"
		},
		{
			"bufferView":27,
			"componentType":5126,
			"count":84,
			"type":"VEC2"
		},
		{
			"bufferView":28,
			"componentType":5121,
			"count":84,
			"type":"VEC4"
		},
		{
			"bufferView":29,
			"componentType":5126,
			"count":84,
			"type":"VEC4"
		},
		{
			"bufferView":30,
			"componentType":5123,
			"count":114,
			"type":"SCALAR"
		},
		{
			"bufferView":31,
			"componentType":5126,
			"count":4,
			"type":"MAT4"
		}
	],
	"bufferViews":[
		{
			"buffer":0,
			"byteLength":28392,
			"byteOffset":0,
			"target":34962
		},
		{
			"buffer":0,
			"byteLength":28392,
			"byteOffset":28392,
			"target":34962
		},
		{
			"buffer":0,
			"byteLength":18928,
			"byteOffset":56784,
			"target":34962
		},
		{
			"buffer":0,
			"byteLength":5676,
			"byteOffset":75712,
			"target":34963
		},
		{
			"buffer":0,
			"byteLength":7536,
			"byteOffset":81388,
			"target":34962
		},
		{
			"buffer":0,
			"byteLength":7536,
			"byteOffset":88924,
			"target":34962
		},
		{
			"buffer":0,
			"byteLength":5024,
			"byteOffset":96460,
			"target":34962
		},
		{
			"buffer":0,
			"byteLength":1272,
			"byteOffset":101484,
			"target":34963
		},
		{
			"buffer":0,
			"byteLength":13656,
			"byteOffset":102756,
			"target":34962
		},
		{
			"buffer":0,
			"byteLength":13656,
			"byteOffset":116412,
			"target":34962
		},
		{
			"buffer":0,
			"byteLength":9104,
			"byteOffset":130068,
			"target":34962
		},
		{
			"buffer":0,
			"byteLength":2688,
			"byteOffset":139172,
			"target":34963
		},
		{
			"buffer":0,
			"byteLength":28308,
			"byteOffset":141860,
			"target":34962
		},
		{
			"buffer":0,
			"byteLength":28308,
			"byteOffset":170168,
			"target":34962
		},
		{
			"buffer":0,
			"byteLength":18872,
			"byteOffset":198476,
			"target":34962
		},
		{
			"buffer":0,
			"byteLength":9436,
			"byteOffset":217348,
			"target":34962
		},
		{
			"buffer":0,
			"byteLength":37744,
			"byteOffset":226784,
			"target":34962
		},
		{
			"buffer":0,
			"byteLength":5478,
			"byteOffset":264528,
			"target":34963
		},
		{
			"buffer":0,
			"byteLength":1664,
			"byteOffset":270008
		},
		{
			"buffer":0,
			"byteLength":28284,
			"byteOffset":271672,
			"target":34962
		},
		{
			"buffer":0,
			"byteLength":28284,
			"byteOffset":299956,
			"target":34962
		},
		{
			"buffer":0,
			"byteLength":18856,
			"byteOffset":328240,
			"target":34962
		},
		{
			"buffer":0,
			"byteLength":9428,
			"byteOffset":347096,
			"target":34962
		},
		{
			"buffer":0,
			"byteLength":37712,
			"byteOffset":356524,
			"target":34962
		},
		{
			"buffer":0,
			"byteLength":5478,
			"byteOffset":394236,
			"target":34963
		},
		{
			"buffer":0,
			"byteLength":1008,
			"byteOffset":399716,
			"target":34962
		},
		{
			"buffer":0,
			"byteLength":1008,
			"byteOffset":400724,
			"target":34962
		},
		{
			"buffer":0,
			"byteLength":672,
			"byteOffset":401732,
			"target":34962
		},
		{
			"buffer":0,
			"byteLength":336,
			"byteOffset":402404,
			"target":34962
		},
		{
			"buffer":0,
			"byteLength":1344,
			"byteOffset":402740,
			"target":34962
		},
		{
			"buffer":0,
			"byteLength":228,
			"byteOffset":404084,
			"target":34963
		},
		{
			"buffer":0,
			"byteLength":256,
			"byteOffset":404312
		}
	],
	"buffers":[
		{
			"byteLength":404568,
			"uri":"aphid.bin"
		}
	]
}
