{
  "accessors": [
    {
      "bufferView": 2,
      "componentType": 5126,
      "count": 8727,
      "max": [
        12.591075897216797,
        26.953182220458984,
        24.198871612548828
      ],
      "min": [
        -12.591075897216797,
        -0.00477263331413269,
        -24.198869705200195
      ],
      "type": "VEC3"
    },
    {
      "bufferView": 2,
      "byteOffset": 104724,
      "componentType": 5126,
      "count": 8727,
      "max": [
        0.9999807476997375,
        0.9997595548629761,
        0.9984989166259766
      ],
      "min": [
        -0.9999827146530151,
        -0.9999905824661255,
        -0.9995036721229553
      ],
      "type": "VEC3"
    },
    {
      "bufferView": 3,
      "componentType": 5126,
      "count": 8727,
      "max": [
        0.999993085861206,
        0.9999610185623169,
        0.9979330897331238,
        1.0
      ],
      "min": [
        -0.9999649524688721,
        -0.9767072200775146,
        -0.9988518357276917,
        1.0
      ],
      "type": "VEC4"
    },
    {
      "bufferView": 1,
      "componentType": 5126,
      "count": 8727,
      "max": [
        0.985821545124054,
        0.9880675673484802
      ],
      "min": [
        0.01214759610593319,
        0.007645964622497559
      ],
      "type": "VEC2"
    },
    {
      "bufferView": 1,
      "byteOffset": 69816,
      "componentType": 5126,
      "count": 8727,
      "max": [
        0.985821545124054,
        0.9880675673484802
      ],
      "min": [
        0.01214759610593319,
        0.007645964622497559
      ],
      "type": "VEC2"
    },
    {
      "bufferView": 1,
      "byteOffset": 139632,
      "componentType": 5126,
      "count": 8727,
      "max": [
        0.985821545124054,
        0.9880675673484802
      ],
      "min": [
        0.01214759610593319,
        0.007645964622497559
      ],
      "type": "VEC2"
    },
    {
      "bufferView": 1,
      "byteOffset": 209448,
      "componentType": 5126,
      "count": 8727,
      "max": [
        0.985821545124054,
        0.9880675673484802
      ],
      "min": [
        0.01214759610593319,
        0.007645964622497559
      ],
      "type": "VEC2"
    },
    {
      "bufferView": 1,
      "byteOffset": 279264,
      "componentType": 5126,
      "count": 8727,
      "max": [
        0.985821545124054,
        0.9880675673484802
      ],
      "min": [
        0.01214759610593319,
        0.007645964622497559
      ],
      "type": "VEC2"
    },
    {
      "bufferView": 0,
      "componentType": 5125,
      "count": 49563,
      "type": "SCALAR"
    }
  ],
  "asset": {
    "extras": {
      "author": "soufiane oujihi (https://sketchfab.com/sararoujihi)",
      "license": "CC-BY-4.0 (http://creativecommons.org/licenses/by/4.0/)",
      "source": "https://sketchfab.com/3d-models/snail-3d-69f9a70968a64e7396115247d0db3b2d",
      "title": "Snail 3D"
    },
    "generator": "Sketchfab-15.55.0",
    "version": "2.0"
  },
  "bufferViews": [
    {
      "buffer": 0,
      "byteLength": 198252,
      "name": "floatBufferViews",
      "target": 34963
    },
    {
      "buffer": 0,
      "byteLength": 349080,
      "byteOffset": 198252,
      "byteStride": 8,
      "name": "floatBufferViews",
      "target": 34962
    },
    {
      "buffer": 0,
      "byteLength": 209448,
      "byteOffset": 547332,
      "byteStride": 12,
      "name": "floatBufferViews",
      "target": 34962
    },
    {
      "buffer": 0,
      "byteLength": 139632,
      "byteOffset": 756780,
      "byteStride": 16,
      "name": "floatBufferViews",
      "target": 34962
    }
  ],
  "buffers": [
    {
      "byteLength": 896412,
      "uri": "snails.bin"
    }
  ],
  "extensionsRequired": [
    "KHR_materials_pbrSpecularGlossiness"
  ],
  "extensionsUsed": [
    "KHR_materials_pbrSpecularGlossiness"
  ],
  "images": [
    {
      "uri": "textures/material_0_diffuse.png"
    },
    {
      "uri": "textures/material_0_specularGlossiness.png"
    },
    {
      "uri": "textures/material_0_normal.png"
    },
    {
      "uri": "textures/material_0_occlusion.png"
    }
  ],
  "materials": [
    {
      "doubleSided": true,
      "extensions": {
        "KHR_materials_pbrSpecularGlossiness": {
          "diffuseFactor": [
            1.0,
            1.0,
            1.0,
            1.0
          ],
          "diffuseTexture": {
            "index": 0
          },
          "glossinessFactor": 1.0,
          "specularFactor": [
            1.0,
            1.0,
            1.0
          ],
          "specularGlossinessTexture": {
            "index": 1
          }
        }
      },
      "name": "material_0",
      "normalTexture": {
        "index": 2
      },
      "occlusionTexture": {
        "index": 3
      }
    }
  ],
  "meshes": [
    {
      "name": "Object_0",
      "primitives": [
        {
          "attributes": {
            "NORMAL": 1,
            "POSITION": 0,
            "TANGENT": 2,
            "TEXCOORD_0": 3,
            "TEXCOORD_1": 4,
            "TEXCOORD_2": 5,
            "TEXCOORD_3": 6,
            "TEXCOORD_4": 7
          },
          "indices": 8,
          "material": 0,
          "mode": 4
        }
      ]
    }
  ],
  "nodes": [
    {
      "children": [
        1
      ],
      "matrix": [
        1.0,
        0.0,
        0.0,
        0.0,
        0.0,
        2.220446049250313e-16,
        -1.0,
        0.0,
        0.0,
        1.0,
        2.220446049250313e-16,
        0.0,
        0.0,
        0.0,
        0.0,
        1.0
      ],
      "name": "Sketchfab_model"
    },
    {
      "children": [
        2
      ],
      "name": "root"
    },
    {
      "children": [
        3
      ],
      "matrix": [
        1.0,
        0.0,
        0.0,
        0.0,
        0.0,
        2.220446049250313e-16,
        1.0,
        0.0,
        0.0,
        -1.0,
        2.220446049250313e-16,
        0.0,
        0.0,
        0.0,
        0.0,
        1.0
      ],
      "name": "GLTF_SceneRootNode"
    },
    {
      "children": [
        4
      ],
      "matrix": [
        0.009999999776482582,
        0.0,
        0.0,
        0.0,
        0.0,
        0.009999999776482582,
        0.0,
        0.0,
        0.0,
        0.0,
        0.009999999776482582,
        0.0,
        0.0,
        0.0,
        0.0,
        1.0
      ],
      "name": "RootNode.0_0"
    },
    {
      "children": [
        5
      ],
      "name": "snail.1_1"
    },
    {
      "mesh": 0,
      "name": "Object_5"
    }
  ],
  "samplers": [
    {
      "magFilter": 9729,
      "minFilter": 9987,
      "wrapS": 10497,
      "wrapT": 10497
    }
  ],
  "scene": 0,
  "scenes": [
    {
      "name": "Sketchfab_Scene",
      "nodes": [
        0
      ]
    }
  ],
  "textures": [
    {
      "sampler": 0,
      "source": 0
    },
    {
      "sampler": 0,
      "source": 1
    },
    {
      "sampler": 0,
      "source": 2
    },
    {
      "sampler": 0,
      "source": 3
    }
  ]
}
